<?xml version="1.0" encoding="UTF-8"?>
<svg width="1440px" height="724px" viewBox="0 0 1440 724" version="1.1" xmlns="http://www.w3.org/2000/svg" xmlns:xlink="http://www.w3.org/1999/xlink">
    <!-- Generator: Sketch 48.2 (47327) - http://www.bohemiancoding.com/sketch -->
    <title>Screen Shot 2018-01-29 at 22.47.04</title>
    <desc>Created with Sketch.</desc>
    <defs></defs>
    <g id="SEO-Background" stroke="none" stroke-width="1" fill="none" fill-rule="evenodd">
        <g id="Cross" transform="translate(32.000000, 215.000000)" stroke="#65CAC5" stroke-linecap="round" stroke-width="4">
            <path d="M0,0 L6.747692,7.38028812" id="Line"></path>
            <path d="M0,0 L6.747692,7.38028812" id="Line" transform="translate(3.373846, 3.690144) scale(-1, 1) translate(-3.373846, -3.690144) "></path>
        </g>
        <g id="Group-8" transform="translate(75.000000, 151.000000)" stroke="#979797" stroke-linecap="round" stroke-width="4">
            <path d="M0,0 L6.747692,7.38028812" id="Line"></path>
            <path d="M0,0 L6.747692,7.38028812" id="Line" transform="translate(3.373846, 3.690144) scale(-1, 1) translate(-3.373846, -3.690144) "></path>
        </g>
        <g id="Group-6" transform="translate(94.000000, 83.000000)" stroke="#007991" stroke-linecap="round" stroke-width="4">
            <path d="M0,0 L6.747692,7.38028812" id="Line"></path>
            <path d="M0,0 L6.747692,7.38028812" id="Line" transform="translate(3.373846, 3.690144) scale(-1, 1) translate(-3.373846, -3.690144) "></path>
        </g>
        <circle id="Oval" stroke="#31CDC6" stroke-width="2" cx="38.5" cy="154.5" r="2.5"></circle>
        <circle id="Oval" stroke="#007991" stroke-width="2" cx="91.5" cy="225.5" r="2.5"></circle>
        <circle id="Oval" stroke="#65CAC5" stroke-width="2" cx="129.5" cy="122.5" r="2.5"></circle>
        <circle id="Oval" stroke="#65CAC5" stroke-width="2" cx="64.5" cy="516.5" r="2.5"></circle>
        <g id="Cross" transform="translate(67.000000, 417.000000)" stroke="#979797" stroke-linecap="round" stroke-width="4">
            <path d="M0,0 L6.747692,7.38028812" id="Line"></path>
            <path d="M0,0 L6.747692,7.38028812" id="Line" transform="translate(3.373846, 3.690144) scale(-1, 1) translate(-3.373846, -3.690144) "></path>
        </g>
        <g id="Cross" transform="translate(74.000000, 281.000000)" stroke="#66B6AB" stroke-linecap="round" stroke-width="4">
            <path d="M0,0 L6.747692,7.38028812" id="Line"></path>
            <path d="M0,0 L6.747692,7.38028812" id="Line" transform="translate(3.373846, 3.690144) scale(-1, 1) translate(-3.373846, -3.690144) "></path>
        </g>
        <g id="Group-6" transform="translate(36.000000, 347.000000)" stroke="#007991" stroke-linecap="round" stroke-width="4">
            <path d="M0,0 L6.747692,7.38028812" id="Line"></path>
            <path d="M0,0 L6.747692,7.38028812" id="Line" transform="translate(3.373846, 3.690144) scale(-1, 1) translate(-3.373846, -3.690144) "></path>
        </g>
        <g id="Page-1" transform="translate(1270.500000, 537.485294) scale(-1, -1) translate(-1270.500000, -537.485294) translate(1258.000000, 518.000000)" fill="#FFFFFF">
            <path d="M5.55176708,27.0924751 L6.4169088,31.5016159 L9.43274134,32.2955556 L6.4169088,33.0894954 L5.55176708,37.5003706 L4.68662536,33.0894954 L1.67079281,32.2955556 L4.68662536,31.5016159 L5.55176708,27.0924751 M5.55176708,25.9771703 C5.01844165,25.9771703 4.55978712,26.3541538 4.45558586,26.8770458 L3.7259547,30.5999615 L1.38589599,31.2166746 C0.894242173,31.3452295 0.553753558,31.7882472 0.553753558,32.2955111 C0.553753558,32.8027751 0.895989979,33.245775 1.38589599,33.3760822 L3.7259547,33.9910608 L4.45558586,37.713977 C4.55981825,38.2386301 5.01844165,38.6155865 5.55176708,38.6155865 C6.0850925,38.6155865 6.54374704,38.2368685 6.64794829,37.713977 L7.37931392,33.9910608 L9.71937263,33.3760822 C10.2110264,33.2457884 10.5515151,32.8027751 10.5515151,32.2955111 C10.5515151,31.7882472 10.2092786,31.3452473 9.71937263,31.2166746 L7.37931392,30.5999615 L6.64794829,26.8770458 C6.54545037,26.3541271 6.08682697,25.9771703 5.55176708,25.9771703" id="Fill-1"></path>
            <path d="M20.8217208,1.2372213 L21.5235561,4.81942303 L23.9730639,5.46393204 L21.5235561,6.10844106 L20.8217208,9.69237725 L20.1181511,6.10844106 L17.6686433,5.46393204 L20.1181511,4.81942303 L20.8217208,1.2372213 M20.8217208,0.330363496 C20.3874111,0.330363496 20.0156398,0.636118359 19.9305177,1.06172913 L19.3381315,4.08627846 L17.4376038,4.5866046 C17.0380366,4.69084144 16.7618299,5.05219699 16.7618299,5.46393204 C16.7618299,5.8756671 17.0397889,6.23527929 17.4376038,6.34125949 L19.3381315,6.84158563 L19.9305177,9.86613496 C20.0156443,10.2917591 20.3873933,10.5992351 20.8217208,10.5992351 C21.2560306,10.5992351 21.6278018,10.2917413 21.7111895,9.86613496 L22.3053101,6.84158563 L24.2058379,6.34125949 C24.6036661,6.23528819 24.8816117,5.8756671 24.8816117,5.46393204 C24.8816117,5.05219699 24.6036528,4.6925848 24.2058379,4.5866046 L22.3053101,4.08627846 L21.7111895,1.06172913 C21.6260629,0.637843928 21.2543139,0.330363496 20.8217208,0.330363496" id="Fill-2"></path>
            <path d="M6.44790678,9.2074834 C7.243581,9.2074834 7.88809001,9.85199241 7.88809001,10.6476666 C7.88809001,11.4433408 7.243581,12.0878499 6.44790678,12.0878499 C5.65223257,12.0878499 5.00772355,11.4433408 5.00772355,10.6476666 C5.00772355,9.85199241 5.65223257,9.2074834 6.44790678,9.2074834 Z M6.44790678,7.94274787 C4.95733515,7.94274787 3.74476696,9.15536053 3.74476696,10.6458877 C3.74476696,12.1364593 4.95737963,13.3490275 6.44790678,13.3490275 C7.93847842,13.3490275 9.15104661,12.1364148 9.15104661,10.6458877 C9.15104661,9.15705052 7.93843394,7.94274787 6.44790678,7.94274787 Z" id="Fill-3"></path>
        </g>
        <g id="Page-1" transform="translate(1270.500000, 422.500000) scale(-1, 1) translate(-1270.500000, -422.500000) translate(1258.000000, 403.000000)" fill="#FFFFFF">
            <path d="M5.55176708,27.0924751 L6.4169088,31.5016159 L9.43274134,32.2955556 L6.4169088,33.0894954 L5.55176708,37.5003706 L4.68662536,33.0894954 L1.67079281,32.2955556 L4.68662536,31.5016159 L5.55176708,27.0924751 M5.55176708,25.9771703 C5.01844165,25.9771703 4.55978712,26.3541538 4.45558586,26.8770458 L3.7259547,30.5999615 L1.38589599,31.2166746 C0.894242173,31.3452295 0.553753558,31.7882472 0.553753558,32.2955111 C0.553753558,32.8027751 0.895989979,33.245775 1.38589599,33.3760822 L3.7259547,33.9910608 L4.45558586,37.713977 C4.55981825,38.2386301 5.01844165,38.6155865 5.55176708,38.6155865 C6.0850925,38.6155865 6.54374704,38.2368685 6.64794829,37.713977 L7.37931392,33.9910608 L9.71937263,33.3760822 C10.2110264,33.2457884 10.5515151,32.8027751 10.5515151,32.2955111 C10.5515151,31.7882472 10.2092786,31.3452473 9.71937263,31.2166746 L7.37931392,30.5999615 L6.64794829,26.8770458 C6.54545037,26.3541271 6.08682697,25.9771703 5.55176708,25.9771703" id="Fill-1"></path>
            <path d="M20.8217208,1.2372213 L21.5235561,4.81942303 L23.9730639,5.46393204 L21.5235561,6.10844106 L20.8217208,9.69237725 L20.1181511,6.10844106 L17.6686433,5.46393204 L20.1181511,4.81942303 L20.8217208,1.2372213 M20.8217208,0.330363496 C20.3874111,0.330363496 20.0156398,0.636118359 19.9305177,1.06172913 L19.3381315,4.08627846 L17.4376038,4.5866046 C17.0380366,4.69084144 16.7618299,5.05219699 16.7618299,5.46393204 C16.7618299,5.8756671 17.0397889,6.23527929 17.4376038,6.34125949 L19.3381315,6.84158563 L19.9305177,9.86613496 C20.0156443,10.2917591 20.3873933,10.5992351 20.8217208,10.5992351 C21.2560306,10.5992351 21.6278018,10.2917413 21.7111895,9.86613496 L22.3053101,6.84158563 L24.2058379,6.34125949 C24.6036661,6.23528819 24.8816117,5.8756671 24.8816117,5.46393204 C24.8816117,5.05219699 24.6036528,4.6925848 24.2058379,4.5866046 L22.3053101,4.08627846 L21.7111895,1.06172913 C21.6260629,0.637843928 21.2543139,0.330363496 20.8217208,0.330363496" id="Fill-2"></path>
            <path d="M6.44790678,9.2074834 C7.243581,9.2074834 7.88809001,9.85199241 7.88809001,10.6476666 C7.88809001,11.4433408 7.243581,12.0878499 6.44790678,12.0878499 C5.65223257,12.0878499 5.00772355,11.4433408 5.00772355,10.6476666 C5.00772355,9.85199241 5.65223257,9.2074834 6.44790678,9.2074834 Z M6.44790678,7.94274787 C4.95733515,7.94274787 3.74476696,9.15536053 3.74476696,10.6458877 C3.74476696,12.1364593 4.95737963,13.3490275 6.44790678,13.3490275 C7.93847842,13.3490275 9.15104661,12.1364148 9.15104661,10.6458877 C9.15104661,9.15705052 7.93843394,7.94274787 6.44790678,7.94274787 Z" id="Fill-3"></path>
        </g>
        <circle id="Oval" stroke="#66B6AB" stroke-width="2" cx="28.5" cy="302.5" r="2.5"></circle>
        <circle id="Oval" stroke="#007991" stroke-width="2" cx="38.5" cy="474.5" r="2.5"></circle>
        <g id="Group-8" transform="translate(29.000000, 536.000000)" stroke="#979797" stroke-linecap="round" stroke-width="4">
            <path d="M0,0 L6.747692,7.38028812" id="Line"></path>
            <path d="M0,0 L6.747692,7.38028812" id="Line" transform="translate(3.373846, 3.690144) scale(-1, 1) translate(-3.373846, -3.690144) "></path>
        </g>
        <circle id="Oval-2" stroke="#007991" cx="59.5" cy="575.5" r="2.5"></circle>
        <circle id="Oval-2" stroke="#007991" cx="89.5" cy="457.5" r="2.5"></circle>
        <circle id="Oval-2" stroke="#007991" cx="31.5" cy="397.5" r="2.5"></circle>
        <circle id="Oval-2" stroke="#007991" cx="35.5" cy="91.5" r="2.5"></circle>
        <g id="Group-2" transform="translate(849.000000, 244.000000)">
            <g id="Page-1" fill="#EAF6F9">
                <path d="M0,35.0820166 L0,140.324324 L608.881078,140.324324 L608.881078,35.0820166 C608.881078,15.2025814 593.659426,0 573.753323,0 L35.1277545,0 C15.2224016,0 0,15.201833 0,35.0820166 Z M105.379517,23.3880111 C112.405067,23.3880111 117.088768,28.0656133 117.088768,35.0820166 C117.088768,42.0984199 112.405067,46.7760221 105.379517,46.7760221 C98.3539656,46.7760221 93.670265,42.0984199 93.670265,35.0820166 C93.670265,28.0656133 98.3539656,23.3880111 105.379517,23.3880111 Z M70.251762,23.3880111 C77.2773129,23.3880111 81.9610135,28.0656133 81.9610135,35.0820166 C81.9610135,42.0984199 77.2773129,46.7760221 70.251762,46.7760221 C63.2262111,46.7760221 58.5425105,42.0984199 58.5425105,35.0820166 C58.5425105,28.0656133 63.2262111,23.3880111 70.251762,23.3880111 Z M35.1240075,23.3880111 C42.1495584,23.3880111 46.833259,28.0656133 46.833259,35.0820166 C46.833259,42.0984199 42.1495584,46.7760221 35.1240075,46.7760221 C28.0984566,46.7760221 23.414756,42.0984199 23.414756,35.0820166 C23.414756,28.0656133 28.0984566,23.3880111 35.1240075,23.3880111 Z M515.199572,116.940055 L23.4110091,116.940055 L23.4110091,70.1640332 L515.199572,70.1640332 L515.199572,116.940055 Z M562.036578,116.940055 C549.156027,116.940055 538.618075,106.415825 538.618075,93.5520443 C538.618075,80.688264 549.156027,70.1640332 562.036578,70.1640332 C574.917129,70.1640332 585.455081,80.688264 585.455081,93.5520443 C585.455081,106.415825 574.917129,116.940055 562.036578,116.940055 Z" id="Fill-1"></path>
                <path d="M585.462575,140.324324 L585.462575,668.800375 C585.462575,675.8403 580.778874,680.533584 573.753323,680.533584 L35.1277545,680.533584 C28.1022036,680.533584 23.418503,675.8403 23.418503,668.800375 L23.418503,137 L0,137 L0,668.800375 C0,688.746454 15.2216523,704 35.1277545,704 L573.753323,704 C593.658676,704 608.881078,688.747205 608.881078,668.800375 L608.881078,140.324324 L585.462575,140.324324 Z" id="Fill-9"></path>
            </g>
            <rect id="Rectangle" stroke="#EAF6F9" stroke-width="8" x="50" y="332" width="348" height="111"></rect>
            <g id="Group" transform="translate(46.000000, 180.000000)" stroke-width="8">
                <rect id="Rectangle" stroke="#F7CA5D" x="4" y="4" width="348" height="111"></rect>
                <path d="M23.14,35.105 L284.206667,35.105" id="Line-2" stroke="#007991" stroke-linecap="square"></path>
                <path d="M23.14,60.095 L284.206667,60.095" id="Line-2" stroke="#007991" stroke-linecap="square"></path>
                <path d="M23.14,85.085 L74.76,85.085" id="Line-2" stroke="#007991" stroke-linecap="square"></path>
                <path d="M93.1533333,85.085 L144.773333,85.085" id="Line-2" stroke="#007991" stroke-linecap="square"></path>
                <path d="M163.166667,85.085 L214.786667,85.085" id="Line-2" stroke="#007991" stroke-linecap="square"></path>
                <path d="M233.18,85.085 L284.8,85.085" id="Line-2" stroke="#007991" stroke-linecap="square"></path>
            </g>
            <g id="Group" transform="translate(46.000000, 328.000000)" stroke="#EAF6F9" stroke-width="8">
                <rect id="Rectangle" x="4" y="4" width="348" height="111"></rect>
                <path d="M23.14,35.105 L284.206667,35.105" id="Line-2" stroke-linecap="square"></path>
                <path d="M23.14,60.095 L284.206667,60.095" id="Line-2" stroke-linecap="square"></path>
                <path d="M23.14,85.085 L74.76,85.085" id="Line-2" stroke-linecap="square"></path>
                <path d="M93.1533333,85.085 L144.773333,85.085" id="Line-2" stroke-linecap="square"></path>
                <path d="M163.166667,85.085 L214.786667,85.085" id="Line-2" stroke-linecap="square"></path>
                <path d="M233.18,85.085 L284.8,85.085" id="Line-2" stroke-linecap="square"></path>
            </g>
            <g id="Group" transform="translate(46.000000, 471.000000)" stroke="#EAF6F9" stroke-width="8">
                <rect id="Rectangle" x="4" y="4" width="348" height="111"></rect>
            </g>
        </g>
    </g>
</svg>