<?xml version="1.0" encoding="UTF-8"?>
<svg width="136px" height="144px" viewBox="0 0 136 144" version="1.1" xmlns="http://www.w3.org/2000/svg" xmlns:xlink="http://www.w3.org/1999/xlink">
    <!-- Generator: Sketch 48.2 (47327) - http://www.bohemiancoding.com/sketch -->
    <title>Group</title>
    <desc>Created with Sketch.</desc>
    <defs></defs>
    <g id="Page-1" stroke="none" stroke-width="1" fill="none" fill-rule="evenodd">
        <g id="Group">
            <g id="Page-1" fill="#2F3A55">
                <path d="M96.1769014,86.968 L85.0967324,85.774256 C84.2113117,82.305456 82.8394836,79.036816 81.0625446,76.036816 L88.0585634,67.330576 C88.7631615,66.62432 88.7631615,65.474256 88.0585634,64.768016 L79.2729953,55.961776 C78.5683972,55.25552 77.4210329,55.25552 76.7164507,55.961776 L68.0306479,62.974256 C65.0376901,61.192976 61.7765634,59.817936 58.3160657,58.930576 L57.1251239,47.824336 C57.1251239,46.824336 56.3145352,46.011856 55.3168986,46.011856 L42.8962038,46.011856 C41.8985512,46.011856 41.0879784,46.824352 41.0879784,47.824336 L39.8970366,58.930576 C36.4363793,59.81808 33.1754122,61.193136 30.1824545,62.974256 L21.4966516,55.961776 C20.7920535,55.25552 19.6446892,55.25552 18.940107,55.961776 L10.154539,64.768016 C9.44994085,65.474272 9.44994085,66.624336 10.154539,67.330576 L17.1505577,76.036816 C15.3734592,79.036816 14.0016469,82.305616 13.11637,85.774256 L2.03619775,86.968 C1.03854516,86.968 0.227972394,87.780496 0.227972394,88.78048 L0.227972394,101.2304 C0.227972394,102.2304 1.03856113,103.04288 2.03619775,103.04288 L13.11637,104.236624 C14.0017906,107.705424 15.3736188,110.974064 17.1505577,113.974064 L10.154539,122.680304 C9.44994085,123.38656 9.44994085,124.536624 10.154539,125.242864 L18.940107,134.049104 C19.6447052,134.75536 20.7920695,134.75536 21.4966516,134.049104 L30.1824545,127.036624 C33.1754122,128.817904 36.436539,130.192944 39.8970366,131.080304 L41.0879784,142.186542 C41.0879784,143.186542 41.8985671,143.999022 42.8962038,143.999022 L55.3168986,143.999022 C56.3145512,143.999022 57.1251239,143.186526 57.1251239,142.186542 L58.3160657,131.080304 C61.776723,130.1928 65.0376901,128.817744 68.0306479,127.036624 L76.7164507,134.049104 C77.4210488,134.75536 78.5684131,134.75536 79.2729953,134.049104 L88.0585634,125.242864 C88.7631615,124.536608 88.7631615,123.386544 88.0585634,122.680304 L81.0625446,113.974064 C82.8396432,110.974064 84.2114554,107.705264 85.0967324,104.236624 L96.1769014,103.04288 C97.174554,103.04288 97.9851268,102.230384 97.9851268,101.2304 L97.9851268,88.78048 C97.9851268,87.78048 97.174538,86.968 96.1769014,86.968 Z M49.1132394,115.5808 C37.7773521,115.5808 28.5871362,106.36832 28.5871362,95.0064 C28.5871362,83.64384 37.7779906,74.432 49.1132394,74.432 C60.4491268,74.432 69.6393427,83.64448 69.6393427,95.0064 C69.6393427,106.3752 60.4484883,115.5808 49.1132394,115.5808 Z" id="Fill-1"></path>
                <path d="M134.03662,24.688 L127.358573,23.969248 C126.828572,21.881728 125.999275,19.906688 124.926854,18.100448 L129.141897,12.856768 C129.565891,12.431776 129.565891,11.738016 129.141897,11.313024 L123.848113,6.006784 C123.424118,5.581792 122.731987,5.581792 122.307992,6.006784 L117.076622,10.231744 C115.274622,9.156736 113.304218,8.325504 111.221598,7.794304 L110.504533,1.100544 C110.498292,0.488048 110.011948,0.000544 109.407115,0.000544 L101.918496,0.000544 C101.313663,0.000544 100.827319,0.488048 100.827319,1.094288 L100.110254,7.788048 C98.0276347,8.319296 96.057231,9.150544 94.255231,10.225488 L89.0238601,6.000528 C88.5998657,5.575536 87.9077343,5.575536 87.4837399,6.000528 L82.1899559,11.306768 C81.7659615,11.73176 81.7659615,12.42552 82.1899559,12.850512 L86.4049981,18.094192 C85.3325136,19.906672 84.5094582,21.875472 83.9732798,23.962992 L77.2952329,24.681744 C76.6904,24.681744 76.2040563,25.169248 76.2040563,25.775488 L76.2040563,33.281728 C76.2040563,33.887984 76.690416,34.375472 77.2952329,34.375472 L83.9732798,35.094224 C84.5032808,37.187984 85.3325775,39.156784 86.4049981,40.963024 L82.1899559,46.206704 C81.7659615,46.631696 81.7659615,47.325456 82.1899559,47.750448 L87.4837399,53.056688 C87.9077343,53.48168 88.5998657,53.48168 89.0238601,53.056688 L94.255231,48.831728 C96.057231,49.906736 98.0276347,50.737968 100.110254,51.269168 L100.827319,57.962928 C100.827319,58.569184 101.313679,59.056672 101.918496,59.056672 L109.407115,59.056672 C110.011948,59.056672 110.498292,58.569168 110.498292,57.962928 L111.215357,51.269168 C113.297977,50.73792 115.26838,49.906672 117.07038,48.831728 L122.301751,53.056688 C122.725746,53.48168 123.417877,53.48168 123.841871,53.056688 L129.135655,47.750448 C129.55965,47.325456 129.55965,46.631696 129.135655,46.206704 L124.920613,40.963024 C125.993098,39.150544 126.816153,37.181744 127.352331,35.094224 L134.030378,34.375472 C134.635211,34.375472 135.121555,33.887968 135.121555,33.281728 L135.127796,25.775488 C135.127796,25.175488 134.635211,24.687984 134.03662,24.687984 L134.03662,24.688 Z M105.666573,41.9312 C98.8327324,41.9312 93.2956808,36.38112 93.2956808,29.5312 C93.2956808,22.68128 98.8327324,17.1312 105.666573,17.1312 C112.500413,17.1312 118.037465,22.68128 118.037465,29.5312 C118.037465,36.38112 112.500413,41.9312 105.666573,41.9312 Z" id="Fill-2"></path>
            </g>
            <circle id="Oval" stroke="#7EC4E3" stroke-width="3" cx="49.5" cy="95.5" r="20.5"></circle>
            <circle id="Oval" stroke="#7EC4E3" stroke-width="2" cx="106" cy="30" r="12"></circle>
        </g>
    </g>
</svg>