<?xml version="1.0" encoding="UTF-8"?>
<svg width="1440px" height="755px" viewBox="0 0 1440 755" version="1.1" xmlns="http://www.w3.org/2000/svg" xmlns:xlink="http://www.w3.org/1999/xlink">
    <!-- Generator: Sketch 48.2 (47327) - http://www.bohemiancoding.com/sketch -->
    <title>Rectangle 3</title>
    <desc>Created with Sketch.</desc>
    <defs></defs>
    <g id="Page-1" stroke="none" stroke-width="1" fill="none" fill-rule="evenodd">
        <g id="Group-4" transform="translate(18.000000, 27.000000)">
            <circle id="Oval" stroke="#F2F2F2" cx="35.5" cy="305.5" r="2.5"></circle>
            <circle id="Oval" stroke="#63C5BE" cx="30.5" cy="253.5" r="2.5"></circle>
            <circle id="Oval" stroke="#324F75" cx="42.5" cy="145.5" r="2.5"></circle>
            <circle id="Oval" stroke="#F2F2F2" cx="2.5" cy="49.5" r="2.5"></circle>
            <circle id="Oval" stroke="#63C5BE" cx="59.5" cy="517.5" r="2.5"></circle>
            <circle id="Oval" stroke="#63C5BE" cx="27.5" cy="599.5" r="2.5"></circle>
            <circle id="Oval" stroke="#66B6AB" stroke-width="2" cx="48.5" cy="648.5" r="2.5"></circle>
            <circle id="Oval" stroke="#F2F2F2" cx="40.5" cy="430.5" r="2.5"></circle>
            <circle id="Oval" stroke="#63C5BE" stroke-width="2" cx="67" cy="261" r="5"></circle>
            <circle id="Oval" stroke="#324F75" stroke-width="2" cx="17" cy="559" r="5"></circle>
            <circle id="Oval" stroke="#63C5BE" stroke-width="2" cx="42" cy="703" r="5"></circle>
            <circle id="Oval" stroke="#66B6AB" cx="35" cy="471" r="5"></circle>
            <circle id="Oval" stroke="#66B6AB" cx="67" cy="166" r="5"></circle>
            <circle id="Oval" stroke="#66B6AB" cx="17" cy="5" r="5"></circle>
            <circle id="Oval" stroke="#324F75" cx="70.75" cy="354.75" r="3.75"></circle>
            <circle id="Oval" stroke="#66B6AB" stroke-width="2" cx="52.75" cy="579.75" r="3.75"></circle>
            <circle id="Oval" stroke="#F2F2F2" cx="22.75" cy="670.75" r="3.75"></circle>
            <circle id="Oval" stroke="#F2F2F2" cx="18.75" cy="186.75" r="3.75"></circle>
            <circle id="Oval" stroke="#63C5BE" cx="33.75" cy="97.75" r="3.75"></circle>
            <circle id="Oval" stroke="#324F75" stroke-width="2" cx="57.75" cy="30.75" r="3.75"></circle>
            <circle id="Oval" stroke="#63C5BE" cx="10" cy="393" r="5"></circle>
        </g>
        <g id="Group-4" transform="translate(1378.500000, 381.000000) scale(-1, -1) translate(-1378.500000, -381.000000) translate(1341.000000, 27.000000)">
            <circle id="Oval" stroke="#F2F2F2" cx="35.5" cy="305.5" r="2.5"></circle>
            <circle id="Oval" stroke="#63C5BE" cx="30.5" cy="253.5" r="2.5"></circle>
            <circle id="Oval" stroke="#324F75" cx="42.5" cy="145.5" r="2.5"></circle>
            <circle id="Oval" stroke="#F2F2F2" cx="2.5" cy="49.5" r="2.5"></circle>
            <circle id="Oval" stroke="#63C5BE" cx="59.5" cy="517.5" r="2.5"></circle>
            <circle id="Oval" stroke="#63C5BE" cx="27.5" cy="599.5" r="2.5"></circle>
            <circle id="Oval" stroke="#66B6AB" stroke-width="2" cx="48.5" cy="648.5" r="2.5"></circle>
            <circle id="Oval" stroke="#F2F2F2" cx="40.5" cy="430.5" r="2.5"></circle>
            <circle id="Oval" stroke="#63C5BE" stroke-width="2" cx="67" cy="261" r="5"></circle>
            <circle id="Oval" stroke="#324F75" stroke-width="2" cx="17" cy="559" r="5"></circle>
            <circle id="Oval" stroke="#63C5BE" stroke-width="2" cx="42" cy="703" r="5"></circle>
            <circle id="Oval" stroke="#66B6AB" cx="35" cy="471" r="5"></circle>
            <circle id="Oval" stroke="#66B6AB" cx="67" cy="166" r="5"></circle>
            <circle id="Oval" stroke="#66B6AB" cx="17" cy="5" r="5"></circle>
            <circle id="Oval" stroke="#324F75" cx="70.75" cy="354.75" r="3.75"></circle>
            <circle id="Oval" stroke="#66B6AB" stroke-width="2" cx="52.75" cy="579.75" r="3.75"></circle>
            <circle id="Oval" stroke="#F2F2F2" cx="22.75" cy="670.75" r="3.75"></circle>
            <circle id="Oval" stroke="#F2F2F2" cx="18.75" cy="186.75" r="3.75"></circle>
            <circle id="Oval" stroke="#63C5BE" cx="33.75" cy="97.75" r="3.75"></circle>
            <circle id="Oval" stroke="#324F75" stroke-width="2" cx="57.75" cy="30.75" r="3.75"></circle>
            <circle id="Oval" stroke="#63C5BE" cx="10" cy="393" r="5"></circle>
        </g>
    </g>
</svg>