<?xml version="1.0" encoding="UTF-8"?>
<svg width="1440px" height="1475px" viewBox="0 0 1440 1475" version="1.1" xmlns="http://www.w3.org/2000/svg" xmlns:xlink="http://www.w3.org/1999/xlink">
    <!-- Generator: Sketch 48.2 (47327) - http://www.bohemiancoding.com/sketch -->
    <title>Background Block</title>
    <desc>Created with Sketch.</desc>
    <defs></defs>
    <g id="Page-1" stroke="none" stroke-width="1" fill="none" fill-rule="evenodd">
        <g id="Background-Block" stroke="#007991">
            <g id="Group-3" transform="translate(35.000000, 44.000000)">
                <g id="Group-2" transform="translate(23.000000, 0.000000)">
                    <circle id="Oval-2" cx="2.5" cy="2.5" r="2.5"></circle>
                    <circle id="Oval-2" cx="2.5" cy="47.5" r="2.5"></circle>
                </g>
                <g id="Group" transform="translate(0.000000, 23.000000)">
                    <circle id="Oval-2" cx="2.5" cy="2.5" r="2.5"></circle>
                    <circle id="Oval-2" cx="47.5" cy="2.5" r="2.5"></circle>
                </g>
            </g>
            <g id="Group-3" transform="translate(139.000000, 400.000000)">
                <g id="Group-2" transform="translate(23.000000, 0.000000)">
                    <circle id="Oval-2" cx="2.5" cy="2.5" r="2.5"></circle>
                    <circle id="Oval-2" cx="2.5" cy="47.5" r="2.5"></circle>
                </g>
                <g id="Group" transform="translate(0.000000, 23.000000)">
                    <circle id="Oval-2" cx="2.5" cy="2.5" r="2.5"></circle>
                    <circle id="Oval-2" cx="47.5" cy="2.5" r="2.5"></circle>
                </g>
            </g>
            <g id="Group-3" transform="translate(294.000000, 258.000000)">
                <g id="Group-2" transform="translate(23.000000, 0.000000)">
                    <circle id="Oval-2" cx="2.5" cy="2.5" r="2.5"></circle>
                    <circle id="Oval-2" cx="2.5" cy="47.5" r="2.5"></circle>
                </g>
                <g id="Group" transform="translate(0.000000, 23.000000)">
                    <circle id="Oval-2" cx="2.5" cy="2.5" r="2.5"></circle>
                    <circle id="Oval-2" cx="47.5" cy="2.5" r="2.5"></circle>
                </g>
            </g>
            <g id="Group-3" transform="translate(-15.000000, 299.000000)">
                <g id="Group-2" transform="translate(23.000000, 0.000000)">
                    <circle id="Oval-2" cx="2.5" cy="2.5" r="2.5"></circle>
                    <circle id="Oval-2" cx="2.5" cy="47.5" r="2.5"></circle>
                </g>
                <g id="Group" transform="translate(0.000000, 23.000000)">
                    <circle id="Oval-2" cx="47.5" cy="2.5" r="2.5"></circle>
                </g>
            </g>
            <g id="Group-3" transform="translate(110.000000, 688.000000)">
                <g id="Group-2" transform="translate(23.000000, 0.000000)">
                    <circle id="Oval-2" cx="2.5" cy="2.5" r="2.5"></circle>
                    <circle id="Oval-2" cx="2.5" cy="47.5" r="2.5"></circle>
                </g>
                <g id="Group" transform="translate(0.000000, 23.000000)">
                    <circle id="Oval-2" cx="2.5" cy="2.5" r="2.5"></circle>
                    <circle id="Oval-2" cx="47.5" cy="2.5" r="2.5"></circle>
                </g>
            </g>
            <g id="Group-3" transform="translate(10.000000, 829.000000)">
                <g id="Group-2" transform="translate(23.000000, 0.000000)">
                    <circle id="Oval-2" cx="2.5" cy="2.5" r="2.5"></circle>
                    <circle id="Oval-2" cx="2.5" cy="47.5" r="2.5"></circle>
                </g>
                <g id="Group" transform="translate(0.000000, 23.000000)">
                    <circle id="Oval-2" cx="2.5" cy="2.5" r="2.5"></circle>
                    <circle id="Oval-2" cx="47.5" cy="2.5" r="2.5"></circle>
                </g>
            </g>
            <g id="Group-3" transform="translate(39.000000, 1029.000000)">
                <g id="Group-2" transform="translate(23.000000, 0.000000)">
                    <circle id="Oval-2" cx="2.5" cy="2.5" r="2.5"></circle>
                    <circle id="Oval-2" cx="2.5" cy="47.5" r="2.5"></circle>
                </g>
                <g id="Group" transform="translate(0.000000, 23.000000)">
                    <circle id="Oval-2" cx="2.5" cy="2.5" r="2.5"></circle>
                    <circle id="Oval-2" cx="47.5" cy="2.5" r="2.5"></circle>
                </g>
            </g>
            <g id="Group-3" transform="translate(114.000000, 1217.000000)">
                <g id="Group-2" transform="translate(23.000000, 0.000000)">
                    <circle id="Oval-2" cx="2.5" cy="2.5" r="2.5"></circle>
                    <circle id="Oval-2" cx="2.5" cy="47.5" r="2.5"></circle>
                </g>
                <g id="Group" transform="translate(0.000000, 23.000000)">
                    <circle id="Oval-2" cx="2.5" cy="2.5" r="2.5"></circle>
                    <circle id="Oval-2" cx="47.5" cy="2.5" r="2.5"></circle>
                </g>
            </g>
            <g id="Group-3" transform="translate(35.000000, 1267.000000)">
                <g id="Group-2" transform="translate(23.000000, 0.000000)">
                    <circle id="Oval-2" cx="2.5" cy="2.5" r="2.5"></circle>
                    <circle id="Oval-2" cx="2.5" cy="47.5" r="2.5"></circle>
                </g>
                <g id="Group" transform="translate(0.000000, 23.000000)">
                    <circle id="Oval-2" cx="2.5" cy="2.5" r="2.5"></circle>
                    <circle id="Oval-2" cx="47.5" cy="2.5" r="2.5"></circle>
                </g>
            </g>
            <g id="Group-3" transform="translate(85.000000, 1425.000000)">
                <g id="Group-2" transform="translate(23.000000, 0.000000)">
                    <circle id="Oval-2" cx="2.5" cy="2.5" r="2.5"></circle>
                    <circle id="Oval-2" cx="2.5" cy="47.5" r="2.5"></circle>
                </g>
                <g id="Group" transform="translate(0.000000, 23.000000)">
                    <circle id="Oval-2" cx="2.5" cy="2.5" r="2.5"></circle>
                    <circle id="Oval-2" cx="47.5" cy="2.5" r="2.5"></circle>
                </g>
            </g>
            <g id="Group-3" transform="translate(369.000000, 1450.000000) scale(-1, -1) translate(-369.000000, -1450.000000) translate(344.000000, 1425.000000)">
                <g id="Group-2" transform="translate(23.000000, 0.000000)">
                    <circle id="Oval-2" cx="2.5" cy="2.5" r="2.5"></circle>
                    <circle id="Oval-2" cx="2.5" cy="47.5" r="2.5"></circle>
                </g>
                <g id="Group" transform="translate(0.000000, 23.000000)">
                    <circle id="Oval-2" cx="2.5" cy="2.5" r="2.5"></circle>
                    <circle id="Oval-2" cx="47.5" cy="2.5" r="2.5"></circle>
                </g>
            </g>
            <g id="Group-3" transform="translate(315.000000, 1280.000000) scale(-1, -1) translate(-315.000000, -1280.000000) translate(290.000000, 1255.000000)">
                <g id="Group-2" transform="translate(23.000000, 0.000000)">
                    <circle id="Oval-2" cx="2.5" cy="2.5" r="2.5"></circle>
                    <circle id="Oval-2" cx="2.5" cy="47.5" r="2.5"></circle>
                </g>
                <g id="Group" transform="translate(0.000000, 23.000000)">
                    <circle id="Oval-2" cx="2.5" cy="2.5" r="2.5"></circle>
                    <circle id="Oval-2" cx="47.5" cy="2.5" r="2.5"></circle>
                </g>
            </g>
            <g id="Group-3" transform="translate(265.000000, 1094.000000) scale(-1, -1) translate(-265.000000, -1094.000000) translate(240.000000, 1069.000000)">
                <g id="Group-2" transform="translate(23.000000, 0.000000)">
                    <circle id="Oval-2" cx="2.5" cy="2.5" r="2.5"></circle>
                    <circle id="Oval-2" cx="2.5" cy="47.5" r="2.5"></circle>
                </g>
                <g id="Group" transform="translate(0.000000, 23.000000)">
                    <circle id="Oval-2" cx="2.5" cy="2.5" r="2.5"></circle>
                    <circle id="Oval-2" cx="47.5" cy="2.5" r="2.5"></circle>
                </g>
            </g>
            <g id="Group-3" transform="translate(265.000000, 1369.000000) scale(-1, -1) translate(-265.000000, -1369.000000) translate(240.000000, 1344.000000)">
                <g id="Group-2" transform="translate(23.000000, 0.000000)">
                    <circle id="Oval-2" cx="2.5" cy="2.5" r="2.5"></circle>
                    <circle id="Oval-2" cx="2.5" cy="47.5" r="2.5"></circle>
                </g>
                <g id="Group" transform="translate(0.000000, 23.000000)">
                    <circle id="Oval-2" cx="2.5" cy="2.5" r="2.5"></circle>
                    <circle id="Oval-2" cx="47.5" cy="2.5" r="2.5"></circle>
                </g>
            </g>
            <g id="Group-3" transform="translate(419.000000, 1195.000000) scale(-1, -1) translate(-419.000000, -1195.000000) translate(394.000000, 1170.000000)">
                <g id="Group-2" transform="translate(23.000000, 0.000000)">
                    <circle id="Oval-2" cx="2.5" cy="2.5" r="2.5"></circle>
                    <circle id="Oval-2" cx="2.5" cy="47.5" r="2.5"></circle>
                </g>
                <g id="Group" transform="translate(0.000000, 23.000000)">
                    <circle id="Oval-2" cx="2.5" cy="2.5" r="2.5"></circle>
                    <circle id="Oval-2" cx="47.5" cy="2.5" r="2.5"></circle>
                </g>
            </g>
            <g id="Group-3" transform="translate(344.000000, 992.000000) scale(-1, -1) translate(-344.000000, -992.000000) translate(319.000000, 967.000000)">
                <g id="Group-2" transform="translate(23.000000, 0.000000)">
                    <circle id="Oval-2" cx="2.5" cy="2.5" r="2.5"></circle>
                    <circle id="Oval-2" cx="2.5" cy="47.5" r="2.5"></circle>
                </g>
                <g id="Group" transform="translate(0.000000, 23.000000)">
                    <circle id="Oval-2" cx="2.5" cy="2.5" r="2.5"></circle>
                    <circle id="Oval-2" cx="47.5" cy="2.5" r="2.5"></circle>
                </g>
            </g>
            <g id="Group-3" transform="translate(294.000000, 806.000000) scale(-1, -1) translate(-294.000000, -806.000000) translate(269.000000, 781.000000)">
                <g id="Group-2" transform="translate(23.000000, 0.000000)">
                    <circle id="Oval-2" cx="2.5" cy="2.5" r="2.5"></circle>
                    <circle id="Oval-2" cx="2.5" cy="47.5" r="2.5"></circle>
                </g>
                <g id="Group" transform="translate(0.000000, 23.000000)">
                    <circle id="Oval-2" cx="2.5" cy="2.5" r="2.5"></circle>
                    <circle id="Oval-2" cx="47.5" cy="2.5" r="2.5"></circle>
                </g>
            </g>
            <g id="Group-3" transform="translate(394.000000, 665.000000) scale(-1, -1) translate(-394.000000, -665.000000) translate(369.000000, 640.000000)">
                <g id="Group-2" transform="translate(23.000000, 0.000000)">
                    <circle id="Oval-2" cx="2.5" cy="2.5" r="2.5"></circle>
                    <circle id="Oval-2" cx="2.5" cy="47.5" r="2.5"></circle>
                </g>
                <g id="Group" transform="translate(0.000000, 23.000000)">
                    <circle id="Oval-2" cx="2.5" cy="2.5" r="2.5"></circle>
                    <circle id="Oval-2" cx="47.5" cy="2.5" r="2.5"></circle>
                </g>
            </g>
            <g id="Group-3" transform="translate(365.000000, 465.000000) scale(-1, -1) translate(-365.000000, -465.000000) translate(340.000000, 440.000000)">
                <g id="Group-2" transform="translate(23.000000, 0.000000)">
                    <circle id="Oval-2" cx="2.5" cy="2.5" r="2.5"></circle>
                    <circle id="Oval-2" cx="2.5" cy="47.5" r="2.5"></circle>
                </g>
                <g id="Group" transform="translate(0.000000, 23.000000)">
                    <circle id="Oval-2" cx="2.5" cy="2.5" r="2.5"></circle>
                    <circle id="Oval-2" cx="47.5" cy="2.5" r="2.5"></circle>
                </g>
            </g>
            <g id="Group-3" transform="translate(319.000000, 69.000000) scale(-1, -1) translate(-319.000000, -69.000000) translate(294.000000, 44.000000)">
                <g id="Group-2" transform="translate(23.000000, 0.000000)">
                    <circle id="Oval-2" cx="2.5" cy="2.5" r="2.5"></circle>
                    <circle id="Oval-2" cx="2.5" cy="47.5" r="2.5"></circle>
                </g>
                <g id="Group" transform="translate(0.000000, 23.000000)">
                    <circle id="Oval-2" cx="2.5" cy="2.5" r="2.5"></circle>
                    <circle id="Oval-2" cx="47.5" cy="2.5" r="2.5"></circle>
                </g>
            </g>
            <g id="Group-3" transform="translate(591.000000, 502.000000)">
                <g id="Group-2" transform="translate(23.000000, 0.000000)">
                    <circle id="Oval-2" cx="2.5" cy="2.5" r="2.5"></circle>
                    <circle id="Oval-2" cx="2.5" cy="47.5" r="2.5"></circle>
                </g>
                <g id="Group" transform="translate(0.000000, 23.000000)">
                    <circle id="Oval-2" cx="2.5" cy="2.5" r="2.5"></circle>
                    <circle id="Oval-2" cx="47.5" cy="2.5" r="2.5"></circle>
                </g>
            </g>
            <g id="Group-3" transform="translate(641.000000, 688.000000)">
                <g id="Group-2" transform="translate(23.000000, 0.000000)">
                    <circle id="Oval-2" cx="2.5" cy="2.5" r="2.5"></circle>
                    <circle id="Oval-2" cx="2.5" cy="47.5" r="2.5"></circle>
                </g>
                <g id="Group" transform="translate(0.000000, 23.000000)">
                    <circle id="Oval-2" cx="2.5" cy="2.5" r="2.5"></circle>
                    <circle id="Oval-2" cx="47.5" cy="2.5" r="2.5"></circle>
                </g>
            </g>
            <g id="Group-3" transform="translate(641.000000, 879.000000)">
                <g id="Group-2" transform="translate(23.000000, 0.000000)">
                    <circle id="Oval-2" cx="2.5" cy="2.5" r="2.5"></circle>
                    <circle id="Oval-2" cx="2.5" cy="47.5" r="2.5"></circle>
                </g>
                <g id="Group" transform="translate(0.000000, 23.000000)">
                    <circle id="Oval-2" cx="2.5" cy="2.5" r="2.5"></circle>
                    <circle id="Oval-2" cx="47.5" cy="2.5" r="2.5"></circle>
                </g>
            </g>
            <g id="Group-3" transform="translate(570.000000, 1029.000000)">
                <g id="Group-2" transform="translate(23.000000, 0.000000)">
                    <circle id="Oval-2" cx="2.5" cy="2.5" r="2.5"></circle>
                    <circle id="Oval-2" cx="2.5" cy="47.5" r="2.5"></circle>
                </g>
                <g id="Group" transform="translate(0.000000, 23.000000)">
                    <circle id="Oval-2" cx="2.5" cy="2.5" r="2.5"></circle>
                    <circle id="Oval-2" cx="47.5" cy="2.5" r="2.5"></circle>
                </g>
            </g>
            <g id="Group-3" transform="translate(645.000000, 1217.000000)">
                <g id="Group-2" transform="translate(23.000000, 0.000000)">
                    <circle id="Oval-2" cx="2.5" cy="2.5" r="2.5"></circle>
                    <circle id="Oval-2" cx="2.5" cy="47.5" r="2.5"></circle>
                </g>
                <g id="Group" transform="translate(0.000000, 23.000000)">
                    <circle id="Oval-2" cx="2.5" cy="2.5" r="2.5"></circle>
                    <circle id="Oval-2" cx="47.5" cy="2.5" r="2.5"></circle>
                </g>
            </g>
            <g id="Group-3" transform="translate(566.000000, 1267.000000)">
                <g id="Group-2" transform="translate(23.000000, 0.000000)">
                    <circle id="Oval-2" cx="2.5" cy="2.5" r="2.5"></circle>
                    <circle id="Oval-2" cx="2.5" cy="47.5" r="2.5"></circle>
                </g>
                <g id="Group" transform="translate(0.000000, 23.000000)">
                    <circle id="Oval-2" cx="2.5" cy="2.5" r="2.5"></circle>
                    <circle id="Oval-2" cx="47.5" cy="2.5" r="2.5"></circle>
                </g>
            </g>
            <g id="Group-3" transform="translate(616.000000, 1425.000000)">
                <g id="Group-2" transform="translate(23.000000, 0.000000)">
                    <circle id="Oval-2" cx="2.5" cy="2.5" r="2.5"></circle>
                    <circle id="Oval-2" cx="2.5" cy="47.5" r="2.5"></circle>
                </g>
                <g id="Group" transform="translate(0.000000, 23.000000)">
                    <circle id="Oval-2" cx="2.5" cy="2.5" r="2.5"></circle>
                    <circle id="Oval-2" cx="47.5" cy="2.5" r="2.5"></circle>
                </g>
            </g>
            <g id="Group-3" transform="translate(1057.000000, 258.000000)">
                <g id="Group-2" transform="translate(23.000000, 0.000000)">
                    <circle id="Oval-2" cx="2.5" cy="2.5" r="2.5"></circle>
                    <circle id="Oval-2" cx="2.5" cy="47.5" r="2.5"></circle>
                </g>
                <g id="Group" transform="translate(0.000000, 23.000000)">
                    <circle id="Oval-2" cx="2.5" cy="2.5" r="2.5"></circle>
                    <circle id="Oval-2" cx="47.5" cy="2.5" r="2.5"></circle>
                </g>
            </g>
            <g id="Group-3" transform="translate(867.000000, 502.000000)">
                <g id="Group-2" transform="translate(23.000000, 0.000000)">
                    <circle id="Oval-2" cx="2.5" cy="2.5" r="2.5"></circle>
                    <circle id="Oval-2" cx="2.5" cy="47.5" r="2.5"></circle>
                </g>
                <g id="Group" transform="translate(0.000000, 23.000000)">
                    <circle id="Oval-2" cx="2.5" cy="2.5" r="2.5"></circle>
                    <circle id="Oval-2" cx="47.5" cy="2.5" r="2.5"></circle>
                </g>
            </g>
            <g id="Group-3" transform="translate(917.000000, 688.000000)">
                <g id="Group-2" transform="translate(23.000000, 0.000000)">
                    <circle id="Oval-2" cx="2.5" cy="2.5" r="2.5"></circle>
                    <circle id="Oval-2" cx="2.5" cy="47.5" r="2.5"></circle>
                </g>
                <g id="Group" transform="translate(0.000000, 23.000000)">
                    <circle id="Oval-2" cx="2.5" cy="2.5" r="2.5"></circle>
                    <circle id="Oval-2" cx="47.5" cy="2.5" r="2.5"></circle>
                </g>
            </g>
            <g id="Group-3" transform="translate(917.000000, 879.000000)">
                <g id="Group-2" transform="translate(23.000000, 0.000000)">
                    <circle id="Oval-2" cx="2.5" cy="2.5" r="2.5"></circle>
                    <circle id="Oval-2" cx="2.5" cy="47.5" r="2.5"></circle>
                </g>
                <g id="Group" transform="translate(0.000000, 23.000000)">
                    <circle id="Oval-2" cx="2.5" cy="2.5" r="2.5"></circle>
                    <circle id="Oval-2" cx="47.5" cy="2.5" r="2.5"></circle>
                </g>
            </g>
            <g id="Group-3" transform="translate(846.000000, 1029.000000)">
                <g id="Group-2" transform="translate(23.000000, 0.000000)">
                    <circle id="Oval-2" cx="2.5" cy="2.5" r="2.5"></circle>
                    <circle id="Oval-2" cx="2.5" cy="47.5" r="2.5"></circle>
                </g>
                <g id="Group" transform="translate(0.000000, 23.000000)">
                    <circle id="Oval-2" cx="2.5" cy="2.5" r="2.5"></circle>
                    <circle id="Oval-2" cx="47.5" cy="2.5" r="2.5"></circle>
                </g>
            </g>
            <g id="Group-3" transform="translate(921.000000, 1217.000000)">
                <g id="Group-2" transform="translate(23.000000, 0.000000)">
                    <circle id="Oval-2" cx="2.5" cy="2.5" r="2.5"></circle>
                    <circle id="Oval-2" cx="2.5" cy="47.5" r="2.5"></circle>
                </g>
                <g id="Group" transform="translate(0.000000, 23.000000)">
                    <circle id="Oval-2" cx="2.5" cy="2.5" r="2.5"></circle>
                    <circle id="Oval-2" cx="47.5" cy="2.5" r="2.5"></circle>
                </g>
            </g>
            <g id="Group-3" transform="translate(842.000000, 1267.000000)">
                <g id="Group-2" transform="translate(23.000000, 0.000000)">
                    <circle id="Oval-2" cx="2.5" cy="2.5" r="2.5"></circle>
                    <circle id="Oval-2" cx="2.5" cy="47.5" r="2.5"></circle>
                </g>
                <g id="Group" transform="translate(0.000000, 23.000000)">
                    <circle id="Oval-2" cx="2.5" cy="2.5" r="2.5"></circle>
                    <circle id="Oval-2" cx="47.5" cy="2.5" r="2.5"></circle>
                </g>
            </g>
            <g id="Group-3" transform="translate(892.000000, 1425.000000)">
                <g id="Group-2" transform="translate(23.000000, 0.000000)">
                    <circle id="Oval-2" cx="2.5" cy="2.5" r="2.5"></circle>
                    <circle id="Oval-2" cx="2.5" cy="47.5" r="2.5"></circle>
                </g>
                <g id="Group" transform="translate(0.000000, 23.000000)">
                    <circle id="Oval-2" cx="2.5" cy="2.5" r="2.5"></circle>
                    <circle id="Oval-2" cx="47.5" cy="2.5" r="2.5"></circle>
                </g>
            </g>
            <g id="Group-3" transform="translate(1082.000000, 44.000000)">
                <g id="Group-2" transform="translate(23.000000, 0.000000)">
                    <circle id="Oval-2" cx="2.5" cy="2.5" r="2.5"></circle>
                    <circle id="Oval-2" cx="2.5" cy="47.5" r="2.5"></circle>
                </g>
                <g id="Group" transform="translate(0.000000, 23.000000)">
                    <circle id="Oval-2" cx="2.5" cy="2.5" r="2.5"></circle>
                    <circle id="Oval-2" cx="47.5" cy="2.5" r="2.5"></circle>
                </g>
            </g>
            <g id="Group-3" transform="translate(1107.000000, 502.000000)">
                <g id="Group-2" transform="translate(23.000000, 0.000000)">
                    <circle id="Oval-2" cx="2.5" cy="2.5" r="2.5"></circle>
                    <circle id="Oval-2" cx="2.5" cy="47.5" r="2.5"></circle>
                </g>
                <g id="Group" transform="translate(0.000000, 23.000000)">
                    <circle id="Oval-2" cx="2.5" cy="2.5" r="2.5"></circle>
                    <circle id="Oval-2" cx="47.5" cy="2.5" r="2.5"></circle>
                </g>
            </g>
            <g id="Group-3" transform="translate(1157.000000, 688.000000)">
                <g id="Group-2" transform="translate(23.000000, 0.000000)">
                    <circle id="Oval-2" cx="2.5" cy="2.5" r="2.5"></circle>
                    <circle id="Oval-2" cx="2.5" cy="47.5" r="2.5"></circle>
                </g>
                <g id="Group" transform="translate(0.000000, 23.000000)">
                    <circle id="Oval-2" cx="2.5" cy="2.5" r="2.5"></circle>
                    <circle id="Oval-2" cx="47.5" cy="2.5" r="2.5"></circle>
                </g>
            </g>
            <g id="Group-3" transform="translate(1157.000000, 879.000000)">
                <g id="Group-2" transform="translate(23.000000, 0.000000)">
                    <circle id="Oval-2" cx="2.5" cy="2.5" r="2.5"></circle>
                    <circle id="Oval-2" cx="2.5" cy="47.5" r="2.5"></circle>
                </g>
                <g id="Group" transform="translate(0.000000, 23.000000)">
                    <circle id="Oval-2" cx="2.5" cy="2.5" r="2.5"></circle>
                    <circle id="Oval-2" cx="47.5" cy="2.5" r="2.5"></circle>
                </g>
            </g>
            <g id="Group-3" transform="translate(1086.000000, 1029.000000)">
                <g id="Group-2" transform="translate(23.000000, 0.000000)">
                    <circle id="Oval-2" cx="2.5" cy="2.5" r="2.5"></circle>
                    <circle id="Oval-2" cx="2.5" cy="47.5" r="2.5"></circle>
                </g>
                <g id="Group" transform="translate(0.000000, 23.000000)">
                    <circle id="Oval-2" cx="2.5" cy="2.5" r="2.5"></circle>
                    <circle id="Oval-2" cx="47.5" cy="2.5" r="2.5"></circle>
                </g>
            </g>
            <g id="Group-3" transform="translate(1161.000000, 1217.000000)">
                <g id="Group-2" transform="translate(23.000000, 0.000000)">
                    <circle id="Oval-2" cx="2.5" cy="2.5" r="2.5"></circle>
                    <circle id="Oval-2" cx="2.5" cy="47.5" r="2.5"></circle>
                </g>
                <g id="Group" transform="translate(0.000000, 23.000000)">
                    <circle id="Oval-2" cx="2.5" cy="2.5" r="2.5"></circle>
                    <circle id="Oval-2" cx="47.5" cy="2.5" r="2.5"></circle>
                </g>
            </g>
            <g id="Group-3" transform="translate(1082.000000, 1267.000000)">
                <g id="Group-2" transform="translate(23.000000, 0.000000)">
                    <circle id="Oval-2" cx="2.5" cy="2.5" r="2.5"></circle>
                    <circle id="Oval-2" cx="2.5" cy="47.5" r="2.5"></circle>
                </g>
                <g id="Group" transform="translate(0.000000, 23.000000)">
                    <circle id="Oval-2" cx="2.5" cy="2.5" r="2.5"></circle>
                    <circle id="Oval-2" cx="47.5" cy="2.5" r="2.5"></circle>
                </g>
            </g>
            <g id="Group-3" transform="translate(1132.000000, 1425.000000)">
                <g id="Group-2" transform="translate(23.000000, 0.000000)">
                    <circle id="Oval-2" cx="2.5" cy="2.5" r="2.5"></circle>
                    <circle id="Oval-2" cx="2.5" cy="47.5" r="2.5"></circle>
                </g>
                <g id="Group" transform="translate(0.000000, 23.000000)">
                    <circle id="Oval-2" cx="2.5" cy="2.5" r="2.5"></circle>
                    <circle id="Oval-2" cx="47.5" cy="2.5" r="2.5"></circle>
                </g>
            </g>
            <g id="Group-3" transform="translate(1365.000000, 1406.000000) scale(-1, -1) translate(-1365.000000, -1406.000000) translate(1340.000000, 1381.000000)">
                <g id="Group-2" transform="translate(23.000000, 0.000000)">
                    <circle id="Oval-2" cx="2.5" cy="2.5" r="2.5"></circle>
                    <circle id="Oval-2" cx="2.5" cy="47.5" r="2.5"></circle>
                </g>
                <g id="Group" transform="translate(0.000000, 23.000000)">
                    <circle id="Oval-2" cx="2.5" cy="2.5" r="2.5"></circle>
                    <circle id="Oval-2" cx="47.5" cy="2.5" r="2.5"></circle>
                </g>
            </g>
            <g id="Group-3" transform="translate(1311.000000, 1236.000000) scale(-1, -1) translate(-1311.000000, -1236.000000) translate(1286.000000, 1211.000000)">
                <g id="Group-2" transform="translate(23.000000, 0.000000)">
                    <circle id="Oval-2" cx="2.5" cy="2.5" r="2.5"></circle>
                    <circle id="Oval-2" cx="2.5" cy="47.5" r="2.5"></circle>
                </g>
                <g id="Group" transform="translate(0.000000, 23.000000)">
                    <circle id="Oval-2" cx="2.5" cy="2.5" r="2.5"></circle>
                    <circle id="Oval-2" cx="47.5" cy="2.5" r="2.5"></circle>
                </g>
            </g>
            <g id="Group-3" transform="translate(1261.000000, 1050.000000) scale(-1, -1) translate(-1261.000000, -1050.000000) translate(1236.000000, 1025.000000)">
                <g id="Group-2" transform="translate(23.000000, 0.000000)">
                    <circle id="Oval-2" cx="2.5" cy="2.5" r="2.5"></circle>
                    <circle id="Oval-2" cx="2.5" cy="47.5" r="2.5"></circle>
                </g>
                <g id="Group" transform="translate(0.000000, 23.000000)">
                    <circle id="Oval-2" cx="2.5" cy="2.5" r="2.5"></circle>
                    <circle id="Oval-2" cx="47.5" cy="2.5" r="2.5"></circle>
                </g>
            </g>
            <g id="Group-3" transform="translate(1261.000000, 1325.000000) scale(-1, -1) translate(-1261.000000, -1325.000000) translate(1236.000000, 1300.000000)">
                <g id="Group-2" transform="translate(23.000000, 0.000000)">
                    <circle id="Oval-2" cx="2.5" cy="2.5" r="2.5"></circle>
                    <circle id="Oval-2" cx="2.5" cy="47.5" r="2.5"></circle>
                </g>
                <g id="Group" transform="translate(0.000000, 23.000000)">
                    <circle id="Oval-2" cx="2.5" cy="2.5" r="2.5"></circle>
                    <circle id="Oval-2" cx="47.5" cy="2.5" r="2.5"></circle>
                </g>
            </g>
            <g id="Group-3" transform="translate(1415.000000, 1151.000000) scale(-1, -1) translate(-1415.000000, -1151.000000) translate(1390.000000, 1126.000000)">
                <g id="Group-2" transform="translate(23.000000, 0.000000)">
                    <circle id="Oval-2" cx="2.5" cy="2.5" r="2.5"></circle>
                    <circle id="Oval-2" cx="2.5" cy="47.5" r="2.5"></circle>
                </g>
                <g id="Group" transform="translate(0.000000, 23.000000)">
                    <circle id="Oval-2" cx="2.5" cy="2.5" r="2.5"></circle>
                    <circle id="Oval-2" cx="47.5" cy="2.5" r="2.5"></circle>
                </g>
            </g>
            <g id="Group-3" transform="translate(1340.000000, 948.000000) scale(-1, -1) translate(-1340.000000, -948.000000) translate(1315.000000, 923.000000)">
                <g id="Group-2" transform="translate(23.000000, 0.000000)">
                    <circle id="Oval-2" cx="2.5" cy="2.5" r="2.5"></circle>
                    <circle id="Oval-2" cx="2.5" cy="47.5" r="2.5"></circle>
                </g>
                <g id="Group" transform="translate(0.000000, 23.000000)">
                    <circle id="Oval-2" cx="2.5" cy="2.5" r="2.5"></circle>
                    <circle id="Oval-2" cx="47.5" cy="2.5" r="2.5"></circle>
                </g>
            </g>
            <g id="Group-3" transform="translate(1415.000000, 787.000000) scale(-1, -1) translate(-1415.000000, -787.000000) translate(1390.000000, 762.000000)">
                <g id="Group-2" transform="translate(23.000000, 0.000000)">
                    <circle id="Oval-2" cx="2.5" cy="2.5" r="2.5"></circle>
                    <circle id="Oval-2" cx="2.5" cy="47.5" r="2.5"></circle>
                </g>
                <g id="Group" transform="translate(0.000000, 23.000000)">
                    <circle id="Oval-2" cx="2.5" cy="2.5" r="2.5"></circle>
                    <circle id="Oval-2" cx="47.5" cy="2.5" r="2.5"></circle>
                </g>
            </g>
            <g id="Group-3" transform="translate(1390.000000, 621.000000) scale(-1, -1) translate(-1390.000000, -621.000000) translate(1365.000000, 596.000000)">
                <g id="Group-2" transform="translate(23.000000, 0.000000)">
                    <circle id="Oval-2" cx="2.5" cy="2.5" r="2.5"></circle>
                    <circle id="Oval-2" cx="2.5" cy="47.5" r="2.5"></circle>
                </g>
                <g id="Group" transform="translate(0.000000, 23.000000)">
                    <circle id="Oval-2" cx="2.5" cy="2.5" r="2.5"></circle>
                    <circle id="Oval-2" cx="47.5" cy="2.5" r="2.5"></circle>
                </g>
            </g>
            <g id="Group-3" transform="translate(1361.000000, 421.000000) scale(-1, -1) translate(-1361.000000, -421.000000) translate(1336.000000, 396.000000)">
                <g id="Group-2" transform="translate(23.000000, 0.000000)">
                    <circle id="Oval-2" cx="2.5" cy="2.5" r="2.5"></circle>
                    <circle id="Oval-2" cx="2.5" cy="47.5" r="2.5"></circle>
                </g>
                <g id="Group" transform="translate(0.000000, 23.000000)">
                    <circle id="Oval-2" cx="2.5" cy="2.5" r="2.5"></circle>
                    <circle id="Oval-2" cx="47.5" cy="2.5" r="2.5"></circle>
                </g>
            </g>
            <g id="Group-3" transform="translate(1286.000000, 258.000000) scale(-1, -1) translate(-1286.000000, -258.000000) translate(1261.000000, 233.000000)">
                <g id="Group-2" transform="translate(23.000000, 0.000000)">
                    <circle id="Oval-2" cx="2.5" cy="2.5" r="2.5"></circle>
                    <circle id="Oval-2" cx="2.5" cy="47.5" r="2.5"></circle>
                </g>
                <g id="Group" transform="translate(0.000000, 23.000000)">
                    <circle id="Oval-2" cx="2.5" cy="2.5" r="2.5"></circle>
                    <circle id="Oval-2" cx="47.5" cy="2.5" r="2.5"></circle>
                </g>
            </g>
            <g id="Group-3" transform="translate(1315.000000, 25.000000) scale(-1, -1) translate(-1315.000000, -25.000000) translate(1290.000000, 0.000000)">
                <g id="Group-2" transform="translate(23.000000, 0.000000)">
                    <circle id="Oval-2" cx="2.5" cy="2.5" r="2.5"></circle>
                    <circle id="Oval-2" cx="2.5" cy="47.5" r="2.5"></circle>
                </g>
                <g id="Group" transform="translate(0.000000, 23.000000)">
                    <circle id="Oval-2" cx="2.5" cy="2.5" r="2.5"></circle>
                    <circle id="Oval-2" cx="47.5" cy="2.5" r="2.5"></circle>
                </g>
            </g>
        </g>
    </g>
</svg>