<?xml version="1.0" encoding="UTF-8"?>
<svg width="1440px" height="395px" viewBox="0 0 1440 395" version="1.1" xmlns="http://www.w3.org/2000/svg" xmlns:xlink="http://www.w3.org/1999/xlink">
    <!-- Generator: Sketch 48.2 (47327) - http://www.bohemiancoding.com/sketch -->
    <title>Background</title>
    <desc>Created with Sketch.</desc>
    <defs></defs>
    <g id="Homepage" stroke="none" stroke-width="1" fill="none" fill-rule="evenodd">
        <g id="Confetti" transform="translate(90.500000, 197.000000) scale(-1, 1) translate(-90.500000, -197.000000) " stroke-width="2">
            <g id="Star" transform="translate(56.000000, 53.000000)" stroke="#007991" stroke-linecap="round">
                <path d="M8.29014085,4.14507042 L0,4.14507042" id="Line-2"></path>
                <path d="M4.14507042,8.29014085 L4.14507042,0" id="Line-2"></path>
            </g>
            <g id="Corner" transform="translate(174.000000, 74.000000) rotate(-14.000000) translate(-174.000000, -74.000000) translate(169.000000, 69.000000)" stroke="#5B7C8D" stroke-linecap="round">
                <path d="M8.37387964,1.39564661 L0,1.39564661" id="Line-2"></path>
                <path d="M8.37387964,9.76952625 L8.37387964,1.39564661" id="Line-2"></path>
            </g>
            <g id="Corner" transform="translate(27.000000, 7.000000) rotate(255.000000) translate(-27.000000, -7.000000) translate(22.000000, 2.000000)" stroke="#324F75" stroke-linecap="round">
                <path d="M8.37387964,1.39564661 L0,1.39564661" id="Line-2"></path>
                <path d="M8.37387964,9.76952625 L8.37387964,1.39564661" id="Line-2"></path>
            </g>
            <g id="Corner" transform="translate(121.000000, 387.000000) rotate(252.000000) translate(-121.000000, -387.000000) translate(116.000000, 382.000000)" stroke="#5B7C8D" stroke-linecap="round">
                <path d="M8.37387964,1.39564661 L0,1.39564661" id="Line-2"></path>
                <path d="M8.37387964,9.76952625 L8.37387964,1.39564661" id="Line-2"></path>
            </g>
            <g id="Corner" transform="translate(8.000000, 274.000000) rotate(134.000000) translate(-8.000000, -274.000000) translate(3.000000, 269.000000)" stroke="#324F75" stroke-linecap="round">
                <path d="M8.37387964,1.39564661 L0,1.39564661" id="Line-2"></path>
                <path d="M8.37387964,9.76952625 L8.37387964,1.39564661" id="Line-2"></path>
            </g>
            <g id="Corner" transform="translate(174.000000, 218.000000) rotate(281.000000) translate(-174.000000, -218.000000) translate(169.000000, 213.000000)" stroke="#324F75" stroke-linecap="round">
                <path d="M8.37387964,1.39564661 L0,1.39564661" id="Line-2"></path>
                <path d="M8.37387964,9.76952625 L8.37387964,1.39564661" id="Line-2"></path>
            </g>
            <g id="Star" transform="translate(89.000000, 205.000000)" stroke="#007991" stroke-linecap="round">
                <path d="M8.29014085,4.14507042 L0,4.14507042" id="Line-2"></path>
                <path d="M4.14507042,8.29014085 L4.14507042,0" id="Line-2"></path>
            </g>
            <g id="Star" transform="translate(48.000000, 352.000000)" stroke="#007991" stroke-linecap="round">
                <path d="M8.29014085,4.14507042 L0,4.14507042" id="Line-2"></path>
                <path d="M4.14507042,8.29014085 L4.14507042,0" id="Line-2"></path>
            </g>
            <g id="Star" transform="translate(161.000000, 279.000000)" stroke="#007991" stroke-linecap="round">
                <path d="M8.29014085,4.14507042 L0,4.14507042" id="Line-2"></path>
                <path d="M4.14507042,8.29014085 L4.14507042,0" id="Line-2"></path>
            </g>
            <circle id="Oval-2" stroke="#324F75" cx="130.5" cy="150.5" r="4.5"></circle>
            <circle id="Oval-2" stroke="#007991" cx="18.5" cy="141.5" r="4.5"></circle>
            <circle id="Oval-2" stroke="#324F75" cx="100.5" cy="314.5" r="4.5"></circle>
            <circle id="Oval-2" stroke="#324F75" cx="126.5" cy="13.5" r="4.5"></circle>
        </g>
        <g id="Confetti" transform="translate(303.500000, 198.000000) scale(1, -1) translate(-303.500000, -198.000000) translate(213.000000, 1.000000)" stroke-width="2">
            <g id="Star" transform="translate(56.000000, 53.000000)" stroke="#007991" stroke-linecap="round">
                <path d="M8.29014085,4.14507042 L0,4.14507042" id="Line-2"></path>
                <path d="M4.14507042,8.29014085 L4.14507042,0" id="Line-2"></path>
            </g>
            <g id="Corner" transform="translate(174.000000, 74.000000) rotate(-14.000000) translate(-174.000000, -74.000000) translate(169.000000, 69.000000)" stroke="#5B7C8D" stroke-linecap="round">
                <path d="M8.37387964,1.39564661 L0,1.39564661" id="Line-2"></path>
                <path d="M8.37387964,9.76952625 L8.37387964,1.39564661" id="Line-2"></path>
            </g>
            <g id="Corner" transform="translate(27.000000, 7.000000) rotate(255.000000) translate(-27.000000, -7.000000) translate(22.000000, 2.000000)" stroke="#324F75" stroke-linecap="round">
                <path d="M8.37387964,1.39564661 L0,1.39564661" id="Line-2"></path>
                <path d="M8.37387964,9.76952625 L8.37387964,1.39564661" id="Line-2"></path>
            </g>
            <g id="Corner" transform="translate(121.000000, 387.000000) rotate(252.000000) translate(-121.000000, -387.000000) translate(116.000000, 382.000000)" stroke="#5B7C8D" stroke-linecap="round">
                <path d="M8.37387964,1.39564661 L0,1.39564661" id="Line-2"></path>
                <path d="M8.37387964,9.76952625 L8.37387964,1.39564661" id="Line-2"></path>
            </g>
            <g id="Corner" transform="translate(8.000000, 274.000000) rotate(134.000000) translate(-8.000000, -274.000000) translate(3.000000, 269.000000)" stroke="#324F75" stroke-linecap="round">
                <path d="M8.37387964,1.39564661 L0,1.39564661" id="Line-2"></path>
                <path d="M8.37387964,9.76952625 L8.37387964,1.39564661" id="Line-2"></path>
            </g>
            <g id="Corner" transform="translate(174.000000, 218.000000) rotate(281.000000) translate(-174.000000, -218.000000) translate(169.000000, 213.000000)" stroke="#324F75" stroke-linecap="round">
                <path d="M8.37387964,1.39564661 L0,1.39564661" id="Line-2"></path>
                <path d="M8.37387964,9.76952625 L8.37387964,1.39564661" id="Line-2"></path>
            </g>
            <g id="Star" transform="translate(89.000000, 205.000000)" stroke="#007991" stroke-linecap="round">
                <path d="M8.29014085,4.14507042 L0,4.14507042" id="Line-2"></path>
                <path d="M4.14507042,8.29014085 L4.14507042,0" id="Line-2"></path>
            </g>
            <g id="Star" transform="translate(48.000000, 352.000000)" stroke="#007991" stroke-linecap="round">
                <path d="M8.29014085,4.14507042 L0,4.14507042" id="Line-2"></path>
                <path d="M4.14507042,8.29014085 L4.14507042,0" id="Line-2"></path>
            </g>
            <g id="Star" transform="translate(161.000000, 279.000000)" stroke="#007991" stroke-linecap="round">
                <path d="M8.29014085,4.14507042 L0,4.14507042" id="Line-2"></path>
                <path d="M4.14507042,8.29014085 L4.14507042,0" id="Line-2"></path>
            </g>
            <circle id="Oval-2" stroke="#324F75" cx="130.5" cy="150.5" r="4.5"></circle>
            <circle id="Oval-2" stroke="#007991" cx="18.5" cy="141.5" r="4.5"></circle>
            <circle id="Oval-2" stroke="#324F75" cx="100.5" cy="314.5" r="4.5"></circle>
            <circle id="Oval-2" stroke="#324F75" cx="126.5" cy="13.5" r="4.5"></circle>
        </g>
        <g id="Confetti" transform="translate(563.000000, 430.500000) scale(1, -1) rotate(90.000000) translate(-563.000000, -430.500000) translate(472.500000, 233.500000)">
            <g id="Corner" transform="translate(174.000000, 74.000000) rotate(-14.000000) translate(-174.000000, -74.000000) translate(169.000000, 69.000000)" stroke="#5B7C8D" stroke-linecap="round" stroke-width="2">
                <path d="M8.37387964,1.39564661 L0,1.39564661" id="Line-2"></path>
                <path d="M8.37387964,9.76952625 L8.37387964,1.39564661" id="Line-2"></path>
            </g>
            <g id="Corner" transform="translate(121.000000, 387.000000) rotate(252.000000) translate(-121.000000, -387.000000) translate(116.000000, 382.000000)"></g>
            <g id="Corner" transform="translate(174.000000, 218.000000) rotate(281.000000) translate(-174.000000, -218.000000) translate(169.000000, 213.000000)" stroke="#324F75" stroke-linecap="round" stroke-width="2">
                <path d="M8.37387964,1.39564661 L0,1.39564661" id="Line-2"></path>
                <path d="M8.37387964,9.76952625 L8.37387964,1.39564661" id="Line-2"></path>
            </g>
            <g id="Star" transform="translate(161.000000, 279.000000)" stroke="#007991" stroke-linecap="round" stroke-width="2">
                <path d="M8.29014085,4.14507042 L0,4.14507042" id="Line-2"></path>
                <path d="M4.14507042,8.29014085 L4.14507042,0" id="Line-2"></path>
            </g>
            <circle id="Oval-2" stroke="#324F75" stroke-width="2" cx="130.5" cy="150.5" r="4.5"></circle>
            <circle id="Oval-2" stroke="#324F75" stroke-width="2" cx="126.5" cy="13.5" r="4.5"></circle>
        </g>
        <g id="Confetti" transform="translate(950.000000, -63.500000) scale(-1, 1) rotate(90.000000) translate(-950.000000, 63.500000) translate(859.500000, -260.500000)" stroke-linecap="round" stroke-width="2">
            <g id="Corner" transform="translate(174.000000, 74.000000) rotate(-14.000000) translate(-174.000000, -74.000000) translate(169.000000, 69.000000)" stroke="#5B7C8D">
                <path d="M8.37387964,1.39564661 L0,1.39564661" id="Line-2"></path>
                <path d="M8.37387964,9.76952625 L8.37387964,1.39564661" id="Line-2"></path>
            </g>
            <g id="Corner" transform="translate(174.000000, 218.000000) rotate(281.000000) translate(-174.000000, -218.000000) translate(169.000000, 213.000000)" stroke="#324F75">
                <path d="M8.37387964,1.39564661 L0,1.39564661" id="Line-2"></path>
                <path d="M8.37387964,9.76952625 L8.37387964,1.39564661" id="Line-2"></path>
            </g>
            <g id="Star" transform="translate(161.000000, 279.000000)" stroke="#007991">
                <path d="M8.29014085,4.14507042 L0,4.14507042" id="Line-2"></path>
                <path d="M4.14507042,8.29014085 L4.14507042,0" id="Line-2"></path>
            </g>
        </g>
        <g id="Confetti" transform="translate(523.000000, -53.500000) scale(1, -1) rotate(90.000000) translate(-523.000000, 53.500000) translate(432.500000, -250.500000)" stroke-width="2">
            <g id="Corner" transform="translate(27.000000, 7.000000) rotate(255.000000) translate(-27.000000, -7.000000) translate(22.000000, 2.000000)" stroke="#324F75" stroke-linecap="round">
                <path d="M8.37387964,1.39564661 L0,1.39564661" id="Line-2"></path>
                <path d="M8.37387964,9.76952625 L8.37387964,1.39564661" id="Line-2"></path>
            </g>
            <g id="Corner" transform="translate(8.000000, 274.000000) rotate(134.000000) translate(-8.000000, -274.000000) translate(3.000000, 269.000000)" stroke="#324F75" stroke-linecap="round">
                <path d="M8.37387964,1.39564661 L0,1.39564661" id="Line-2"></path>
                <path d="M8.37387964,9.76952625 L8.37387964,1.39564661" id="Line-2"></path>
            </g>
            <circle id="Oval-2" stroke="#007991" cx="18.5" cy="141.5" r="4.5"></circle>
        </g>
        <g id="Confetti" transform="translate(884.000000, 430.500000) scale(1, -1) rotate(90.000000) translate(-884.000000, -430.500000) translate(793.500000, 233.500000)">
            <g id="Corner" transform="translate(174.000000, 74.000000) rotate(-14.000000) translate(-174.000000, -74.000000) translate(169.000000, 69.000000)" stroke="#5B7C8D" stroke-linecap="round" stroke-width="2">
                <path d="M8.37387964,1.39564661 L0,1.39564661" id="Line-2"></path>
                <path d="M8.37387964,9.76952625 L8.37387964,1.39564661" id="Line-2"></path>
            </g>
            <g id="Corner" transform="translate(121.000000, 387.000000) rotate(252.000000) translate(-121.000000, -387.000000) translate(116.000000, 382.000000)"></g>
            <g id="Corner" transform="translate(174.000000, 218.000000) rotate(281.000000) translate(-174.000000, -218.000000) translate(169.000000, 213.000000)" stroke="#324F75" stroke-linecap="round" stroke-width="2">
                <path d="M8.37387964,1.39564661 L0,1.39564661" id="Line-2"></path>
                <path d="M8.37387964,9.76952625 L8.37387964,1.39564661" id="Line-2"></path>
            </g>
            <g id="Star" transform="translate(161.000000, 279.000000)" stroke="#007991" stroke-linecap="round" stroke-width="2">
                <path d="M8.29014085,4.14507042 L0,4.14507042" id="Line-2"></path>
                <path d="M4.14507042,8.29014085 L4.14507042,0" id="Line-2"></path>
            </g>
            <circle id="Oval-2" stroke="#324F75" stroke-width="2" cx="130.5" cy="150.5" r="4.5"></circle>
            <circle id="Oval-2" stroke="#324F75" stroke-width="2" cx="126.5" cy="13.5" r="4.5"></circle>
        </g>
        <g id="Confetti" transform="translate(1349.500000, 198.000000) scale(1, -1) translate(-1349.500000, -198.000000) translate(1259.000000, 1.000000)" stroke-width="2">
            <g id="Star" transform="translate(56.000000, 53.000000)" stroke="#007991" stroke-linecap="round">
                <path d="M8.29014085,4.14507042 L0,4.14507042" id="Line-2"></path>
                <path d="M4.14507042,8.29014085 L4.14507042,0" id="Line-2"></path>
            </g>
            <g id="Corner" transform="translate(174.000000, 74.000000) rotate(-14.000000) translate(-174.000000, -74.000000) translate(169.000000, 69.000000)" stroke="#5B7C8D" stroke-linecap="round">
                <path d="M8.37387964,1.39564661 L0,1.39564661" id="Line-2"></path>
                <path d="M8.37387964,9.76952625 L8.37387964,1.39564661" id="Line-2"></path>
            </g>
            <g id="Corner" transform="translate(27.000000, 7.000000) rotate(255.000000) translate(-27.000000, -7.000000) translate(22.000000, 2.000000)" stroke="#324F75" stroke-linecap="round">
                <path d="M8.37387964,1.39564661 L0,1.39564661" id="Line-2"></path>
                <path d="M8.37387964,9.76952625 L8.37387964,1.39564661" id="Line-2"></path>
            </g>
            <g id="Corner" transform="translate(121.000000, 387.000000) rotate(252.000000) translate(-121.000000, -387.000000) translate(116.000000, 382.000000)" stroke="#5B7C8D" stroke-linecap="round">
                <path d="M8.37387964,1.39564661 L0,1.39564661" id="Line-2"></path>
                <path d="M8.37387964,9.76952625 L8.37387964,1.39564661" id="Line-2"></path>
            </g>
            <g id="Corner" transform="translate(8.000000, 274.000000) rotate(134.000000) translate(-8.000000, -274.000000) translate(3.000000, 269.000000)" stroke="#324F75" stroke-linecap="round">
                <path d="M8.37387964,1.39564661 L0,1.39564661" id="Line-2"></path>
                <path d="M8.37387964,9.76952625 L8.37387964,1.39564661" id="Line-2"></path>
            </g>
            <g id="Corner" transform="translate(174.000000, 218.000000) rotate(281.000000) translate(-174.000000, -218.000000) translate(169.000000, 213.000000)" stroke="#324F75" stroke-linecap="round">
                <path d="M8.37387964,1.39564661 L0,1.39564661" id="Line-2"></path>
                <path d="M8.37387964,9.76952625 L8.37387964,1.39564661" id="Line-2"></path>
            </g>
            <g id="Star" transform="translate(89.000000, 205.000000)" stroke="#007991" stroke-linecap="round">
                <path d="M8.29014085,4.14507042 L0,4.14507042" id="Line-2"></path>
                <path d="M4.14507042,8.29014085 L4.14507042,0" id="Line-2"></path>
            </g>
            <g id="Star" transform="translate(48.000000, 352.000000)" stroke="#007991" stroke-linecap="round">
                <path d="M8.29014085,4.14507042 L0,4.14507042" id="Line-2"></path>
                <path d="M4.14507042,8.29014085 L4.14507042,0" id="Line-2"></path>
            </g>
            <g id="Star" transform="translate(161.000000, 279.000000)" stroke="#007991" stroke-linecap="round">
                <path d="M8.29014085,4.14507042 L0,4.14507042" id="Line-2"></path>
                <path d="M4.14507042,8.29014085 L4.14507042,0" id="Line-2"></path>
            </g>
            <circle id="Oval-2" stroke="#324F75" cx="130.5" cy="150.5" r="4.5"></circle>
            <circle id="Oval-2" stroke="#007991" cx="18.5" cy="141.5" r="4.5"></circle>
            <circle id="Oval-2" stroke="#324F75" cx="100.5" cy="314.5" r="4.5"></circle>
            <circle id="Oval-2" stroke="#324F75" cx="126.5" cy="13.5" r="4.5"></circle>
        </g>
        <g id="Confetti" transform="translate(1146.500000, 198.000000) scale(-1, 1) translate(-1146.500000, -198.000000) translate(1056.000000, 1.000000)" stroke-width="2">
            <g id="Star" transform="translate(56.000000, 53.000000)" stroke="#007991" stroke-linecap="round">
                <path d="M8.29014085,4.14507042 L0,4.14507042" id="Line-2"></path>
                <path d="M4.14507042,8.29014085 L4.14507042,0" id="Line-2"></path>
            </g>
            <g id="Corner" transform="translate(174.000000, 74.000000) rotate(-14.000000) translate(-174.000000, -74.000000) translate(169.000000, 69.000000)" stroke="#5B7C8D" stroke-linecap="round">
                <path d="M8.37387964,1.39564661 L0,1.39564661" id="Line-2"></path>
                <path d="M8.37387964,9.76952625 L8.37387964,1.39564661" id="Line-2"></path>
            </g>
            <g id="Corner" transform="translate(27.000000, 7.000000) rotate(255.000000) translate(-27.000000, -7.000000) translate(22.000000, 2.000000)" stroke="#324F75" stroke-linecap="round">
                <path d="M8.37387964,1.39564661 L0,1.39564661" id="Line-2"></path>
                <path d="M8.37387964,9.76952625 L8.37387964,1.39564661" id="Line-2"></path>
            </g>
            <g id="Corner" transform="translate(121.000000, 387.000000) rotate(252.000000) translate(-121.000000, -387.000000) translate(116.000000, 382.000000)" stroke="#5B7C8D" stroke-linecap="round">
                <path d="M8.37387964,1.39564661 L0,1.39564661" id="Line-2"></path>
                <path d="M8.37387964,9.76952625 L8.37387964,1.39564661" id="Line-2"></path>
            </g>
            <g id="Corner" transform="translate(8.000000, 274.000000) rotate(134.000000) translate(-8.000000, -274.000000) translate(3.000000, 269.000000)" stroke="#324F75" stroke-linecap="round">
                <path d="M8.37387964,1.39564661 L0,1.39564661" id="Line-2"></path>
                <path d="M8.37387964,9.76952625 L8.37387964,1.39564661" id="Line-2"></path>
            </g>
            <g id="Corner" transform="translate(174.000000, 218.000000) rotate(281.000000) translate(-174.000000, -218.000000) translate(169.000000, 213.000000)" stroke="#324F75" stroke-linecap="round">
                <path d="M8.37387964,1.39564661 L0,1.39564661" id="Line-2"></path>
                <path d="M8.37387964,9.76952625 L8.37387964,1.39564661" id="Line-2"></path>
            </g>
            <g id="Star" transform="translate(89.000000, 205.000000)" stroke="#007991" stroke-linecap="round">
                <path d="M8.29014085,4.14507042 L0,4.14507042" id="Line-2"></path>
                <path d="M4.14507042,8.29014085 L4.14507042,0" id="Line-2"></path>
            </g>
            <g id="Star" transform="translate(48.000000, 352.000000)" stroke="#007991" stroke-linecap="round">
                <path d="M8.29014085,4.14507042 L0,4.14507042" id="Line-2"></path>
                <path d="M4.14507042,8.29014085 L4.14507042,0" id="Line-2"></path>
            </g>
            <g id="Star" transform="translate(161.000000, 279.000000)" stroke="#007991" stroke-linecap="round">
                <path d="M8.29014085,4.14507042 L0,4.14507042" id="Line-2"></path>
                <path d="M4.14507042,8.29014085 L4.14507042,0" id="Line-2"></path>
            </g>
            <circle id="Oval-2" stroke="#324F75" cx="130.5" cy="150.5" r="4.5"></circle>
            <circle id="Oval-2" stroke="#007991" cx="18.5" cy="141.5" r="4.5"></circle>
            <circle id="Oval-2" stroke="#324F75" cx="100.5" cy="314.5" r="4.5"></circle>
            <circle id="Oval-2" stroke="#324F75" cx="126.5" cy="13.5" r="4.5"></circle>
        </g>
    </g>
</svg>