<?xml version="1.0" encoding="UTF-8"?>
<svg width="400px" height="400px" viewBox="0 0 400 400" version="1.1" xmlns="http://www.w3.org/2000/svg" xmlns:xlink="http://www.w3.org/1999/xlink">
    <!-- Generator: Sketch 48.2 (47327) - http://www.bohemiancoding.com/sketch -->
    <title>Slice</title>
    <desc>Created with Sketch.</desc>
    <defs></defs>
    <g id="Page-1" stroke="none" stroke-width="1" fill="none" fill-rule="evenodd">
        <g transform="translate(64.000000, 0.000000)">
            <path d="M167.016,216.876 L167.016,177.5008 C167.016,171.4072 162.094,166.4852 156.0004,166.4852 L72.9524,166.4852 C66.8588,166.4852 61.9368,171.4072 61.9368,177.5008 L61.9368,216.876 C24.2024,236.4072 0.1408,275.468 0.1408,318.36 C0.1408,346.5632 10.6096,373.752008 29.594,394.844008 C31.70336,397.18777 34.672,398.51589 37.7972,398.51589 L191.1572,398.51589 C194.2822,398.51589 197.2508,397.18777 199.3604,394.844008 C218.3448,373.750412 228.8136,346.64 228.8136,318.36 C228.8136,275.468 204.7512,236.408 167.0176,216.876 L167.016,216.876 Z M83.968,188.5168 L144.984,188.5168 L144.984,212.7356 L83.968,212.7356 L83.968,188.5168 Z M186.076,376.408804 L42.872,376.408804 C29.5128,359.9244 22.1688,339.5336 22.1688,318.3608 C22.1688,282.5796 42.95,250.0008 75.2928,234.8448 L153.5728,234.8448 C185.9164,250.0012 206.6968,282.5808 206.6968,318.3608 C206.77496,339.5328 199.4312,359.9248 186.072,376.408804 L186.076,376.408804 Z" id="Fill-1" fill="#2A4F78"></path>
            <path d="M260.844,1.56248 C200.688,1.56248 151.624,49.21848 149.124,108.75048 L127.0928,130.85968 C122.796,135.15648 122.796,142.10968 127.0928,146.48448 C131.7804,151.17208 140.5304,148.672 142.7176,146.48448 L164.7488,124.37528 C224.2808,121.79716 271.9368,72.73528 271.9368,12.65528 C271.85868,6.48328 266.9368,1.56168 260.8432,1.56168 L260.844,1.56248 Z M171.704,101.71848 C177.0164,61.56248 208.8916,29.61048 249.048,24.37448 C243.7356,64.53048 211.8604,96.48248 171.704,101.71848 Z" id="Fill-2" fill="#007B94"></path>
        </g>
    </g>
</svg>