<?xml version="1.0" encoding="UTF-8"?>
<svg width="136px" height="150px" viewBox="0 0 136 150" version="1.1" xmlns="http://www.w3.org/2000/svg" xmlns:xlink="http://www.w3.org/1999/xlink">
    <!-- Generator: Sketch 48.2 (47327) - http://www.bohemiancoding.com/sketch -->
    <title>Page 1</title>
    <desc>Created with Sketch.</desc>
    <defs></defs>
    <g id="Page-1" stroke="none" stroke-width="1" fill="none" fill-rule="evenodd">
        <g>
            <path d="M134.467188,98.596875 C132.434688,91.406875 127.124688,83.1245312 119.312188,75 C127.124688,66.87625 132.434688,58.59375 134.314688,51.403125 C136.188438,44.213125 135.254625,41.405625 133.063469,37.651875 C127.753469,28.435625 112.591594,26.403125 93.3790938,30.931875 C87.7515938,12.188125 78.52925,0.1584375 67.7509688,0.1584375 C56.9726875,0.1584375 47.7494063,12.1884375 41.9697188,30.7803125 C22.7494063,26.4040625 7.59471875,28.4365625 2.2853375,37.5003125 C0.1003375,41.4065625 -0.3696625,45.9353125 1.03411875,51.2515625 C2.43793125,56.5615625 8.376625,66.8765625 16.189125,75 C8.376625,83.12375 3.06661719,91.40625 1.18661875,98.596875 C-0.68713125,105.786875 0.24668125,108.594375 2.4378375,112.348125 C4.6228375,116.095625 13.8453438,121.411875 24.3128438,121.411875 L24.3128438,121.405766 C30.3187813,121.295906 36.2940938,120.508547 42.1284688,119.062016 C47.749875,137.812019 56.9722188,149.841705 67.7503438,149.841705 C78.5284688,149.841705 87.7519063,137.964205 93.5315938,119.213578 L93.5315938,119.219688 C99.3605,120.660125 105.335813,121.4475 111.340969,121.563438 C121.808469,121.563438 129.620656,118.597188 133.215969,112.499688 C136.810969,106.408438 135.877063,103.905937 134.467188,98.5959375 L134.467188,98.596875 Z M127.905938,40.784375 C129.340266,43.5920312 129.566094,46.8634375 128.5285,49.8420312 C126.80725,56.0920312 122.11975,63.2820313 115.0885,70.6248437 L115.094594,70.6248437 C109.992094,65.8275 104.559906,61.3901563 98.8414688,57.3435938 C98.1761875,50.5015625 97.0286563,43.714375 95.4052188,37.0310937 C110.718969,33.2835937 123.689594,33.7534375 127.747406,40.7846875 L127.905938,40.784375 Z M80.560625,96.7171875 C76.495625,99.0609375 72.125625,101.245937 67.749375,103.278437 C63.373125,101.245937 59.155625,99.0609375 54.938125,96.7171875 C50.720625,94.3734375 46.655625,91.7184375 42.749375,89.0634375 C42.4380938,84.5346875 42.1268125,79.8471875 42.1268125,74.8421875 C42.1268125,69.8434375 42.2855,65.1559375 42.749375,60.6209375 C46.655625,57.9659375 50.720625,55.4634375 54.938125,52.9671875 C59.155625,50.4646875 63.373125,48.4384375 67.749375,46.4059375 C72.125625,48.4384375 76.343125,50.6234375 80.560625,52.9671875 C84.778125,55.3109375 88.843125,57.9659375 92.749375,60.6209375 C93.0606563,65.1496875 93.3719375,69.8371875 93.3719375,74.8421875 C93.3719375,79.8409375 93.21325,84.5284375 92.749375,89.0634375 C88.843125,91.8771875 84.778125,94.3734375 80.560625,96.7171875 Z M91.968125,97.1871562 C91.3394688,101.972312 90.4483438,106.720906 89.313125,111.408406 C84.784375,110.157188 80.096875,108.442156 75.409375,106.562156 L83.533125,102.185906 L91.968125,97.1871562 Z M60.2478125,106.562156 C55.5603125,108.435906 50.8728125,109.998406 46.3440625,111.408406 C45.2027031,106.720906 44.3176563,101.972312 43.6890625,97.1871562 L51.9715625,102.185906 L60.2478125,106.562156 Z M36.1884375,84.3762187 C32.2760938,81.4465312 28.5225,78.3215312 24.9396875,75.0012187 C28.5225,71.6809062 32.2760938,68.5559062 36.1884375,65.6262187 C36.02975,68.7512187 35.8771563,71.8762187 35.8771563,75.0012187 C35.8771563,78.1262187 36.0297344,81.4099687 36.1884375,84.3762187 Z M43.5309375,52.6559063 C44.1595938,47.87075 45.0507188,43.12825 46.1859375,38.44075 C50.7146875,39.6919688 55.4021875,41.407 60.0896875,43.287 L51.8071875,47.66325 L43.5309375,52.6559063 Z M75.25125,43.2809062 C79.93875,41.4071562 84.62625,39.8446562 89.155,38.4346562 L89.155,38.44075 C90.2963594,43.12825 91.1814063,47.87075 91.81,52.6559062 L83.5275,47.6571562 L75.25125,43.2809062 Z M99.310625,65.6262187 C103.222969,68.5559062 106.976563,71.6809062 110.559375,75.0012187 C106.976563,78.3215312 103.222969,81.4465312 99.310625,84.3762187 C99.4693125,81.2512187 99.6219063,78.1262187 99.6219063,75.0012187 C99.6219063,71.8762187 99.4693125,68.5924687 99.310625,65.6262187 Z M67.7496875,6.41059375 C75.0921875,6.41059375 82.5934375,15.9443437 87.591875,32.3512187 L87.591875,32.3451094 C80.8109375,34.3226094 74.1825,36.7762031 67.7496875,39.6876094 C61.3165625,36.7762031 54.688125,34.3226094 47.9075,32.3451094 C52.90625,16.0982344 60.4075,6.41073437 67.7496875,6.41073437 L67.7496875,6.41059375 Z M7.7528125,40.7855937 C11.8178125,33.7543437 24.7809375,33.2843437 40.4059375,37.0380938 L40.4059375,37.0319844 C38.7823438,43.7152656 37.635,50.5024531 36.9696875,57.3444844 C31.250625,61.3910469 25.8185938,65.8283906 20.7165625,70.6257344 C13.6853125,63.2832344 8.9978125,56.0932344 7.2765625,49.8429219 L7.28267188,49.8429219 C6.19625,46.8888594 6.36714063,43.6112031 7.75264063,40.7852656 L7.7528125,40.7855937 Z M7.7528125,109.224656 L7.7528125,109.218547 C6.31239063,106.410891 6.0865625,103.139484 7.12415625,100.160891 C8.84540625,93.9108906 13.5329063,86.7208906 20.5641563,79.3780781 C25.6666563,84.1754219 31.09275,88.6127656 36.8110313,92.6593281 C37.4763125,99.5013594 38.6238438,106.288547 40.2472813,112.971828 C24.7810313,116.719328 11.8113438,116.249484 7.75196875,109.218234 L7.7528125,109.224656 Z M67.7496875,143.593402 C60.4071875,143.593402 52.9059375,134.059656 47.9075,117.652781 L47.9075,117.658875 C54.6884375,115.681375 61.316875,113.227781 67.7496875,110.316375 C74.1828125,113.227781 80.81125,115.681375 87.591875,117.658875 C82.593125,133.90575 75.091875,143.593255 67.7496875,143.593255 L67.7496875,143.593402 Z M127.746563,109.218406 C123.681563,116.249656 110.718438,116.719656 95.0934375,112.965906 L95.0934375,112.972 C96.7170313,106.288719 97.864375,99.5015313 98.5296875,92.6595 C104.24875,88.6129375 109.680781,84.1755938 114.782813,79.37825 C121.814063,86.72075 126.501563,93.91075 128.222813,100.161062 L128.216703,100.161062 C129.303125,103.115125 129.132234,106.392781 127.746734,109.218719 L127.746563,109.218406 Z" id="Fill-1" fill="#2B2D40"></path>
            <path d="M86.5,64.684375 C86.5,58.745625 77.125,56.090625 67.75,56.090625 C58.375,56.090625 49,58.745625 49,64.684375 L49,84.996875 C49,90.935625 58.375,93.590625 67.75,93.590625 C77.125,93.590625 86.5,90.935625 86.5,84.996875 L86.5,64.684375 Z M80.25,74.529375 C79.3100625,75.4693125 74.94,77.184375 67.75,77.184375 C60.56,77.184375 56.19,75.463125 55.25,74.529375 L55.25,71.404375 C59.2782812,72.7410469 63.508125,73.3757812 67.75,73.278125 C71.991875,73.3757812 76.2217188,72.7410156 80.25,71.404375 L80.25,74.529375 Z M67.75,62.499375 C74,62.499375 78.2175,63.7505937 79.78,64.843125 C78.2175,65.7830625 74,67.186875 67.75,67.186875 C61.5,67.186875 57.2825,65.9356562 55.72,64.843125 C57.2825,63.7505937 61.5,62.340625 67.75,62.340625 L67.75,62.499375 Z M55.25,84.99625 L55.25,81.4073437 C59.2782812,82.7440156 63.508125,83.37875 67.75,83.2810937 C71.991875,83.37875 76.2217188,82.7439844 80.25,81.4073437 L80.25,85.0023437 C79.3100625,85.9422812 74.94,87.6573437 67.75,87.6573437 C60.56,87.6573437 56.19,85.9360937 55.25,84.99625 Z" id="Fill-2" fill="#007991"></path>
        </g>
    </g>
</svg>