<?xml version="1.0" encoding="UTF-8"?>
<svg width="394px" height="394px" viewBox="0 0 394 394" version="1.1" xmlns="http://www.w3.org/2000/svg" xmlns:xlink="http://www.w3.org/1999/xlink">
    <!-- Generator: Sketch 48.2 (47327) - http://www.bohemiancoding.com/sketch -->
    <title>Page 1</title>
    <desc>Created with Sketch.</desc>
    <defs></defs>
    <g id="Page-1" stroke="none" stroke-width="1" fill="none" fill-rule="evenodd">
        <g>
            <path d="M390.432653,361.191824 L374.169796,344.92898 C370.582408,341.357551 364.762857,341.357551 361.191429,344.92898 C359.453551,346.666857 358.512857,348.962776 358.512857,351.417959 C358.512857,353.873306 359.46951,356.169388 361.191429,357.906939 L361.781347,358.496857 L42.569102,358.512776 C38.6628571,358.512776 35.4899184,355.339959 35.4899184,351.433592 L35.4899184,32.2213469 L36.0798367,32.8112653 C39.5396735,36.271102 45.5982041,36.271102 49.0582041,32.8112653 C50.7960816,31.0733878 51.7367755,28.7774694 51.7367755,26.3222857 C51.7367755,23.8669388 50.7801224,21.5549388 49.0582041,19.8333061 L32.8112571,3.57044898 C29.2398286,-0.000979591837 23.4043184,-0.000979591837 19.8328898,3.57044898 L3.57003265,19.8333061 C-0.00139591837,23.4047347 -0.00139591837,29.2243265 3.57003265,32.8116735 C7.14146122,36.383102 12.9769714,36.383102 16.5484,32.8116735 L17.1383184,32.2217551 L17.1383184,351.434 C17.1383184,365.464624 28.5542367,376.864624 42.5689388,376.864624 L361.781184,376.864624 L361.191265,377.454543 C359.453388,379.19242 358.496735,381.488339 358.496735,383.943522 C358.496735,386.398869 359.453388,388.694951 361.175306,390.416584 C362.913184,392.154461 365.209102,393.111114 367.664286,393.111114 C370.119469,393.111114 372.415714,392.154461 374.169592,390.432543 L390.416531,374.169686 C392.154408,372.431808 393.111061,370.13589 393.111061,367.680706 C393.111061,365.241278 392.154408,362.929278 390.43249,361.191727 L390.432653,361.191824 Z" id="Fill-1" fill="#2A4F78"></path>
            <path d="M349.742857,74.0081633 C337.083265,71.3933469 325.699592,78.4404082 321.442449,89.1069388 L83.1934694,89.1069388 C78.1232653,89.1069388 74.0097959,93.2204082 74.0097959,98.2906122 C74.0097959,103.360816 78.1232653,107.474286 83.1934694,107.474286 L321.442449,107.474286 C325.093592,116.626122 334.006122,123.115102 344.465306,123.115102 C359.707755,123.115102 371.761224,109.371429 368.843673,93.5869388 C367.057959,83.9408163 359.325306,76.0008163 349.742857,74.0077551 L349.742857,74.0081633 Z M344.449388,108.048163 C339.060408,108.048163 334.691837,103.679592 334.691837,98.2906122 C334.691837,92.9016327 339.060408,88.5330612 344.449388,88.5330612 C349.838367,88.5330612 354.206939,92.9016327 354.206939,98.2906122 C354.206939,103.679592 349.838367,108.048163 344.449388,108.048163 Z" id="Fill-2" fill="#007B94"></path>
            <path d="M267.6,139.82449 C254.940408,137.209673 243.556735,144.256735 239.299592,154.923265 L83.1934694,154.923265 C78.1232653,154.923265 74.0097959,159.036735 74.0097959,164.106939 C74.0097959,169.177143 78.1232653,173.290612 83.1934694,173.290612 L239.299592,173.290612 C242.950735,182.442449 251.863265,188.931429 262.322449,188.931429 C277.564898,188.931429 289.618367,175.187755 286.700816,159.403265 C284.931061,149.741224 277.182449,141.801224 267.6,139.824082 L267.6,139.82449 Z M262.306531,173.848571 C256.917551,173.848571 252.54898,169.48 252.54898,164.09102 C252.54898,158.702041 256.917551,154.333469 262.306531,154.333469 C267.69551,154.333469 272.064082,158.702041 272.064082,164.09102 C272.064082,169.48 267.69551,173.848571 262.306531,173.848571 Z" id="Fill-3" fill="#007B94"></path>
            <path d="M316.881633,205.62449 C304.222041,203.009714 292.838367,210.056735 288.581224,220.723265 L83.1934694,220.723265 C78.1232653,220.723265 74.0097959,224.836735 74.0097959,229.906939 C74.0097959,234.977143 78.1232653,239.090612 83.1934694,239.090612 L288.581224,239.074653 C292.232367,248.22649 301.144898,254.715469 311.604082,254.715469 C326.846531,254.715469 338.9,240.971796 335.982449,225.187306 C334.212694,215.557102 326.464082,207.601184 316.881633,205.624041 L316.881633,205.62449 Z M311.604082,239.66449 C306.215102,239.66449 301.846531,235.295918 301.846531,229.906939 C301.846531,224.517959 306.215102,220.149388 311.604082,220.149388 C316.993061,220.149388 321.361633,224.517959 321.361633,229.906939 C321.345714,235.295918 316.993061,239.66449 311.604082,239.66449 Z" id="Fill-4" fill="#FFC843"></path>
            <path d="M210.089796,271.440816 C197.430204,268.826041 186.046531,275.873061 181.789388,286.539592 L83.1934694,286.539592 C78.1232653,286.539592 74.0097959,290.653061 74.0097959,295.723265 C74.0097959,300.793469 78.1232653,304.906939 83.1934694,304.906939 L181.789388,304.906939 C185.440531,314.058776 194.353061,320.547755 204.812245,320.547755 C220.054694,320.547755 232.108163,306.804082 229.190612,291.019592 C227.420857,281.357551 219.688163,273.417551 210.089796,271.440408 L210.089796,271.440816 Z M204.812245,305.464898 C199.423265,305.464898 195.054694,301.096327 195.054694,295.707347 C195.054694,290.318367 199.423265,285.949796 204.812245,285.949796 C210.201224,285.949796 214.569796,290.318367 214.569796,295.707347 C214.569796,301.096327 210.201224,305.464898 204.812245,305.464898 Z" id="Fill-5" fill="#007B94"></path>
        </g>
    </g>
</svg>