<?xml version="1.0" encoding="UTF-8"?>
<svg width="149px" height="142px" viewBox="0 0 149 142" version="1.1" xmlns="http://www.w3.org/2000/svg" xmlns:xlink="http://www.w3.org/1999/xlink">
    <!-- Generator: Sketch 48.2 (47327) - http://www.bohemiancoding.com/sketch -->
    <title>Page 1</title>
    <desc>Created with Sketch.</desc>
    <defs></defs>
    <g id="Page-1" stroke="none" stroke-width="1" fill="none" fill-rule="evenodd">
        <g>
            <path d="M141.926374,0 L6.43351648,0 C2.80846154,0 0.168461538,2.96835165 0.168461538,6.42593407 L0.168461538,135.331978 C0.168461538,138.957038 3.13681319,141.757917 6.5943956,141.757917 L141.927363,141.757917 C145.552418,141.757917 148.353297,138.789565 148.353297,135.331978 L148.353297,6.43254396 C148.18589,2.80106044 145.384945,0.000181318681 141.927363,0.000181318681 L141.926374,0 Z M144.888297,135.332967 C144.888297,136.981314 143.56833,138.629665 141.591593,138.629665 L6.25862637,138.629665 C4.61027473,138.629665 2.96192308,137.309698 2.96192308,135.332967 L2.96192308,6.43351648 C2.96192308,4.78516484 4.28189011,3.13681319 6.25862637,3.13681319 L141.591593,3.13681319 C143.239945,3.13681319 144.888297,4.45678022 144.888297,6.43351648 L144.888297,135.332967 Z" id="Fill-1" fill="#2B2D40"></path>
            <polygon id="Fill-2" fill="#2B2D40" points="12.8587912 22.5807692 135.332967 22.5807692 135.332967 19.2840659 12.8587912 19.2840659"></polygon>
            <polygon id="Fill-3" fill="#2B2D40" points="12.8587912 83.8978022 93.4598901 83.8978022 93.4598901 80.6010989 12.8587912 80.6010989"></polygon>
            <polygon id="Fill-4" fill="#2B2D40" points="12.8587912 96.5967033 93.4598901 96.5967033 93.4598901 93.3 12.8587912 93.3"></polygon>
            <polygon id="Fill-5" fill="#2B2D40" points="12.8587912 109.615385 93.4598901 109.615385 93.4598901 106.318681 12.8587912 106.318681"></polygon>
            <polygon id="Fill-6" fill="#2B2D40" points="12.8587912 122.474176 93.4598901 122.474176 93.4598901 119.177473 12.8587912 119.177473"></polygon>
            <path d="M12.8587912,70.710989 L93.4598901,70.710989 L93.4598901,31.9747253 L12.8587912,31.9747253 L12.8587912,70.710989 Z M16.1554945,35.4395604 L90.3313187,35.4395604 L90.3313187,67.5824176 L16.1554945,67.5824176 L16.1554945,35.4395604 Z" id="Fill-7" fill="#2B2D40"></path>
            <path d="M99.8934066,122.474176 L135.332967,122.474176 L135.332967,93.4598901 L99.8934066,93.4598901 L99.8934066,122.474176 Z M103.19011,96.5967033 L132.204396,96.5967033 L132.204396,119.177473 L103.19011,119.177473 L103.19011,96.5967033 Z" id="Fill-8" fill="#2B2D40"></path>
            <polygon id="Fill-9" fill="#007991" points="99.8934066 83.7379121 135.332967 83.7379121 135.332967 32.1428571 99.8934066 32.1428571"></polygon>
            <path d="M127.230149,47 C126.363488,47 125.590585,47.4132432 125.082242,48.0584506 L115.098859,60.7568473 L110.804217,55.9394054 C110.295895,55.3740265 109.574005,55.0168823 108.76985,55.0168823 C107.239646,55.0158023 106,56.2997565 106,57.8848084 C106,58.635778 106.281252,59.3165894 106.736449,59.8280265 L113.195662,67.0774769 C113.703982,67.6428558 114.425871,68 115.230026,68 C116.096688,68 116.86959,67.5867568 117.377934,66.9415494 L129.378908,51.6796168 C129.766396,51.1854402 129.999728,50.5553417 129.999728,49.8691166 C130,48.2851115 128.760434,47 127.230149,47 Z" fill="#FFFFFF"></path>
        </g>
    </g>
</svg>