<?xml version="1.0" encoding="UTF-8"?>
<svg width="1440px" height="732px" viewBox="0 0 1440 732" version="1.1" xmlns="http://www.w3.org/2000/svg" xmlns:xlink="http://www.w3.org/1999/xlink">
    <!-- Generator: Sketch 48.2 (47327) - http://www.bohemiancoding.com/sketch -->
    <title>Background Block</title>
    <desc>Created with Sketch.</desc>
    <defs></defs>
    <g id="Background-Block" stroke="none" stroke-width="1" fill="none" fill-rule="evenodd" transform="translate(0.000000, -41.000000)">
        <g id="Cross" transform="translate(108.000000, 365.000000)" stroke="#979797" stroke-linecap="round" stroke-width="4">
            <path d="M0,0 L6.747692,7.38028812" id="Line"></path>
            <path d="M0,0 L6.747692,7.38028812" id="Line" transform="translate(3.373846, 3.690144) scale(-1, 1) translate(-3.373846, -3.690144) "></path>
        </g>
        <g id="Cross" transform="translate(39.000000, 111.000000)" stroke="#66B6AB" stroke-linecap="round" stroke-width="4">
            <path d="M0,0 L6.747692,7.38028812" id="Line"></path>
            <path d="M0,0 L6.747692,7.38028812" id="Line" transform="translate(3.373846, 3.690144) scale(-1, 1) translate(-3.373846, -3.690144) "></path>
        </g>
        <g id="Cross" transform="translate(213.000000, 308.000000)" stroke="#65CAC5" stroke-linecap="round" stroke-width="4">
            <path d="M0,0 L6.747692,7.38028812" id="Line"></path>
            <path d="M0,0 L6.747692,7.38028812" id="Line" transform="translate(3.373846, 3.690144) scale(-1, 1) translate(-3.373846, -3.690144) "></path>
        </g>
        <g id="Cross" transform="translate(993.000000, 246.000000)" stroke="#65CAC5" stroke-linecap="round" stroke-width="4">
            <path d="M0,0 L6.747692,7.38028812" id="Line"></path>
            <path d="M0,0 L6.747692,7.38028812" id="Line" transform="translate(3.373846, 3.690144) scale(-1, 1) translate(-3.373846, -3.690144) "></path>
        </g>
        <g id="Group-8" transform="translate(39.000000, 649.000000)" stroke="#979797" stroke-linecap="round" stroke-width="4">
            <path d="M0,0 L6.747692,7.38028812" id="Line"></path>
            <path d="M0,0 L6.747692,7.38028812" id="Line" transform="translate(3.373846, 3.690144) scale(-1, 1) translate(-3.373846, -3.690144) "></path>
        </g>
        <g id="Group-8" transform="translate(430.000000, 133.000000)" stroke="#979797" stroke-linecap="round" stroke-width="4">
            <path d="M0,0 L6.747692,7.38028812" id="Line"></path>
            <path d="M0,0 L6.747692,7.38028812" id="Line" transform="translate(3.373846, 3.690144) scale(-1, 1) translate(-3.373846, -3.690144) "></path>
        </g>
        <g id="Group-5" transform="translate(302.000000, 682.000000)" stroke="#007991" stroke-linecap="round" stroke-width="4">
            <path d="M0,0 L6.747692,7.38028812" id="Line"></path>
            <path d="M0,0 L6.747692,7.38028812" id="Line" transform="translate(3.373846, 3.690144) scale(-1, 1) translate(-3.373846, -3.690144) "></path>
            <path d="M0,0 L6.747692,7.38028812" id="Line"></path>
            <path d="M0,0 L6.747692,7.38028812" id="Line" transform="translate(3.373846, 3.690144) scale(-1, 1) translate(-3.373846, -3.690144) "></path>
        </g>
        <g id="Group-4" transform="translate(203.000000, 471.000000)" stroke="#007991" stroke-linecap="round" stroke-width="4">
            <path d="M0,0 L6.747692,7.38028812" id="Line"></path>
            <path d="M0,0 L6.747692,7.38028812" id="Line" transform="translate(3.373846, 3.690144) scale(-1, 1) translate(-3.373846, -3.690144) "></path>
        </g>
        <g id="Group-6" transform="translate(58.000000, 254.000000)" stroke="#007991" stroke-linecap="round" stroke-width="4">
            <path d="M0,0 L6.747692,7.38028812" id="Line"></path>
            <path d="M0,0 L6.747692,7.38028812" id="Line" transform="translate(3.373846, 3.690144) scale(-1, 1) translate(-3.373846, -3.690144) "></path>
        </g>
        <g id="Group-6" transform="translate(269.000000, 141.000000)" stroke="#007991" stroke-linecap="round" stroke-width="4">
            <path d="M0,0 L6.747692,7.38028812" id="Line"></path>
            <path d="M0,0 L6.747692,7.38028812" id="Line" transform="translate(3.373846, 3.690144) scale(-1, 1) translate(-3.373846, -3.690144) "></path>
        </g>
        <g id="Group-7" transform="translate(148.000000, 657.000000)" stroke="#65CAC5" stroke-linecap="round" stroke-width="4">
            <path d="M0,0 L6.747692,7.38028812" id="Line"></path>
            <path d="M0,0 L6.747692,7.38028812" id="Line" transform="translate(3.373846, 3.690144) scale(-1, 1) translate(-3.373846, -3.690144) "></path>
        </g>
        <g id="Group-8" transform="translate(329.000000, 526.000000)" stroke="#979797" stroke-linecap="round" stroke-width="4">
            <path d="M0,0 L6.747692,7.38028812" id="Line"></path>
            <path d="M0,0 L6.747692,7.38028812" id="Line" transform="translate(3.373846, 3.690144) scale(-1, 1) translate(-3.373846, -3.690144) "></path>
        </g>
        <g id="Cross" transform="translate(371.000000, 316.000000)" stroke="#979797" stroke-linecap="round" stroke-width="4">
            <path d="M0,0 L6.747692,7.38028812" id="Line"></path>
            <path d="M0,0 L6.747692,7.38028812" id="Line" transform="translate(3.373846, 3.690144) scale(-1, 1) translate(-3.373846, -3.690144) "></path>
        </g>
        <circle id="Oval" stroke="#66B6AB" stroke-width="2" cx="259.5" cy="609.5" r="2.5"></circle>
        <circle id="Oval" stroke="#66B6AB" stroke-width="2" cx="154.5" cy="193.5" r="2.5"></circle>
        <circle id="Oval" stroke="#65CAC5" stroke-width="2" cx="333.5" cy="230.5" r="2.5"></circle>
        <circle id="Oval" stroke="#007991" stroke-width="2" cx="67.5" cy="468.5" r="2.5"></circle>
        <circle id="Oval" stroke="#007991" stroke-width="2" cx="439.5" cy="225.5" r="2.5"></circle>
        <circle id="Oval" stroke="#007991" stroke-width="2" cx="60.5" cy="687.5" r="2.5"></circle>
        <circle id="Oval" stroke="#66B6AB" stroke-width="2" cx="99.5" cy="570.5" r="2.5"></circle>
        <circle id="Oval" stroke="#66B6AB" stroke-width="2" cx="338.5" cy="404.5" r="2.5"></circle>
        <g id="Group-9" transform="translate(1246.500000, 400.500000) scale(1, -1) translate(-1246.500000, -400.500000) translate(1077.000000, 111.000000)">
            <g id="Cross" transform="translate(69.000000, 254.000000)" stroke="#979797" stroke-linecap="round" stroke-width="4">
                <path d="M0,0 L6.747692,7.38028812" id="Line"></path>
                <path d="M0,0 L6.747692,7.38028812" id="Line" transform="translate(3.373846, 3.690144) scale(-1, 1) translate(-3.373846, -3.690144) "></path>
            </g>
            <g id="Cross" stroke="#66B6AB" stroke-linecap="round" stroke-width="4">
                <path d="M0,0 L6.747692,7.38028812" id="Line"></path>
                <path d="M0,0 L6.747692,7.38028812" id="Line" transform="translate(3.373846, 3.690144) scale(-1, 1) translate(-3.373846, -3.690144) "></path>
            </g>
            <g id="Cross" transform="translate(174.000000, 197.000000)" stroke="#65CAC5" stroke-linecap="round" stroke-width="4">
                <path d="M0,0 L6.747692,7.38028812" id="Line"></path>
                <path d="M0,0 L6.747692,7.38028812" id="Line" transform="translate(3.373846, 3.690144) scale(-1, 1) translate(-3.373846, -3.690144) "></path>
            </g>
            <g id="Group-8" transform="translate(0.000000, 538.000000)" stroke="#979797" stroke-linecap="round" stroke-width="4">
                <path d="M0,0 L6.747692,7.38028812" id="Line"></path>
                <path d="M0,0 L6.747692,7.38028812" id="Line" transform="translate(3.373846, 3.690144) scale(-1, 1) translate(-3.373846, -3.690144) "></path>
            </g>
            <g id="Group-5" transform="translate(263.000000, 571.000000)" stroke="#007991" stroke-linecap="round" stroke-width="4">
                <path d="M0,0 L6.747692,7.38028812" id="Line"></path>
                <path d="M0,0 L6.747692,7.38028812" id="Line" transform="translate(3.373846, 3.690144) scale(-1, 1) translate(-3.373846, -3.690144) "></path>
                <path d="M0,0 L6.747692,7.38028812" id="Line"></path>
                <path d="M0,0 L6.747692,7.38028812" id="Line" transform="translate(3.373846, 3.690144) scale(-1, 1) translate(-3.373846, -3.690144) "></path>
            </g>
            <g id="Group-4" transform="translate(164.000000, 360.000000)" stroke="#007991" stroke-linecap="round" stroke-width="4">
                <path d="M0,0 L6.747692,7.38028812" id="Line"></path>
                <path d="M0,0 L6.747692,7.38028812" id="Line" transform="translate(3.373846, 3.690144) scale(-1, 1) translate(-3.373846, -3.690144) "></path>
            </g>
            <g id="Group-6" transform="translate(19.000000, 143.000000)" stroke="#007991" stroke-linecap="round" stroke-width="4">
                <path d="M0,0 L6.747692,7.38028812" id="Line"></path>
                <path d="M0,0 L6.747692,7.38028812" id="Line" transform="translate(3.373846, 3.690144) scale(-1, 1) translate(-3.373846, -3.690144) "></path>
            </g>
            <g id="Group-6" transform="translate(230.000000, 30.000000)" stroke="#007991" stroke-linecap="round" stroke-width="4">
                <path d="M0,0 L6.747692,7.38028812" id="Line"></path>
                <path d="M0,0 L6.747692,7.38028812" id="Line" transform="translate(3.373846, 3.690144) scale(-1, 1) translate(-3.373846, -3.690144) "></path>
            </g>
            <g id="Group-7" transform="translate(109.000000, 546.000000)" stroke="#65CAC5" stroke-linecap="round" stroke-width="4">
                <path d="M0,0 L6.747692,7.38028812" id="Line"></path>
                <path d="M0,0 L6.747692,7.38028812" id="Line" transform="translate(3.373846, 3.690144) scale(-1, 1) translate(-3.373846, -3.690144) "></path>
            </g>
            <g id="Group-8" transform="translate(290.000000, 415.000000)" stroke="#979797" stroke-linecap="round" stroke-width="4">
                <path d="M0,0 L6.747692,7.38028812" id="Line"></path>
                <path d="M0,0 L6.747692,7.38028812" id="Line" transform="translate(3.373846, 3.690144) scale(-1, 1) translate(-3.373846, -3.690144) "></path>
            </g>
            <g id="Cross" transform="translate(332.000000, 205.000000)" stroke="#979797" stroke-linecap="round" stroke-width="4">
                <path d="M0,0 L6.747692,7.38028812" id="Line"></path>
                <path d="M0,0 L6.747692,7.38028812" id="Line" transform="translate(3.373846, 3.690144) scale(-1, 1) translate(-3.373846, -3.690144) "></path>
            </g>
            <circle id="Oval" stroke="#66B6AB" stroke-width="2" cx="220.5" cy="498.5" r="2.5"></circle>
            <circle id="Oval" stroke="#66B6AB" stroke-width="2" cx="115.5" cy="82.5" r="2.5"></circle>
            <circle id="Oval" stroke="#65CAC5" stroke-width="2" cx="294.5" cy="119.5" r="2.5"></circle>
            <circle id="Oval" stroke="#007991" stroke-width="2" cx="28.5" cy="357.5" r="2.5"></circle>
            <circle id="Oval" stroke="#007991" stroke-width="2" cx="21.5" cy="576.5" r="2.5"></circle>
            <circle id="Oval" stroke="#66B6AB" stroke-width="2" cx="60.5" cy="459.5" r="2.5"></circle>
            <circle id="Oval" stroke="#66B6AB" stroke-width="2" cx="299.5" cy="293.5" r="2.5"></circle>
        </g>
    </g>
</svg>