<?xml version="1.0" encoding="UTF-8"?>
<svg width="25px" height="16px" viewBox="0 0 25 16" version="1.1" xmlns="http://www.w3.org/2000/svg" xmlns:xlink="http://www.w3.org/1999/xlink">
    <!-- Generator: Sketch 48.2 (47327) - http://www.bohemiancoding.com/sketch -->
    <title>Google+</title>
    <desc>Created with Sketch.</desc>
    <defs></defs>
    <g id="Page-6" stroke="none" stroke-width="1" fill="none" fill-rule="evenodd">
        <path d="M7.94054965,6.41582616 L15.5663767,6.41582616 C16.0973162,10.2496203 14.4952048,16 7.94054965,16 C3.55549773,16 0,12.417929 0,7.99968846 C0,3.58144788 3.55549773,0 7.94054965,0 C9.9980175,0 11.8727232,0.788192687 13.283399,2.081701 C11.6218125,3.66307099 11.6763314,3.75715565 11.023344,4.4151252 C10.2074195,3.73534795 9.31777067,3.24747848 7.94054965,3.24747848 C5.33541496,3.24747848 3.30210889,5.3752872 3.30210889,7.99968846 C3.30210889,10.6247128 5.33541496,12.7525215 7.94054965,12.7525215 C10.5147077,12.7525215 11.5604788,11.6340979 12.2332912,9.5798123 C10.9911283,9.5798123 7.94054965,9.58417384 7.94054965,9.58417384 L7.94054965,6.41582616 Z M22.2486556,6.57408778 L25,6.57408778 L25,8.55422719 L22.2486556,8.55422719 L22.2486556,11.4060516 L20.2834981,11.4060516 L20.2834981,8.55422719 L17.4528536,8.55422719 L17.4528536,6.57408778 L20.2834981,6.57408778 L20.2834981,3.80201721 L22.2486556,3.80201721 L22.2486556,6.57408778 Z" id="Google+" fill="#3FA2F7"></path>
    </g>
</svg>