<?xml version="1.0" encoding="UTF-8"?>
<svg width="100px" height="88px" viewBox="0 0 100 88" version="1.1" xmlns="http://www.w3.org/2000/svg" xmlns:xlink="http://www.w3.org/1999/xlink">
    <!-- Generator: Sketch 48.2 (47327) - http://www.bohemiancoding.com/sketch -->
    <title>Page 1</title>
    <desc>Created with Sketch.</desc>
    <defs></defs>
    <g id="Page-1" stroke="none" stroke-width="1" fill="none" fill-rule="evenodd">
        <path d="M70.6170038,0.5945 C60.2970038,0.5945 53.7810038,5.6179 50.0000038,10.1609 C46.2188038,5.6179 39.7030038,0.5945 29.3790038,0.5945 C11.8050038,0.5945 0,16.8755 0,32.0785 C0,54.2155 42.5200038,83.8795 47.3670038,87.1875 C48.1599738,87.72656 49.0818038,88 49.9998038,88 C50.9216838,88 51.8396038,87.73047 52.6326038,87.1875 C57.4803038,83.8789 99.9996038,54.2145 99.9996038,32.0785 C99.9996038,16.8755 88.1906038,0.5945 70.6166038,0.5945 L70.6170038,0.5945 Z M49.9960038,77.6375 C33.2540038,65.7275 9.34399981,44.4145 9.34399981,32.0785 C9.34399981,22.7973 16.3088038,9.9375 29.3790038,9.9375 C41.2700038,9.9375 45.4690038,20.2075 45.6330038,20.6135 C46.3165938,22.4182 48.0432038,23.5979 49.9728038,23.6135 L50.0040538,23.6135 C51.9220538,23.6135 53.6485538,22.426 54.3556538,20.6447 C54.5275338,20.2072 58.7267538,9.9377 70.6176438,9.9377 C83.6916538,9.9377 90.6566438,22.7967 90.6566438,32.0787 C90.6566438,44.3987 66.7426438,65.7197 49.9966438,77.6377 L49.9960038,77.6375 Z" fill="#FFFFFF"></path>
    </g>
</svg>