<?xml version="1.0" encoding="UTF-8"?>
<svg width="19px" height="19px" viewBox="0 0 19 19" version="1.1" xmlns="http://www.w3.org/2000/svg" xmlns:xlink="http://www.w3.org/1999/xlink">
    <!-- Generator: Sketch 48.2 (47327) - http://www.bohemiancoding.com/sketch -->
    <title>Instagram</title>
    <desc>Created with Sketch.</desc>
    <defs></defs>
    <g id="Page-6" stroke="none" stroke-width="1" fill="none" fill-rule="evenodd">
        <path d="M16.7415378,0 L2.25846221,0 C1.01107383,0 0,1.00848267 0,2.25327987 L0,16.7467201 C0,17.9909991 1.01107383,19 2.25846221,19 L16.7415378,19 C17.9889262,19 19,17.9909991 19,16.7467201 L19,2.25327987 C19,1.00848267 17.9889262,0 16.7415378,0 L16.7415378,0 Z M13.6564929,2.9684423 C13.6564929,2.64091864 13.9223468,2.37506478 14.2498704,2.37506478 L16.0310395,2.37506478 C16.3590814,2.37506478 16.6249352,2.64091864 16.6249352,2.9684423 L16.6249352,4.75012956 C16.6249352,5.07765322 16.3590814,5.34350708 16.0310395,5.34350708 L14.2498704,5.34350708 C13.9223468,5.34350708 13.6564929,5.07765322 13.6564929,4.75012956 L13.6564929,2.9684423 L13.6564929,2.9684423 Z M9.52202493,5.8767695 C11.5400267,5.8767695 13.1760903,7.50920547 13.1760903,9.52202493 C13.1760903,11.5353626 11.5400267,13.1672804 9.52202493,13.1672804 C7.50454136,13.1672804 5.86847776,11.5353626 5.86847776,9.52202493 C5.86847776,7.50920547 7.50454136,5.8767695 9.52202493,5.8767695 L9.52202493,5.8767695 Z M17.218831,16.6249352 C17.218831,16.9524589 16.9529771,17.218831 16.6249352,17.218831 L2.37506478,17.218831 C2.04702288,17.218831 1.78116903,16.9524589 1.78116903,16.6249352 L1.78116903,7.71857186 L4.15623381,7.71857186 C3.84684832,8.16373456 3.74216513,8.99446308 3.74216513,9.52202493 C3.74216513,12.7013883 6.33540627,15.2884107 9.52202493,15.2884107 C12.7091618,15.2884107 15.302403,12.7013883 15.302403,9.52202493 C15.302403,8.99446308 15.2272591,8.1766904 14.8437662,7.71857186 L17.218831,7.71857186 L17.218831,16.6249352 L17.218831,16.6249352 Z" id="Instagram" fill="#3FA2F7"></path>
    </g>
</svg>