<?xml version="1.0" encoding="utf-8"?>
<!-- Generator: Adobe Illustrator 18.0.0, SVG Export Plug-In . SVG Version: 6.00 Build 0)  -->
<svg version="1.2" baseProfile="tiny" id="Group_1_1_"
	 xmlns="http://www.w3.org/2000/svg" xmlns:xlink="http://www.w3.org/1999/xlink" x="0px" y="0px" viewBox="0 0 1920 1920"
	 xml:space="preserve">
<g id="Layer_6_xA0_Image_1_">
	<path fill="#313A53" d="M183.2,952.4c34.6-39.1,72.2-72.8,116.9-97.8c39.4-22.2,81.2-38.8,125.7-46.9c50-9,99.8-9.8,150.4-1.7
		c61.6,10.1,117.2,32.9,168.4,67.7c38.8,26.4,72.8,57.6,99.5,96.7c5.3,8.2,10.4,11.2,20.8,4.8c23.6-14.6,50-20.8,77.9-23.1
		c43.3-3.4,83.5,3.1,120.3,26.7c7.3,4.8,10.1-3.7,12.7-7c12.7-17.7,26.1-34.6,41.9-49.8c58.2-57.1,127.1-94.5,206.3-113.3
		c44.1-10.4,88.8-11.8,133-7.3c83.2,8.4,158.3,39.6,223.2,93.9c19.1,15.7,34.9,35.1,56.2,52.8c-9-20.8-16.6-39.1-24.7-57.1
		c-33.7-75.1-67.5-150.1-101.5-225.2c-18.8-41.3-37.9-82.6-56.5-124.3c-19.7-43.6-39.4-86.9-57.9-131c-5.6-13.5-15.7-15.7-27.3-18
		c-36-6.7-72-12.6-107.7-20c-20.5-4.2-34.3-28.7-30.6-53.4c2.5-18,23.3-34.6,41.3-33.7c25,1.4,48.9,7.9,73.1,12.1
		c27.3,4.5,54.3,11.8,81.8,16.3c18.6,3.1,29.2,14.6,36.3,29.8c20.5,44.7,39.9,89.7,59.9,134.7c30.1,67.7,60.2,135.5,90.5,203
		c17.4,38.5,35.1,77,52.6,115.5c27.8,62.1,55.7,124.5,83.5,186.9c21.6,48.6,43,97.3,64.7,145.9c2,4.2,1.1,8.2,1.1,12.4
		c0,35.1,0,70.3,0,105.4c0,16.3-7.6,24.7-23.9,25.3c-17.7,0.6-35.7,1.1-53.4-0.3c-7.9-0.6-9.3,2.2-9.8,7.9
		c-8.4,74.2-38.5,139.7-83.5,197.6c-48.6,62.4-111.3,107.1-185.8,135.5c-59.9,22.8-122,29.8-184.7,24.2
		c-79.6-7.3-151.8-36.3-215.6-85.5c-50.9-39.1-90.5-87.4-119.5-144.2c-20.8-40.5-35.1-83.8-39.9-129.6c-2.5-21.9-6.2-44.1-5.3-66.3
		c2.5-55.7,12.4-109.6,36.3-160.8c3.9-8.7,5.9-18,12.4-25.6c4.5-5.3-1.4-6.2-4.5-8.7c-16.9-13.5-37.7-16.9-57.6-18.8
		c-31.2-3.4-62.7-0.3-90.8,16.3c-6.7,3.9-12.1,6.2-6.2,17.4c20.5,39.4,33.7,81.2,39.9,125.4c3.4,23.9,6.7,47.8,5.3,71.7
		c-3.7,56.2-13.8,111-37.9,163c-23.1,49.5-53.1,93.3-92.2,130.4c-58.2,55.1-126.5,91.4-205.8,108.2c-41,8.7-82.4,9.8-123.1,7
		c-46.4-3.1-91.1-16-133.8-35.7c-54-24.7-100.6-59-140-102.9c-36-39.9-63.8-85.5-81.8-136.6c-9.3-26.1-17.4-52.8-20-80.7
		c-0.6-6.5-2.8-10.1-12.4-9.8c-19.7,0.6-39.9,3.4-59.6-1.7c-10.7-2.8-15.2-8.7-14.9-19.7c0.3-36.5,0.6-73.1,0-109.6
		c-0.3-12.4,6.7-21.6,11-32c30.1-71.1,60.7-142,91.9-212.8c26.4-59.9,53.4-119.5,79.8-179.3c33.5-75.6,66.1-151.5,99.5-227.4
		c19.7-45,40.5-89.4,60.2-134.4c6.2-14.3,11.5-29,26.4-36.8c11.8-6.5,25.6-6.5,38.2-9.3c37.4-8.2,75.1-14.9,112.7-22.5
		c26.7-5.3,47.8,4.2,57.3,27c10.7,25.6-6.2,55.4-32.9,60.2c-39.6,7-78.7,14.9-118.3,22.2c-5.3,0.8-6.5,4.8-8.2,8.4
		c-19.4,44.1-38.5,88.3-57.9,132.4c-14.9,33.7-29.8,67.2-44.7,100.9c-26.7,60.2-53.7,120.3-80.4,180.8
		c-19.1,42.7-37.9,85.5-57.1,128.5C182.9,947.9,183.2,949.3,183.2,952.4z"/>
	<path fill="#FEFEFE" d="M1743.3,1219.7c0.6,186.7-148.4,330.6-328.6,330.9c-181.6,0.3-339.6-143.4-331.4-346.9
		c6.7-170.4,143.9-315.1,332.8-314.8C1595.2,889.4,1743.9,1033.1,1743.3,1219.7z"/>
	<path fill="#FEFEFE" d="M177.6,1219.2c-0.6-185.3,147.9-331.7,332.6-330.3c177.9,1.4,334,142.2,327.5,344.1
		c-5.6,172.9-142.5,317.1-331.1,317.7C326,1550.9,176.7,1406.1,177.6,1219.2z"/>
	<path fill="#F986AD" d="M1829.4,1164.3c0.8-0.3,1.7-0.6,2.8-0.6c37.7-1.7,37.7-1.7,37.7,35.7c0,27.8,0,27.5-27.8,26.1
		c-6.7-0.3-9.3-2.5-8.7-9C1835,1198.9,1830.8,1181.8,1829.4,1164.3z"/>
	<path fill="#F986AD" d="M51.1,1195c0-1.4,0-2.8,0-4.2c0-27.8,0-27.3,28.1-27.5c9.6,0,13.2,3.4,11,12.1c-3.4,14.3-2.5,28.7-2.5,43
		c0,5.6-2.2,7.6-7.6,7c-0.6,0-0.8,0-1.4,0C51.1,1227,51.1,1227,51.1,1195z"/>
	<path fill="#8DC3E0" d="M1678.7,1217.2c0.3,15.2-11.8,29.8-23.6,30.4c-12.6,0.3-23.6-12.1-24.2-27.3c-1.7-58.8-29.5-102-78.7-132.7
		c-3.9-2.5-7.9-4.8-11.5-7.6c-11.2-8.7-14.1-20.2-7.3-30.6c7.3-11.2,18.6-14.3,30.9-7.6c59.9,31.5,97,80.7,111,147
		C1677.3,1198.6,1675.3,1209.3,1678.7,1217.2z"/>
	<path fill="#8DC3E0" d="M619.5,1034.2c20.5,3.7,42.4,14.1,63.8,26.7c26.7,15.7,48.4,37.7,65.2,63c18.6,27.8,28.7,59.9,32.9,93.3
		c2.5,20.8-11.8,35.4-30.1,32c-11.2-2-19.4-12.1-20-24.7c-2.2-47.8-24.2-85.5-61-114.4c-18-14.1-38.5-25-61.3-30.4
		c-8.2-2-14.9-5.9-17.7-14.1C584.9,1048.2,595.6,1034.2,619.5,1034.2z"/>
</g>
<g id="Layer_5_xA0_Image_1_">
</g>
</svg>
