<?xml version="1.0" encoding="utf-8"?>
<!-- Generator: Adobe Illustrator 18.0.0, SVG Export Plug-In . SVG Version: 6.00 Build 0)  -->
<svg version="1.2" baseProfile="tiny" id="Group_1_1_"
	 xmlns="http://www.w3.org/2000/svg" xmlns:xlink="http://www.w3.org/1999/xlink" x="0px" y="0px" viewBox="0 0 1920 1920"
	 xml:space="preserve">
<path fill="#313A53" d="M15.9,1359c-2.4-126.6,46.2-235.3,137.9-326.1c105.5-104.4,210.3-209.7,316.8-313.1
	c66.2-64.3,146.3-103,237.9-116.4c154.7-22.5,288.2,20.4,399.7,130.5c35.7,35.2,71.1,70.7,106.3,106.4
	c26.9,27.4,15.1,68.2-22.2,77.4c-16.2,4-29.6-2.3-41.1-13.7c-36.5-36.5-72.9-73.2-109.6-109.4c-73.3-72.3-162.5-108.6-264.5-107.8
	c-95.1,0.8-180.8,32.9-249.6,100.3c-108.8,106.7-216.4,214.6-323.4,323.2c-53.3,54.1-84.9,120.3-96.1,195.3
	c-17.4,116.4,13.6,219.5,92.6,306.2c41.3,45.2,83.4,90.2,133.5,126.6c48.5,35.2,102.9,55.2,161.6,62.6
	c121.4,15.3,225.9-21.2,312.8-107.1c76.5-75.7,152.3-152.2,228.5-228.3c14.6-14.5,32-19,46.5-12.5c16.1,7.1,27.6,26,26.7,43.7
	c-0.5,10.2-4.4,19.4-11.5,26.4c-89.1,88.1-173.5,181.4-267.7,263.9c-75.1,65.7-165.2,99.2-266.3,103c-77.7,2.9-151.3-9.6-221.1-44.4
	c-35.7-17.8-69.7-38.1-98.8-65.4c-43.7-41-87.7-82-126.4-127.9c-54.6-64.8-88.7-139.2-99.6-224.1C16.1,1406.5,18,1384.6,15.9,1359z"
	/>
<path fill="#8DC3E0" d="M1383.5,1.6c95.6-4.6,183.7,29,264.2,85.8c40.9,28.8,71.8,68.1,105.3,104.5c27.2,29.6,56.5,57.4,77.5,92.1
	c34.7,57.3,60,117.7,68.9,185.2c16.7,127.4-14.2,241.3-91,343.3c-9.4,12.5-20.2,24.1-31.3,35.2c-96.2,96.4-191.8,193.5-289.3,288.5
	c-63.3,61.6-140.1,99.5-227.6,113.4c-99.1,15.7-195,5.9-285.5-40.6c-40.4-20.8-77.4-46.3-109.9-78.1c-39-38.2-77.5-76.9-115.8-115.7
	c-25.1-25.5-19.2-61.7,11.7-75.6c17.1-7.7,37.7-3.4,52.6,11.3c38,37.8,75.6,76,113.8,113.5c57.5,56.4,126.9,89.5,206.6,99.4
	c111,13.8,209.2-16,293.6-89.9c35.9-31.4,68.3-66.5,102.2-100c63.4-62.5,126.3-125.5,189.1-188.4c56.7-56.7,89.5-126,99.9-204.7
	c12.9-98-7.5-189.9-69.2-268.2c-54.2-68.6-114.3-132.2-190.5-177.9c-37.1-22.3-78.2-33.8-120.1-41.1c-80.7-14-157.6,0.5-230.2,37.9
	c-32.4,16.7-61.4,38.5-87.2,64.4c-64.2,64.4-128.6,128.7-193,193c-18.6,18.5-36.5,21.8-56.9,10.9c-26.3-14-33.4-49-12.3-70.1
	c76.6-76.3,149.8-156.3,231.1-227.7c60.4-53,133.1-83.1,212.3-97.2C1327.8,0.3,1353.4,2,1383.5,1.6z"/>
</svg>
