<?xml version="1.0" encoding="UTF-8"?>
<svg width="592px" height="813px" viewBox="0 0 592 813" version="1.1" xmlns="http://www.w3.org/2000/svg" xmlns:xlink="http://www.w3.org/1999/xlink">
    <!-- Generator: Sketch 48.2 (47327) - http://www.bohemiancoding.com/sketch -->
    <title>Page 1</title>
    <desc>Created with Sketch.</desc>
    <defs></defs>
    <g id="Page-1" stroke="none" stroke-width="1" fill="none" fill-rule="evenodd">
        <g fill="#FFFFFF" id="Fill-1">
            <path d="M290.7452,812.0523 C243.0882,813.2533 203.6582,802.0833 165.3202,788.6403 C108.7362,768.8003 69.0092,733.0893 22.9162,693.8823 C16.0242,688.0203 16.7732,689.0413 10.0082,683.0313 C4.0682,677.7543 2.8302,663.3303 9.7482,655.7043 C10.8472,654.4923 12.0272,653.3573 13.1682,652.1863 C49.7062,614.7083 61.4612,596.7523 97.7422,559.0133 C104.3952,552.0933 117.6002,553.3703 124.4072,559.7703 C152.5562,586.2343 175.0862,604.4263 208.2222,621.4023 C239.2102,637.2773 272.2042,647.5463 307.3632,643.9903 C340.9192,640.5963 372.7912,631.4723 397.4502,605.5533 C426.6542,574.8573 422.5542,533.1813 388.2792,507.9743 C364.4842,490.4733 336.9852,484.6213 309.4062,479.5123 C274.0872,472.9703 239.8232,463.3603 206.0262,450.9993 C182.8202,442.5123 159.6142,433.9013 137.5502,422.9753 C93.6462,401.2363 52.3652,375.2663 25.7342,331.2303 C13.1472,310.4183 4.7452,287.9113 2.1142,263.1963 C-2.2998,221.7443 -0.7298,181.1493 15.8202,142.2663 C28.2982,112.9513 46.0272,87.9273 69.5952,66.5283 C89.7882,48.1933 112.1702,33.7253 135.9612,21.7013 C153.9582,12.6053 173.8032,7.6063 193.6992,4.3883 C211.4012,1.5243 229.2842,0.1933 247.3102,0.0153 C296.4152,-0.4707 343.1642,10.3463 388.3222,29.3233 C431.6932,47.5483 469.6302,74.8363 506.0282,104.5603 C515.2932,112.1263 524.0302,120.3693 533.0782,128.2183 C537.2272,131.8173 537.6912,134.8183 534.1812,139.8533 C518.0422,163.0083 497.3632,180.8373 473.8842,195.4713 C441.3662,215.7403 405.9542,226.8233 368.1682,230.9593 C342.4742,233.7723 316.9932,233.9583 291.5572,229.0873 C287.9372,228.3943 281.6962,230.2283 283.6162,222.9163 C285.1672,217.0123 285.7322,208.7313 295.3072,210.9533 C309.6582,214.2833 324.1912,213.0593 338.6052,212.7353 C388.3142,211.6203 431.0192,193.7773 464.4092,155.0833 C468.8122,149.9803 472.3392,144.0663 475.8812,138.1733 C480.4232,130.6193 477.8732,126.1233 472.2492,121.5033 C445.5652,99.5843 416.1152,82.7233 384.4692,69.5143 C363.6742,60.8333 342.3122,53.9853 320.4822,49.3863 C287.0692,42.3463 253.9792,43.1373 224.2742,63.4233 C202.6542,78.1893 191.3062,98.7863 194.0722,126.2623 C194.9742,135.2143 198.1082,137.4623 206.7732,134.9113 C228.1822,128.6093 248.8922,119.6883 271.1782,116.6683 C303.1342,112.3373 335.0892,110.8893 366.8692,117.9313 C369.9102,118.6053 375.3482,118.6123 374.1552,124.8923 C373.1802,130.0223 370.2002,131.5153 365.2062,131.4683 C335.3522,131.1843 305.6312,132.8293 276.7332,141.3203 C248.4332,149.6343 222.3972,162.7793 199.8362,182.3553 C168.1542,209.8453 162.6692,263.7903 207.7862,294.6713 C233.9232,312.5603 263.3582,321.2753 292.7582,329.8973 C346.1652,345.5603 400.3142,358.7993 451.9222,380.2293 C487.1142,394.8423 520.6352,412.8123 547.5512,441.2933 C571.2142,466.3333 585.5482,495.8773 589.5862,530.8203 C593.8382,567.6133 591.8232,603.7193 579.6882,638.7163 C571.0732,663.5613 558.6742,686.3043 541.5762,706.3943 C505.2922,749.0253 463.3302,779.0223 411.7442,795.2363 C386.2952,803.2353 355.2522,808.3653 328.6972,810.6153 C310.1342,812.1413 298.5202,811.7693 290.7452,812.0523"></path>
        </g>
    </g>
</svg>