<?xml version="1.0" encoding="UTF-8"?>
<svg width="148px" height="141px" viewBox="0 0 148 141" version="1.1" xmlns="http://www.w3.org/2000/svg" xmlns:xlink="http://www.w3.org/1999/xlink">
    <!-- Generator: Sketch 48.2 (47327) - http://www.bohemiancoding.com/sketch -->
    <title>Page 1</title>
    <desc>Created with Sketch.</desc>
    <defs></defs>
    <g id="Page-1" stroke="none" stroke-width="1" fill="none" fill-rule="evenodd">
        <g>
            <path d="M130.396429,0.941071429 L17.8125,0.941071429 C8.25607143,0.941071429 0.478571429,8.71875 0.478571429,18.275 L0.478571429,123.080357 C0.478571429,132.636786 8.25625,140.414286 17.8125,140.414286 L130.396429,140.414286 C139.952857,140.414286 147.730357,132.636607 147.730357,123.080357 L147.730357,18.275 C147.730357,8.71160714 139.952679,0.941071429 130.396429,0.941071429 Z M140.294643,123.075 C140.294643,128.529821 135.85125,132.973214 130.396429,132.973214 L17.8125,132.980179 C12.3576786,132.980179 7.91428571,128.536786 7.91428571,123.081964 L7.90730357,44.2248214 L140.294804,44.2248214 L140.294643,123.075 Z M140.294643,36.7821429 L7.90714286,36.7821429 L7.90714286,18.2767857 C7.90714286,12.8219643 12.3505357,8.37857143 17.8053571,8.37857143 L130.389286,8.37857143 C135.844107,8.37857143 140.2875,12.8219643 140.2875,18.2767857 L140.294643,36.7821429 Z" id="Fill-1" fill="#2F3A55"></path>
            <polygon id="Fill-2" fill="#ED6A5E" points="19.2714286 27.3644643 30.0973214 27.3644643 30.0973214 19.9285714 19.2714286 19.9285714"></polygon>
            <polygon id="Fill-3" fill="#F6BF4F" points="36.7785714 27.3644643 47.6044643 27.3644643 47.6044643 19.9285714 36.7785714 19.9285714"></polygon>
            <polygon id="Fill-4" fill="#62C554" points="54.2875 27.3644643 65.1133929 27.3644643 65.1133929 19.9285714 54.2875 19.9285714"></polygon>
            <path d="M22.6464286,112.610714 L53.8821429,112.610714 C55.9328571,112.610714 57.6,110.943589 57.6,108.892857 L57.6,67.1660714 C57.6,65.1153571 55.932875,63.4482143 53.8821429,63.4482143 L22.6464286,63.4482143 C20.5957143,63.4482143 18.9285714,65.1153393 18.9285714,67.1660714 L18.9285714,108.892857 C18.9285714,110.943571 20.5887321,112.610714 22.6464286,112.610714 Z M26.3642857,70.8839286 L50.1642857,70.8839286 L50.1642857,105.174982 L26.3642857,105.174982 L26.3642857,70.8839286 Z" id="Fill-5" fill="#7EC4E3"></path>
            <polygon id="Fill-6" fill="#7EC4E3" points="65.8589286 74.3930357 100.15 74.3930357 100.15 66.9571429 65.8589286 66.9571429"></polygon>
            <polygon id="Fill-7" fill="#7EC4E3" points="65.8589286 91.7483929 124.941071 91.7483929 124.941071 84.3125 65.8589286 84.3125"></polygon>
            <polygon id="Fill-8" fill="#7EC4E3" points="65.8589286 109.096607 124.941071 109.096607 124.941071 101.660714 65.8589286 101.660714"></polygon>
        </g>
    </g>
</svg>