<?xml version="1.0" encoding="UTF-8"?>
<svg width="71px" height="100px" viewBox="0 0 71 100" version="1.1" xmlns="http://www.w3.org/2000/svg" xmlns:xlink="http://www.w3.org/1999/xlink">
    <!-- Generator: Sketch 48.2 (47327) - http://www.bohemiancoding.com/sketch -->
    <title>Page 1</title>
    <desc>Created with Sketch.</desc>
    <defs></defs>
    <g id="Desktop-HD" stroke="none" stroke-width="1" fill="none" fill-rule="evenodd" transform="translate(-456.000000, -764.000000)">
        <g id="Page-1" transform="translate(456.000000, 764.000000)">
            <path d="M69.1366667,64.74 C72.292,56.4977778 70.7295556,47.1311111 67.47,39.9222222 L66.0507778,36.7755556 L61.6366667,41.9882222 C61.0941333,35.3085556 58.0646667,28.3771111 52.7868889,21.9193333 C46.6584444,14.415 38.538,8.51711111 30.6857778,2.81377778 L26.8185556,0.00133333333 L27.2352222,4.767 C27.8819222,12.2062222 23.6978889,18.7247778 19.2621111,25.6258889 C16.9531111,29.224 14.6006667,32.8827778 12.8992222,36.7714444 C12.9426222,35.5257778 13.0511333,34.215 13.2073778,32.7871111 L14.0884556,24.7185556 L9.27945556,31.2593333 C2.10934444,41.0162222 -0.811655556,50.3093333 0.603233333,58.8804444 C1.04594444,61.5801111 2.10934444,64.3187778 3.65878889,66.8795556 C3.65444444,66.7319889 3.63708889,66.5887556 3.63708889,66.4411889 C3.63708889,63.9541889 4.17094444,61.5540778 5.15186667,59.3491889 C5.05637778,58.9542222 4.97391111,58.5636 4.90881111,58.1686333 C3.87582222,51.9143 5.85498889,45.6908556 8.6197,40.4475222 C8.83671111,42.9909667 9.41396667,45.5343 10.5163667,48.4639667 L11.7490333,51.7235222 C12.6952111,51.1245667 13.6891444,50.6210889 14.7264778,50.2130778 L14.7438333,47.7044111 C14.7872444,40.6645222 18.7456111,34.5010778 22.9339444,27.9777444 C26.7793889,21.9881889 30.7333889,15.8333 31.5233889,8.81107778 C38.0425,13.5984111 44.4967222,18.6505222 49.4145,24.6699667 C55.6601667,32.3131889 58.3641667,40.5555222 57.0360556,47.8733 L56.7018556,49.7223 C57.7608778,50.0304556 58.7895222,50.4427889 59.7704111,50.9506333 L64.7964111,45.0130778 C66.0464111,48.7500778 66.7235222,52.8906333 66.4109667,56.9486333 C67.9257444,59.2880778 68.8675222,61.9399667 69.1366333,64.7394111 L69.1366667,64.74 Z" id="Fill-1" fill="#F7CA5D"></path>
            <path d="M61.0288889,57.2222222 C58.5635556,54.7568889 55.291,53.4027778 51.8057778,53.4027778 C48.3205556,53.4027778 45.048,54.7613333 42.5826667,57.2222222 L36.4281111,63.3767778 L30.2735556,57.2222222 C27.8082222,54.7568889 24.5356667,53.4027778 21.0504444,53.4027778 C17.5652222,53.4027778 14.2926667,54.7613333 11.8273333,57.2222222 C6.74055556,62.309 6.74055556,70.5811111 11.8273333,75.6688889 L36.1628889,100 L36.4276444,99.7352444 L36.6924,100 L61.0235111,75.6644444 C66.1102889,70.582 66.1102889,62.3055556 61.0278556,57.2222222 L61.0288889,57.2222222 Z" id="Fill-2" fill="#ED6A5E"></path>
        </g>
    </g>
</svg>