<?xml version="1.0" encoding="UTF-8"?>
<svg width="2000px" height="2000px" viewBox="0 0 2000 2000" version="1.1" xmlns="http://www.w3.org/2000/svg" xmlns:xlink="http://www.w3.org/1999/xlink">
    <!-- Generator: Sketch 48.2 (47327) - http://www.bohemiancoding.com/sketch -->
    <title>seo</title>
    <desc>Created with Sketch.</desc>
    <defs></defs>
    <g id="Page-6" stroke="none" stroke-width="1" fill="none" fill-rule="evenodd">
        <g id="ppc" transform="translate(111.000000, 48.000000)" fill-rule="nonzero">
            <path d="M1347.3,1130.9 C1348,1164 1343.1,1199.1 1329.1,1232.5 C1296.4,1310.9 1220.5,1351.4 1133.3,1338.1 C1098.5,1332.8 1065.7,1320.1 1031.3,1312.9 C957.1,1297.3 889.1,1309.2 826,1351.6 C770.7,1388.8 720.4,1432.3 667.4,1472.3 C659.6,1478.2 663.1,1482.3 666.4,1487.8 C690.8,1528.6 710.7,1571.2 719.2,1618.5 C719.5,1620.1 720.3,1621.6 720.2,1623.2 C717.3,1656.1 735.7,1676.8 759.2,1696.4 C791.8,1723.7 822.6,1753.2 853.7,1782.2 C869.8,1797.2 869.3,1804.8 852.6,1818.2 C817,1846.9 781,1875.1 745.6,1904.1 C733.4,1914.1 723.8,1913.5 712.4,1902.6 C626.2,1821 539.6,1740 453.5,1658.3 C445.1,1650.3 438.4,1648.8 427.1,1652 C386.1,1663.6 349.5,1652.5 316.5,1627.1 C310.7,1622.7 306.1,1617.8 296.8,1620.3 C219.9,1640.6 154.9,1617.2 100.5,1562.7 C45.6,1507.7 12.9,1440.6 2,1363.4 C-3,1327.6 5.6,1294.7 26.6,1265.4 C31.9,1257.9 32.4,1252.2 27.8,1244.2 C-7.4,1183 7.9,1113.4 63.5,1071.6 C168.5,992.8 269.3,908 377.4,833.5 C475.7,765.8 521.1,674.9 519.7,557.7 C519.3,525.2 522.8,492.8 533.5,461.9 C565.1,371 650.4,324.7 747,344.4 C820.7,359.4 884.9,394.2 942.8,439.9 C1125.9,584.4 1254.9,767.2 1325.8,990 C1340.1,1034.5 1347.7,1080.8 1347.3,1130.9 Z" id="Shape" fill="#324F75"></path>
            <path d="M1394.2,605.3 C1359,605.3 1331.8,586 1321.4,555.5 C1311.2,525.8 1320.4,491.7 1347,473 C1399.6,436.1 1452.5,399.5 1506.8,365.2 C1553.3,335.8 1608.6,361.4 1619.4,415.3 C1626,448 1611.1,472.8 1585.7,490.6 C1536.6,525.1 1486.5,558.2 1436.6,591.5 C1423.2,600.5 1408.7,607.2 1394.2,605.3 Z" id="Shape" fill="#007991"></path>
            <path d="M1248.4,74.5 C1249.1,86.4 1246.7,97.6 1241.1,108.3 C1212.2,163.3 1184.1,218.7 1154.8,273.5 C1135,310.6 1090.7,324.3 1055.1,305.5 C1017.9,285.8 1003.8,242.8 1023.2,204.6 C1050.6,150.6 1078.8,97.1 1107.1,43.5 C1124,11.3 1150.8,-3.7 1187.1,1.2 C1216.1,5.1 1234.7,22.5 1245.2,49.4 C1248.4,57.6 1248.2,66 1248.4,74.5 Z" id="Shape" fill="#007991"></path>
            <path d="M1698.2,841 C1741.6,840.6 1775.4,869.1 1778.1,906.1 C1781.3,949.7 1756.3,982.9 1713.7,988.1 C1661.6,994.4 1609.3,998.9 1557.1,1004.1 C1545,1005.3 1532.8,1007 1520.7,1007.2 C1481.6,1007.6 1448,977.9 1445.6,941.4 C1442.8,898.7 1468.1,865.3 1509.4,860.3 C1561.5,854 1613.8,849.3 1666,844.4 C1677.7,843.2 1689.1,839.3 1698.2,841 Z" id="Shape" fill="#007991"></path>
            <path d="M659.5,554 C659.4,537.5 659.7,521 665.7,505.3 C672.8,486.5 681.5,480 701.4,479.7 C733.9,479.1 762.6,491.9 790.4,506.7 C864.2,545.9 925.3,601 980.5,662.9 C1063.6,756 1130.7,859.5 1175.7,976.4 C1194.5,1025.2 1208.3,1075.2 1209.5,1128 C1209.8,1141.9 1208.7,1155.7 1205,1169.1 C1198,1194.7 1184.2,1203.9 1157.8,1200.9 C1130.5,1197.8 1105.3,1187.9 1081.2,1175.2 C1012.6,1139.1 954.6,1089.2 902.4,1032.7 C817.2,940.7 748,838.1 699.5,722 C675.2,663.7 660,600.1 659.5,554 Z" id="Shape" fill="#FEFEFE"></path>
            <path d="M981.3,1023.2 C942.9,985 910.4,944.5 879.9,902.4 C843.4,852 811.4,798.9 784,742.9 C777.1,728.8 783,725.9 794.5,723.5 C843.2,713.3 887.4,724.7 927.1,753.3 C971.6,785.3 1004.2,826.1 1012.7,882.3 C1020.3,932.4 1004.9,977.5 981.3,1023.2 Z" id="Shape" fill="#007991"></path>
        </g>
    </g>
</svg>