<?xml version="1.0" encoding="UTF-8"?>
<svg width="1200px" height="400px" viewBox="0 0 1200 400" version="1.1" xmlns="http://www.w3.org/2000/svg" xmlns:xlink="http://www.w3.org/1999/xlink">
    <!-- Generator: Sketch 48.2 (47327) - http://www.bohemiancoding.com/sketch -->
    <title>Rectangle</title>
    <desc>Created with Sketch.</desc>
    <defs></defs>
    <g id="Graphics" stroke="none" stroke-width="1" fill="none" fill-rule="evenodd">
        <g id="Horizontal" transform="translate(225.000000, 285.000000)"></g>
        <g id="Hexagons" transform="translate(652.500000, 89.000000) scale(1, -1) translate(-652.500000, -89.000000) translate(293.000000, -110.000000)">
            <path d="M114.7256,67.2 L90.9286,67.2 C86.327,67.2 81.9286,64.7 79.6276,60.7 L67.7256,40.102 C65.4248,36.102 65.4248,31.102 67.7256,27.102 L79.6236,6.5 C81.9244,2.5 86.2252,0 90.9246,0 L114.7256,0 C119.3272,0 123.7256,2.5 126.0266,6.5 L137.9286,27 C140.2294,31 140.2294,36 137.9286,40 L126.0266,60.699 C123.7258,64.699 119.4289,67.199 114.7256,67.199 L114.7256,67.2 Z M90.9286,1.89899 C87.0302,1.89899 83.327,4.00059 81.327,7.39899 L69.429,28.00099 C67.429,31.39939 67.429,35.60259 69.429,39.00099 L81.327,59.60299 C83.327,63.00139 86.9286,65.10299 90.9286,65.10299 L114.7296,65.10299 C118.628,65.10299 122.3312,63.00139 124.3312,59.60299 L136.2292,39.00099 C138.2292,35.60259 138.2292,31.39939 136.2292,28.00099 L124.3272,7.39899 C122.3272,4.00059 118.7256,1.89899 114.7256,1.89899 L90.9286,1.89899 Z" id="Hexagon" fill="#FFFFFF"></path>
            <g id="Horizontal" transform="translate(0.000000, 32.000000)" stroke="#FFFFFF" stroke-linecap="round" stroke-width="2">
                <path d="M46,1.5 L66.5,1.5" id="Line"></path>
                <path d="M35,1.5 L40.5,1.5" id="Line"></path>
                <path d="M24,1.5 L29.5,1.5" id="Line"></path>
                <path d="M0,1.5 L18.5,1.5" id="Line"></path>
            </g>
            <path d="M433.7256,253.2 L409.9286,253.2 C405.327,253.2 400.9286,250.7 398.6276,246.7 L386.7256,226.102 C384.4248,222.102 384.4248,217.102 386.7256,213.102 L398.6236,192.5 C400.9244,188.5 405.2252,186 409.9246,186 L433.7256,186 C438.3272,186 442.7256,188.5 445.0266,192.5 L456.9286,213 C459.2294,217 459.2294,222 456.9286,226 L445.0266,246.699 C442.7258,250.699 438.4289,253.199 433.7256,253.199 L433.7256,253.2 Z M409.9286,187.89899 C406.0302,187.89899 402.327,190.00059 400.327,193.39899 L388.429,214.00099 C386.429,217.39939 386.429,221.60259 388.429,225.00099 L400.327,245.60299 C402.327,249.00139 405.9286,251.10299 409.9286,251.10299 L433.7296,251.10299 C437.628,251.10299 441.3312,249.00139 443.3312,245.60299 L455.2292,225.00099 C457.2292,221.60259 457.2292,217.39939 455.2292,214.00099 L443.3272,193.39899 C441.3272,190.00059 437.7256,187.89899 433.7256,187.89899 L409.9286,187.89899 Z" id="Hexagon" fill="#FFFFFF"></path>
            <g id="Horizontal" transform="translate(319.000000, 218.000000)" stroke="#FFFFFF" stroke-linecap="round" stroke-width="2">
                <path d="M46,1.5 L66.5,1.5" id="Line"></path>
                <path d="M35,1.5 L40.5,1.5" id="Line"></path>
                <path d="M24,1.5 L29.5,1.5" id="Line"></path>
                <path d="M0,1.5 L18.5,1.5" id="Line"></path>
            </g>
            <path d="M573.7256,251.2 L549.9286,251.2 C545.327,251.2 540.9286,248.7 538.6276,244.7 L526.7256,224.102 C524.4248,220.102 524.4248,215.102 526.7256,211.102 L538.6236,190.5 C540.9244,186.5 545.2252,184 549.9246,184 L573.7256,184 C578.3272,184 582.7256,186.5 585.0266,190.5 L596.9286,211 C599.2294,215 599.2294,220 596.9286,224 L585.0266,244.699 C582.7258,248.699 578.4289,251.199 573.7256,251.199 L573.7256,251.2 Z M549.9286,185.89899 C546.0302,185.89899 542.327,188.00059 540.327,191.39899 L528.429,212.00099 C526.429,215.39939 526.429,219.60259 528.429,223.00099 L540.327,243.60299 C542.327,247.00139 545.9286,249.10299 549.9286,249.10299 L573.7296,249.10299 C577.628,249.10299 581.3312,247.00139 583.3312,243.60299 L595.2292,223.00099 C597.2292,219.60259 597.2292,215.39939 595.2292,212.00099 L583.3272,191.39899 C581.3272,188.00059 577.7256,185.89899 573.7256,185.89899 L549.9286,185.89899 Z" id="Hexagon" fill="#FFFFFF"></path>
            <path d="M505,217.5 L525.5,217.5" id="Line" stroke="#FFFFFF" stroke-width="2" stroke-linecap="round"></path>
            <path d="M494,217.5 L499.5,217.5" id="Line" stroke="#FFFFFF" stroke-width="2" stroke-linecap="round"></path>
            <path d="M458,217.5 L488.5,217.5" id="Line" stroke="#FFFFFF" stroke-width="2" stroke-linecap="round"></path>
            <g id="Compound-Hex" transform="translate(137.000000, 22.000000)">
                <path d="M48.7256,176.2 L24.9286,176.2 C20.327,176.2 15.9286,173.7 13.6276,169.7 L1.7256,149.102 C-0.5752,145.102 -0.5752,140.102 1.7256,136.102 L13.6236,115.5 C15.9244,111.5 20.2252,109 24.9246,109 L48.7256,109 C53.3272,109 57.7256,111.5 60.0266,115.5 L71.9286,136 C74.2294,140 74.2294,145 71.9286,149 L60.0266,169.699 C57.7258,173.699 53.4289,176.199 48.7256,176.199 L48.7256,176.2 Z M24.9286,110.89899 C21.0302,110.89899 17.327,113.00059 15.327,116.39899 L3.429,137.00099 C1.429,140.39939 1.429,144.60259 3.429,148.00099 L15.327,168.60299 C17.327,172.00139 20.9286,174.10299 24.9286,174.10299 L48.7296,174.10299 C52.628,174.10299 56.3312,172.00139 58.3312,168.60299 L70.2292,148.00099 C72.2292,144.60259 72.2292,140.39939 70.2292,137.00099 L58.3272,116.39899 C56.3272,113.00059 52.7256,110.89899 48.7256,110.89899 L24.9286,110.89899 Z" id="Hexagon" fill="#FFFFFF"></path>
                <path d="M131.7256,67.2 L107.9286,67.2 C103.327,67.2 98.9286,64.7 96.6276,60.7 L84.7256,40.102 C82.4248,36.102 82.4248,31.102 84.7256,27.102 L96.6236,6.5 C98.9244,2.5 103.2252,0 107.9246,0 L131.7256,0 C136.3272,0 140.7256,2.5 143.0266,6.5 L154.9286,27 C157.2294,31 157.2294,36 154.9286,40 L143.0266,60.699 C140.7258,64.699 136.4289,67.199 131.7256,67.199 L131.7256,67.2 Z M107.9286,1.89899 C104.0302,1.89899 100.327,4.00059 98.327,7.39899 L86.429,28.00099 C84.429,31.39939 84.429,35.60259 86.429,39.00099 L98.327,59.60299 C100.327,63.00139 103.9286,65.10299 107.9286,65.10299 L131.7296,65.10299 C135.628,65.10299 139.3312,63.00139 141.3312,59.60299 L153.2292,39.00099 C155.2292,35.60259 155.2292,31.39939 153.2292,28.00099 L141.3272,7.39899 C139.3272,4.00059 135.7256,1.89899 131.7256,1.89899 L107.9286,1.89899 Z" id="Hexagon" fill="#FFFFFF"></path>
                <g id="Horizontal" transform="translate(78.748737, 87.748737) rotate(-45.000000) translate(-78.748737, -87.748737) translate(45.248737, 86.248737)" stroke="#FFFFFF" stroke-linecap="round" stroke-width="2">
                    <path d="M46,1.5 L66.5,1.5" id="Line"></path>
                    <path d="M35,1.5 L40.5,1.5" id="Line"></path>
                    <path d="M24,1.5 L29.5,1.5" id="Line"></path>
                    <path d="M0,1.5 L18.5,1.5" id="Line"></path>
                </g>
            </g>
            <g id="Diagonal" transform="translate(107.827100, 91.100000)" stroke="#FFFFFF" stroke-linecap="round" stroke-width="2">
                <path d="M46.3390172,0.820786133 L60.3199836,15.813537" id="Line"></path>
                <path d="M32.9540049,6.3059389 L36.7049959,10.3283843" id="Line"></path>
                <path d="M21.9540049,6.3059389 L25.7049959,10.3283843" id="Line"></path>
                <path d="M0.0210155794,1.55213983 L12.6379852,15.0821833" id="Line"></path>
            </g>
            <g id="Compound-Hex" transform="translate(640.500000, 309.500000) scale(-1, 1) translate(-640.500000, -309.500000) translate(562.000000, 221.000000)">
                <path d="M131.7256,67.2 L107.9286,67.2 C103.327,67.2 98.9286,64.7 96.6276,60.7 L84.7256,40.102 C82.4248,36.102 82.4248,31.102 84.7256,27.102 L96.6236,6.5 C98.9244,2.5 103.2252,0 107.9246,0 L131.7256,0 C136.3272,0 140.7256,2.5 143.0266,6.5 L154.9286,27 C157.2294,31 157.2294,36 154.9286,40 L143.0266,60.699 C140.7258,64.699 136.4289,67.199 131.7256,67.199 L131.7256,67.2 Z M107.9286,1.89899 C104.0302,1.89899 100.327,4.00059 98.327,7.39899 L86.429,28.00099 C84.429,31.39939 84.429,35.60259 86.429,39.00099 L98.327,59.60299 C100.327,63.00139 103.9286,65.10299 107.9286,65.10299 L131.7296,65.10299 C135.628,65.10299 139.3312,63.00139 141.3312,59.60299 L153.2292,39.00099 C155.2292,35.60259 155.2292,31.39939 153.2292,28.00099 L141.3272,7.39899 C139.3272,4.00059 135.7256,1.89899 131.7256,1.89899 L107.9286,1.89899 Z" id="Hexagon" fill="#FFFFFF"></path>
                <g id="Horizontal" transform="translate(78.748737, 87.748737) rotate(-45.000000) translate(-78.748737, -87.748737) translate(45.248737, 86.248737)" stroke="#FFFFFF" stroke-linecap="round" stroke-width="2">
                    <path d="M46,1.5 L66.5,1.5" id="Line"></path>
                </g>
            </g>
            <g id="Diagonal" transform="translate(495.500000, 168.000000) scale(-1, 1) translate(-495.500000, -168.000000) translate(465.000000, 160.000000)" stroke="#FFFFFF" stroke-linecap="round" stroke-width="2">
                <path d="M46.3390172,0.820786133 L60.3199836,15.813537" id="Line"></path>
                <path d="M32.9540049,6.3059389 L36.7049959,10.3283843" id="Line"></path>
                <path d="M21.9540049,6.3059389 L25.7049959,10.3283843" id="Line"></path>
                <path d="M0.0210155794,1.55213983 L12.6379852,15.0821833" id="Line"></path>
            </g>
            <g id="Page-1" transform="translate(250.000000, 132.000000)" fill="#FFFFFF">
                <path d="M42.0732198,0.0126557372 C40.0165086,0.141565737 37.4780457,0.469675737 35.7618883,0.821245737 C34.3633282,1.10249574 33,1.44233574 33,1.51265574 C33,1.54781574 33.0352619,1.74704574 33.0940216,1.95797574 C33.1998072,2.40329574 33.0234979,2.40329574 34.6571269,2.00486574 C37.9480334,1.21970574 40.7921491,0.903295737 44.4236394,0.903295737 C48.0906322,0.903295737 51.3460361,1.27829574 54.60144,2.09861574 C55.083312,2.22752574 55.5181581,2.32127574 55.5769178,2.32127574 C55.6709394,2.32127574 56,1.68845574 56,1.51268574 C56,1.44236574 54.2253536,1.00877574 52.873669,0.750955737 C51.6513882,0.516565737 50.1000167,0.293935737 48.6545813,0.153295737 C47.5733179,0.0478157372 43.1071565,-0.0459342628 42.0848032,0.0243857372 L42.0732198,0.0126557372 Z" id="Fill-1"></path>
                <path d="M41.5619304,8.04288559 C40.238697,8.11438814 38.6716826,8.28121725 37.4066012,8.49569439 C35.5262138,8.80549809 32.1253752,9.818339 29.9894695,10.6882053 C25.7179551,12.4279074 21.1561264,15.5500125 17.9873313,18.8981864 C16.9194379,20.0182811 15.9444332,21.1621999 16.0024663,21.2455992 C16.0256737,21.2694232 17.2676666,22.3656939 18.7650292,23.6525872 L21.4811478,26 L21.9222355,25.4995432 C24.174059,22.901902 27.55172,20.1612557 30.4652642,18.5646502 C32.6590545,17.3730834 35.8742642,16.3006367 38.6600344,15.8478584 C40.5868662,15.5261275 41.3645641,15.4665522 43.4075812,15.4784794 C46.0308407,15.4784794 47.7836919,15.6929566 50.1513737,16.3006672 C51.230856,16.5747502 53.0300029,17.1705335 53.7147824,17.4803372 C53.9469151,17.5875911 54.1558701,17.6471663 54.1790774,17.6114151 C54.2719364,17.5041613 57.0344993,10.879072 56.9996735,10.8430767 C56.9416403,10.7954286 55.3514187,10.1400395 54.631754,9.87788378 C50.7200868,8.49566388 45.9145961,7.81645069 41.5503713,8.04285509 L41.5619304,8.04288559 Z" id="Fill-2"></path>
                <path d="M6.61036367,20.3753536 C3.4521536,25.2822984 1.27592582,31.1872812 0.435957009,37.0919634 C0.0692957843,39.6628502 -0.0844966312,42.9146027 0.0456167788,45.5324614 C0.364980553,52.0006248 1.80800701,57.6826192 4.61124395,63.3174315 C6.90589704,67.9427859 9.75643144,71.8399724 13.5296295,75.5027506 C20.2717872,82.0298166 28.9891132,86.3263985 38.1794137,87.6411881 C39.5041662,87.8290151 41.5977294,88.0403131 41.7161245,87.9933713 C41.7752614,87.9699005 41.8343984,87.7468521 41.8580471,87.4181397 C41.8817261,87.1246786 41.9290235,86.7255236 41.9526723,86.525946 L42,86.1855132 L41.6333388,86.1855132 C41.4322489,86.1855132 40.6752475,86.1150705 39.941925,86.0329075 C34.9977971,85.4694262 30.5030253,84.189858 26.1148392,82.0885389 C21.6318766,79.9285275 17.9534552,77.3225395 14.4285536,73.8241475 C7.7811724,67.2150387 3.54650627,58.8097019 2.23386574,49.6530568 C1.90266247,47.3873815 1.85536502,46.4951578 1.85536502,43.231775 C1.85536502,40.4495902 1.86720452,40.0269943 2.02096665,38.8648706 C2.57687824,34.6268908 3.42850488,31.304906 4.85972211,27.747912 C5.45112193,26.2805167 6.8232022,23.5336734 7.65118011,22.1365405 C8.02968084,21.5261175 8.30171688,20.9861072 8.26622866,20.9508858 C8.24254965,20.927415 7.89956743,20.6926161 7.53287593,20.4460968 L6.84685093,20 L6.59846361,20.3756542 L6.61036367,20.3753536 Z" id="Fill-3"></path>
                <path d="M71.8374004,26.7088131 C71.2211258,27.0985835 70.5592164,27.52376 70.3651954,27.6655056 L70,27.9017081 L70.445071,28.6576043 C72.7503597,32.6850195 74.1881779,37.810903 74.3365933,42.6063088 L74.3822281,44 L78,44 L78,43.4921284 C78,42.6771816 77.8630663,40.8228774 77.703286,39.5708411 C77.2696092,35.980334 76.1283881,32.0944226 74.5649427,28.8464877 C74.1084484,27.8897952 73.0699203,25.9882626 73.0128622,26.0000546 C72.9900448,26.0000546 72.4650691,26.3307743 71.8602178,26.7205144 L71.8374004,26.7088131 Z" id="Fill-4"></path>
                <path d="M84.4959056,53.2690746 C83.238095,58.4088596 81.4136764,62.6671535 78.6601217,66.845445 C77.6629299,68.3564639 76.8923581,69.3752778 75.1926502,71.3900477 L75,71.6189775 L76.2691532,72.8094888 C76.9603848,73.4619915 77.5609625,74 77.5949613,74 C77.6743016,74 78.9321121,72.5347554 79.6799987,71.5732033 C82.2409613,68.2992607 84.2918838,64.7164446 85.8897114,60.7670243 C86.7282517,58.6836223 88.1560563,53.9102656 87.9860913,53.7613968 C87.9634351,53.7385097 87.2382047,53.5553541 86.410978,53.3721985 C85.5724376,53.1890429 84.8132084,53.0173456 84.7338972,53.0058874 C84.597931,52.9830003 84.5752748,53.0173456 84.5072772,53.2806207 L84.4959056,53.2690746 Z" id="Fill-5"></path>
                <path d="M74.1120993,53 C74.1005554,53.0237547 73.9852352,53.3801968 73.8583712,53.7960409 C73.3047987,55.5544359 72.3360616,57.8236939 71.4134408,59.5108553 C68.6571222,64.5723394 64.8281425,68.5881303 59.8690188,71.6178426 C58.7618738,72.2950796 56.5936411,73.3881303 55.3943817,73.8752688 C52.0959754,75.2178502 48.9130075,75.9069494 45.430077,76.0138607 L44,76.0614005 L44,77 L44.3113882,77 C44.9802809,77 47.1945708,76.8455184 48.1057954,76.7386071 C50.7467938,76.4297048 53.630006,75.6811733 56.1094202,74.6712793 C57.1704489,74.2435731 59.7193033,72.9247464 60.7570672,72.2831566 C66.6157831,68.6357005 71.2058585,63.0991224 73.8813112,56.4812645 C74.2042137,55.6852237 75,53.4041036 75,53.285178 C75,53.2376382 74.1350393,52.9762757 74.1004373,53.0237851 L74.1120993,53 Z" id="Fill-6"></path>
                <path d="M17.7136716,63.5029561 C17.3348836,63.7771432 17.0117972,64.0284887 17.0006455,64.0284887 C16.9783705,64.0513303 17.5354151,64.7939314 18.2372895,65.662176 C18.894614,66.4618958 20.9334124,68.5639971 21.7245576,69.238161 C22.4375838,69.8550894 23.7299293,70.8947192 23.8970627,70.9861149 C23.9973141,71.0432336 24.0975941,70.9404317 24.5098088,70.3691866 C24.7771936,70.0036038 25,69.6608625 25,69.6380209 C25,69.6037439 24.6434869,69.2952797 24.2089973,68.9639739 C22.3038771,67.4902072 20.4433638,65.6052913 18.9280407,63.6516167 C18.6606559,63.3088754 18.4378209,63.0118467 18.415546,63.0004113 C18.4043943,62.9889758 18.0924596,63.2174797 17.7136716,63.5031023 L17.7136716,63.5029561 Z" id="Fill-7"></path>
            </g>
        </g>
        <g id="Hexagons" transform="translate(845.500000, 268.000000) scale(-1, 1) translate(-845.500000, -268.000000) translate(486.000000, 69.000000)">
            <path d="M114.7256,67.2 L90.9286,67.2 C86.327,67.2 81.9286,64.7 79.6276,60.7 L67.7256,40.102 C65.4248,36.102 65.4248,31.102 67.7256,27.102 L79.6236,6.5 C81.9244,2.5 86.2252,0 90.9246,0 L114.7256,0 C119.3272,0 123.7256,2.5 126.0266,6.5 L137.9286,27 C140.2294,31 140.2294,36 137.9286,40 L126.0266,60.699 C123.7258,64.699 119.4289,67.199 114.7256,67.199 L114.7256,67.2 Z M90.9286,1.89899 C87.0302,1.89899 83.327,4.00059 81.327,7.39899 L69.429,28.00099 C67.429,31.39939 67.429,35.60259 69.429,39.00099 L81.327,59.60299 C83.327,63.00139 86.9286,65.10299 90.9286,65.10299 L114.7296,65.10299 C118.628,65.10299 122.3312,63.00139 124.3312,59.60299 L136.2292,39.00099 C138.2292,35.60259 138.2292,31.39939 136.2292,28.00099 L124.3272,7.39899 C122.3272,4.00059 118.7256,1.89899 114.7256,1.89899 L90.9286,1.89899 Z" id="Hexagon" fill="#FFFFFF"></path>
            <g id="Horizontal" transform="translate(0.000000, 32.000000)" stroke="#FFFFFF" stroke-linecap="round" stroke-width="2">
                <path d="M46,1.5 L66.5,1.5" id="Line"></path>
                <path d="M35,1.5 L40.5,1.5" id="Line"></path>
                <path d="M24,1.5 L29.5,1.5" id="Line"></path>
                <path d="M0,1.5 L18.5,1.5" id="Line"></path>
            </g>
            <path d="M433.7256,253.2 L409.9286,253.2 C405.327,253.2 400.9286,250.7 398.6276,246.7 L386.7256,226.102 C384.4248,222.102 384.4248,217.102 386.7256,213.102 L398.6236,192.5 C400.9244,188.5 405.2252,186 409.9246,186 L433.7256,186 C438.3272,186 442.7256,188.5 445.0266,192.5 L456.9286,213 C459.2294,217 459.2294,222 456.9286,226 L445.0266,246.699 C442.7258,250.699 438.4289,253.199 433.7256,253.199 L433.7256,253.2 Z M409.9286,187.89899 C406.0302,187.89899 402.327,190.00059 400.327,193.39899 L388.429,214.00099 C386.429,217.39939 386.429,221.60259 388.429,225.00099 L400.327,245.60299 C402.327,249.00139 405.9286,251.10299 409.9286,251.10299 L433.7296,251.10299 C437.628,251.10299 441.3312,249.00139 443.3312,245.60299 L455.2292,225.00099 C457.2292,221.60259 457.2292,217.39939 455.2292,214.00099 L443.3272,193.39899 C441.3272,190.00059 437.7256,187.89899 433.7256,187.89899 L409.9286,187.89899 Z" id="Hexagon" fill="#FFFFFF"></path>
            <g id="Horizontal" transform="translate(319.000000, 218.000000)" stroke="#FFFFFF" stroke-linecap="round" stroke-width="2">
                <path d="M46,1.5 L66.5,1.5" id="Line"></path>
                <path d="M35,1.5 L40.5,1.5" id="Line"></path>
                <path d="M24,1.5 L29.5,1.5" id="Line"></path>
                <path d="M0,1.5 L18.5,1.5" id="Line"></path>
            </g>
            <path d="M573.7256,251.2 L549.9286,251.2 C545.327,251.2 540.9286,248.7 538.6276,244.7 L526.7256,224.102 C524.4248,220.102 524.4248,215.102 526.7256,211.102 L538.6236,190.5 C540.9244,186.5 545.2252,184 549.9246,184 L573.7256,184 C578.3272,184 582.7256,186.5 585.0266,190.5 L596.9286,211 C599.2294,215 599.2294,220 596.9286,224 L585.0266,244.699 C582.7258,248.699 578.4289,251.199 573.7256,251.199 L573.7256,251.2 Z M549.9286,185.89899 C546.0302,185.89899 542.327,188.00059 540.327,191.39899 L528.429,212.00099 C526.429,215.39939 526.429,219.60259 528.429,223.00099 L540.327,243.60299 C542.327,247.00139 545.9286,249.10299 549.9286,249.10299 L573.7296,249.10299 C577.628,249.10299 581.3312,247.00139 583.3312,243.60299 L595.2292,223.00099 C597.2292,219.60259 597.2292,215.39939 595.2292,212.00099 L583.3272,191.39899 C581.3272,188.00059 577.7256,185.89899 573.7256,185.89899 L549.9286,185.89899 Z" id="Hexagon" fill="#FFFFFF"></path>
            <path d="M505,217.5 L525.5,217.5" id="Line" stroke="#FFFFFF" stroke-width="2" stroke-linecap="round"></path>
            <path d="M494,217.5 L499.5,217.5" id="Line" stroke="#FFFFFF" stroke-width="2" stroke-linecap="round"></path>
            <path d="M458,217.5 L488.5,217.5" id="Line" stroke="#FFFFFF" stroke-width="2" stroke-linecap="round"></path>
            <g id="Compound-Hex" transform="translate(137.000000, 22.000000)">
                <path d="M48.7256,176.2 L24.9286,176.2 C20.327,176.2 15.9286,173.7 13.6276,169.7 L1.7256,149.102 C-0.5752,145.102 -0.5752,140.102 1.7256,136.102 L13.6236,115.5 C15.9244,111.5 20.2252,109 24.9246,109 L48.7256,109 C53.3272,109 57.7256,111.5 60.0266,115.5 L71.9286,136 C74.2294,140 74.2294,145 71.9286,149 L60.0266,169.699 C57.7258,173.699 53.4289,176.199 48.7256,176.199 L48.7256,176.2 Z M24.9286,110.89899 C21.0302,110.89899 17.327,113.00059 15.327,116.39899 L3.429,137.00099 C1.429,140.39939 1.429,144.60259 3.429,148.00099 L15.327,168.60299 C17.327,172.00139 20.9286,174.10299 24.9286,174.10299 L48.7296,174.10299 C52.628,174.10299 56.3312,172.00139 58.3312,168.60299 L70.2292,148.00099 C72.2292,144.60259 72.2292,140.39939 70.2292,137.00099 L58.3272,116.39899 C56.3272,113.00059 52.7256,110.89899 48.7256,110.89899 L24.9286,110.89899 Z" id="Hexagon" fill="#FFFFFF"></path>
                <path d="M131.7256,67.2 L107.9286,67.2 C103.327,67.2 98.9286,64.7 96.6276,60.7 L84.7256,40.102 C82.4248,36.102 82.4248,31.102 84.7256,27.102 L96.6236,6.5 C98.9244,2.5 103.2252,0 107.9246,0 L131.7256,0 C136.3272,0 140.7256,2.5 143.0266,6.5 L154.9286,27 C157.2294,31 157.2294,36 154.9286,40 L143.0266,60.699 C140.7258,64.699 136.4289,67.199 131.7256,67.199 L131.7256,67.2 Z M107.9286,1.89899 C104.0302,1.89899 100.327,4.00059 98.327,7.39899 L86.429,28.00099 C84.429,31.39939 84.429,35.60259 86.429,39.00099 L98.327,59.60299 C100.327,63.00139 103.9286,65.10299 107.9286,65.10299 L131.7296,65.10299 C135.628,65.10299 139.3312,63.00139 141.3312,59.60299 L153.2292,39.00099 C155.2292,35.60259 155.2292,31.39939 153.2292,28.00099 L141.3272,7.39899 C139.3272,4.00059 135.7256,1.89899 131.7256,1.89899 L107.9286,1.89899 Z" id="Hexagon" fill="#FFFFFF"></path>
                <g id="Horizontal" transform="translate(78.748737, 87.748737) rotate(-45.000000) translate(-78.748737, -87.748737) translate(45.248737, 86.248737)" stroke="#FFFFFF" stroke-linecap="round" stroke-width="2">
                    <path d="M46,1.5 L66.5,1.5" id="Line"></path>
                    <path d="M35,1.5 L40.5,1.5" id="Line"></path>
                    <path d="M24,1.5 L29.5,1.5" id="Line"></path>
                    <path d="M0,1.5 L18.5,1.5" id="Line"></path>
                </g>
            </g>
            <g id="Diagonal" transform="translate(107.827100, 91.100000)" stroke="#FFFFFF" stroke-linecap="round" stroke-width="2">
                <path d="M46.3390172,0.820786133 L60.3199836,15.813537" id="Line"></path>
                <path d="M32.9540049,6.3059389 L36.7049959,10.3283843" id="Line"></path>
                <path d="M21.9540049,6.3059389 L25.7049959,10.3283843" id="Line"></path>
                <path d="M0.0210155794,1.55213983 L12.6379852,15.0821833" id="Line"></path>
            </g>
            <g id="Compound-Hex" transform="translate(640.500000, 309.500000) scale(-1, 1) translate(-640.500000, -309.500000) translate(562.000000, 221.000000)">
                <path d="M48.7256,176.2 L24.9286,176.2 C20.327,176.2 15.9286,173.7 13.6276,169.7 L1.7256,149.102 C-0.5752,145.102 -0.5752,140.102 1.7256,136.102 L13.6236,115.5 C15.9244,111.5 20.2252,109 24.9246,109 L48.7256,109 C53.3272,109 57.7256,111.5 60.0266,115.5 L71.9286,136 C74.2294,140 74.2294,145 71.9286,149 L60.0266,169.699 C57.7258,173.699 53.4289,176.199 48.7256,176.199 L48.7256,176.2 Z M24.9286,110.89899 C21.0302,110.89899 17.327,113.00059 15.327,116.39899 L3.429,137.00099 C1.429,140.39939 1.429,144.60259 3.429,148.00099 L15.327,168.60299 C17.327,172.00139 20.9286,174.10299 24.9286,174.10299 L48.7296,174.10299 C52.628,174.10299 56.3312,172.00139 58.3312,168.60299 L70.2292,148.00099 C72.2292,144.60259 72.2292,140.39939 70.2292,137.00099 L58.3272,116.39899 C56.3272,113.00059 52.7256,110.89899 48.7256,110.89899 L24.9286,110.89899 Z" id="Hexagon" fill="#FFFFFF"></path>
                <path d="M131.7256,67.2 L107.9286,67.2 C103.327,67.2 98.9286,64.7 96.6276,60.7 L84.7256,40.102 C82.4248,36.102 82.4248,31.102 84.7256,27.102 L96.6236,6.5 C98.9244,2.5 103.2252,0 107.9246,0 L131.7256,0 C136.3272,0 140.7256,2.5 143.0266,6.5 L154.9286,27 C157.2294,31 157.2294,36 154.9286,40 L143.0266,60.699 C140.7258,64.699 136.4289,67.199 131.7256,67.199 L131.7256,67.2 Z M107.9286,1.89899 C104.0302,1.89899 100.327,4.00059 98.327,7.39899 L86.429,28.00099 C84.429,31.39939 84.429,35.60259 86.429,39.00099 L98.327,59.60299 C100.327,63.00139 103.9286,65.10299 107.9286,65.10299 L131.7296,65.10299 C135.628,65.10299 139.3312,63.00139 141.3312,59.60299 L153.2292,39.00099 C155.2292,35.60259 155.2292,31.39939 153.2292,28.00099 L141.3272,7.39899 C139.3272,4.00059 135.7256,1.89899 131.7256,1.89899 L107.9286,1.89899 Z" id="Hexagon" fill="#FFFFFF"></path>
                <g id="Horizontal" transform="translate(78.748737, 87.748737) rotate(-45.000000) translate(-78.748737, -87.748737) translate(45.248737, 86.248737)" stroke="#FFFFFF" stroke-linecap="round" stroke-width="2">
                    <path d="M46,1.5 L66.5,1.5" id="Line"></path>
                    <path d="M35,1.5 L40.5,1.5" id="Line"></path>
                    <path d="M24,1.5 L29.5,1.5" id="Line"></path>
                    <path d="M0,1.5 L18.5,1.5" id="Line"></path>
                </g>
            </g>
            <g id="Diagonal" transform="translate(495.500000, 168.000000) scale(-1, 1) translate(-495.500000, -168.000000) translate(465.000000, 160.000000)" stroke="#FFFFFF" stroke-linecap="round" stroke-width="2">
                <path d="M46.3390172,0.820786133 L60.3199836,15.813537" id="Line"></path>
                <path d="M32.9540049,6.3059389 L36.7049959,10.3283843" id="Line"></path>
                <path d="M21.9540049,6.3059389 L25.7049959,10.3283843" id="Line"></path>
                <path d="M0.0210155794,1.55213983 L12.6379852,15.0821833" id="Line"></path>
            </g>
            <g id="Page-1" transform="translate(250.000000, 132.000000)" fill="#FFFFFF">
                <path d="M42.0732198,0.0126557372 C40.0165086,0.141565737 37.4780457,0.469675737 35.7618883,0.821245737 C34.3633282,1.10249574 33,1.44233574 33,1.51265574 C33,1.54781574 33.0352619,1.74704574 33.0940216,1.95797574 C33.1998072,2.40329574 33.0234979,2.40329574 34.6571269,2.00486574 C37.9480334,1.21970574 40.7921491,0.903295737 44.4236394,0.903295737 C48.0906322,0.903295737 51.3460361,1.27829574 54.60144,2.09861574 C55.083312,2.22752574 55.5181581,2.32127574 55.5769178,2.32127574 C55.6709394,2.32127574 56,1.68845574 56,1.51268574 C56,1.44236574 54.2253536,1.00877574 52.873669,0.750955737 C51.6513882,0.516565737 50.1000167,0.293935737 48.6545813,0.153295737 C47.5733179,0.0478157372 43.1071565,-0.0459342628 42.0848032,0.0243857372 L42.0732198,0.0126557372 Z" id="Fill-1"></path>
                <path d="M41.5619304,8.04288559 C40.238697,8.11438814 38.6716826,8.28121725 37.4066012,8.49569439 C35.5262138,8.80549809 32.1253752,9.818339 29.9894695,10.6882053 C25.7179551,12.4279074 21.1561264,15.5500125 17.9873313,18.8981864 C16.9194379,20.0182811 15.9444332,21.1621999 16.0024663,21.2455992 C16.0256737,21.2694232 17.2676666,22.3656939 18.7650292,23.6525872 L21.4811478,26 L21.9222355,25.4995432 C24.174059,22.901902 27.55172,20.1612557 30.4652642,18.5646502 C32.6590545,17.3730834 35.8742642,16.3006367 38.6600344,15.8478584 C40.5868662,15.5261275 41.3645641,15.4665522 43.4075812,15.4784794 C46.0308407,15.4784794 47.7836919,15.6929566 50.1513737,16.3006672 C51.230856,16.5747502 53.0300029,17.1705335 53.7147824,17.4803372 C53.9469151,17.5875911 54.1558701,17.6471663 54.1790774,17.6114151 C54.2719364,17.5041613 57.0344993,10.879072 56.9996735,10.8430767 C56.9416403,10.7954286 55.3514187,10.1400395 54.631754,9.87788378 C50.7200868,8.49566388 45.9145961,7.81645069 41.5503713,8.04285509 L41.5619304,8.04288559 Z" id="Fill-2"></path>
                <path d="M6.61036367,20.3753536 C3.4521536,25.2822984 1.27592582,31.1872812 0.435957009,37.0919634 C0.0692957843,39.6628502 -0.0844966312,42.9146027 0.0456167788,45.5324614 C0.364980553,52.0006248 1.80800701,57.6826192 4.61124395,63.3174315 C6.90589704,67.9427859 9.75643144,71.8399724 13.5296295,75.5027506 C20.2717872,82.0298166 28.9891132,86.3263985 38.1794137,87.6411881 C39.5041662,87.8290151 41.5977294,88.0403131 41.7161245,87.9933713 C41.7752614,87.9699005 41.8343984,87.7468521 41.8580471,87.4181397 C41.8817261,87.1246786 41.9290235,86.7255236 41.9526723,86.525946 L42,86.1855132 L41.6333388,86.1855132 C41.4322489,86.1855132 40.6752475,86.1150705 39.941925,86.0329075 C34.9977971,85.4694262 30.5030253,84.189858 26.1148392,82.0885389 C21.6318766,79.9285275 17.9534552,77.3225395 14.4285536,73.8241475 C7.7811724,67.2150387 3.54650627,58.8097019 2.23386574,49.6530568 C1.90266247,47.3873815 1.85536502,46.4951578 1.85536502,43.231775 C1.85536502,40.4495902 1.86720452,40.0269943 2.02096665,38.8648706 C2.57687824,34.6268908 3.42850488,31.304906 4.85972211,27.747912 C5.45112193,26.2805167 6.8232022,23.5336734 7.65118011,22.1365405 C8.02968084,21.5261175 8.30171688,20.9861072 8.26622866,20.9508858 C8.24254965,20.927415 7.89956743,20.6926161 7.53287593,20.4460968 L6.84685093,20 L6.59846361,20.3756542 L6.61036367,20.3753536 Z" id="Fill-3"></path>
                <path d="M71.8374004,26.7088131 C71.2211258,27.0985835 70.5592164,27.52376 70.3651954,27.6655056 L70,27.9017081 L70.445071,28.6576043 C72.7503597,32.6850195 74.1881779,37.810903 74.3365933,42.6063088 L74.3822281,44 L78,44 L78,43.4921284 C78,42.6771816 77.8630663,40.8228774 77.703286,39.5708411 C77.2696092,35.980334 76.1283881,32.0944226 74.5649427,28.8464877 C74.1084484,27.8897952 73.0699203,25.9882626 73.0128622,26.0000546 C72.9900448,26.0000546 72.4650691,26.3307743 71.8602178,26.7205144 L71.8374004,26.7088131 Z" id="Fill-4"></path>
                <path d="M84.4959056,53.2690746 C83.238095,58.4088596 81.4136764,62.6671535 78.6601217,66.845445 C77.6629299,68.3564639 76.8923581,69.3752778 75.1926502,71.3900477 L75,71.6189775 L76.2691532,72.8094888 C76.9603848,73.4619915 77.5609625,74 77.5949613,74 C77.6743016,74 78.9321121,72.5347554 79.6799987,71.5732033 C82.2409613,68.2992607 84.2918838,64.7164446 85.8897114,60.7670243 C86.7282517,58.6836223 88.1560563,53.9102656 87.9860913,53.7613968 C87.9634351,53.7385097 87.2382047,53.5553541 86.410978,53.3721985 C85.5724376,53.1890429 84.8132084,53.0173456 84.7338972,53.0058874 C84.597931,52.9830003 84.5752748,53.0173456 84.5072772,53.2806207 L84.4959056,53.2690746 Z" id="Fill-5"></path>
                <path d="M74.1120993,53 C74.1005554,53.0237547 73.9852352,53.3801968 73.8583712,53.7960409 C73.3047987,55.5544359 72.3360616,57.8236939 71.4134408,59.5108553 C68.6571222,64.5723394 64.8281425,68.5881303 59.8690188,71.6178426 C58.7618738,72.2950796 56.5936411,73.3881303 55.3943817,73.8752688 C52.0959754,75.2178502 48.9130075,75.9069494 45.430077,76.0138607 L44,76.0614005 L44,77 L44.3113882,77 C44.9802809,77 47.1945708,76.8455184 48.1057954,76.7386071 C50.7467938,76.4297048 53.630006,75.6811733 56.1094202,74.6712793 C57.1704489,74.2435731 59.7193033,72.9247464 60.7570672,72.2831566 C66.6157831,68.6357005 71.2058585,63.0991224 73.8813112,56.4812645 C74.2042137,55.6852237 75,53.4041036 75,53.285178 C75,53.2376382 74.1350393,52.9762757 74.1004373,53.0237851 L74.1120993,53 Z" id="Fill-6"></path>
                <path d="M17.7136716,63.5029561 C17.3348836,63.7771432 17.0117972,64.0284887 17.0006455,64.0284887 C16.9783705,64.0513303 17.5354151,64.7939314 18.2372895,65.662176 C18.894614,66.4618958 20.9334124,68.5639971 21.7245576,69.238161 C22.4375838,69.8550894 23.7299293,70.8947192 23.8970627,70.9861149 C23.9973141,71.0432336 24.0975941,70.9404317 24.5098088,70.3691866 C24.7771936,70.0036038 25,69.6608625 25,69.6380209 C25,69.6037439 24.6434869,69.2952797 24.2089973,68.9639739 C22.3038771,67.4902072 20.4433638,65.6052913 18.9280407,63.6516167 C18.6606559,63.3088754 18.4378209,63.0118467 18.415546,63.0004113 C18.4043943,62.9889758 18.0924596,63.2174797 17.7136716,63.5031023 L17.7136716,63.5029561 Z" id="Fill-7"></path>
            </g>
        </g>
    </g>
</svg>