<?xml version="1.0" encoding="UTF-8"?>
<svg width="147px" height="148px" viewBox="0 0 147 148" version="1.1" xmlns="http://www.w3.org/2000/svg" xmlns:xlink="http://www.w3.org/1999/xlink">
    <!-- Generator: Sketch 48.2 (47327) - http://www.bohemiancoding.com/sketch -->
    <title>Page 1</title>
    <desc>Created with Sketch.</desc>
    <defs></defs>
    <g id="Page-1" stroke="none" stroke-width="1" fill="none" fill-rule="evenodd">
        <g transform="translate(0.000000, -1.000000)">
            <path d="M126.991667,124.948333 C127.3237,123.060333 126.060683,121.2635 124.172667,120.931333 C122.284667,120.5928 120.487833,121.855817 120.155667,123.743833 L116.535833,144.263833 C116.2038,146.151837 117.460317,147.94867 119.348333,148.280837 C121.242833,148.61937 123.039667,147.356353 123.371833,145.468337 L126.991667,124.948333 Z" id="Fill-1" fill="#007991"></path>
            <path d="M103.658333,117.311667 C101.770333,116.979633 99.967,118.23615 99.6348333,120.130667 C99.3028,122.018667 100.565817,123.8155 102.453833,124.147667 L122.968833,127.7675 C124.856833,128.099533 126.660167,126.843017 126.992333,124.9485 C127.324367,123.0605 126.06135,121.263667 124.173333,120.9315 L103.658333,117.311667 Z" id="Fill-2" fill="#007991"></path>
            <path d="M19.3683333,24.7983333 C19.0363,26.6863333 20.2993167,28.4831667 22.1873333,28.8218333 C24.0753333,29.1538667 25.8786667,27.89085 26.2108333,26.0028333 L29.8241667,5.48783333 C30.1627,3.59333333 28.8996833,1.7965 27.0116667,1.46433333 C25.1236667,1.1323 23.3203333,2.38881667 22.9881667,4.27683333 L19.3683333,24.7983333 Z" id="Fill-3" fill="#007991"></path>
            <path d="M42.7016667,32.435 C44.5896667,32.7670333 46.393,31.5105167 46.7251667,29.6225 C47.0572,27.7345 45.8006833,25.9311667 43.9061667,25.599 L23.3911667,21.9791667 C21.5031667,21.6471333 19.6998333,22.91015 19.3676667,24.7981667 C19.0356333,26.6861667 20.29865,28.483 22.1866667,28.8216667 L42.7016667,32.435 Z" id="Fill-4" fill="#007991"></path>
            <path d="M107.175,18.3133333 C137.441667,36.4966667 147.981667,75.2733333 131.243333,106.21 C130.331867,107.896167 130.956867,110.0055 132.643067,110.917 C134.329233,111.828467 136.438567,111.203467 137.350067,109.517267 C155.8584,75.3122667 144.199067,32.4606 110.7484,12.3556 C82.1217333,-4.83773333 45.7034,-0.313733333 22.1867333,22.7332667 C20.8130333,24.0744167 20.7935,26.2684333 22.13465,27.6421 C23.4758,29.0092833 25.6763167,29.0353333 27.0434833,27.6876667 C48.32015,6.84766667 81.27515,2.75266667 107.173483,18.3126667 L107.175,18.3133333 Z M35.6383333,137.363333 C64.265,154.563333 100.683333,150.032667 124.206667,126.992167 C125.57385,125.651017 125.593383,123.4505 124.252233,122.083333 C122.911083,120.709633 120.710567,120.6901 119.3434,122.03125 C98.0667333,142.877917 65.1184,146.972917 39.2200667,131.41275 C8.9534,113.22275 -1.59326833,74.45275 15.1450667,43.5094167 C16.0565167,41.82325 15.4315167,39.7204167 13.7453333,38.8089167 C12.0591667,37.89095 9.94983333,38.52245 9.03833333,40.20865 C-9.465,74.40865 2.18933333,117.265317 35.64,137.36365 L35.6383333,137.363333 Z" id="Fill-5" fill="#007991"></path>
            <path d="M35.065,113.053333 L97.435,113.053333 C101.302167,113.053333 104.446667,109.941333 104.446667,106.067667 L104.446667,97.6496667 C104.446667,83.3983333 88.7696667,71.3863333 66.25,71.3863333 C43.7303333,71.3863333 28.0533333,83.398 28.0533333,97.6496667 L28.0533333,106.067667 C28.0533333,109.934833 31.1978333,113.053333 35.065,113.053333 Z M34.9999,97.6496667 C34.9999,87.7016667 47.2264,78.333 66.2499,78.333 C85.2734,78.333 97.4999,87.7015 97.4999,97.6496667 L97.4999,106.067667 C97.4999,106.093717 35.0649,106.113233 35.0649,106.113233 C35.0258333,106.113233 34.9998,97.6497333 34.9998,97.6497333 L34.9999,97.6496667 Z" id="Fill-6" fill="#2B2D40"></path>
            <path d="M90.5533333,54.03 C90.5533333,40.6055 79.6745,29.72 66.25,29.72 C52.8255,29.72 41.9466667,40.6053333 41.9466667,54.03 C41.9466667,67.4545 52.8255,78.3333333 66.25,78.3333333 C79.6745,78.3333333 90.5533333,67.4545 90.5533333,54.03 Z M48.8866667,54.03 C48.8866667,44.4401667 56.6601667,36.6666667 66.25,36.6666667 C75.8398333,36.6666667 83.6133333,44.4401667 83.6133333,54.03 C83.6133333,63.6133333 75.8398333,71.3866667 66.25,71.3866667 C56.6601667,71.3866667 48.8866667,63.6131667 48.8866667,54.03 Z" id="Fill-7" fill="#2B2D40"></path>
            <path d="M111.386667,90.7033333 L111.386667,99.1213333 C111.386667,99.1473833 100.97,99.1669 100.97,99.1669 C99.056,99.1669 97.5,100.722883 97.5,102.6369 C97.5,104.5574 99.0559833,106.1134 100.97,106.1134 L111.3215,106.1134 C115.188667,106.1134 118.333167,103.0014 118.333167,99.1212333 L118.333167,90.7032333 C118.333167,76.8750833 103.430833,65.0199167 81.8481667,64.4665833 C79.9341667,64.4145 78.339,65.9314333 78.287,67.8454167 C78.2414333,69.7659167 79.75185,71.3610833 81.6723333,71.4065833 C99.8106667,71.8753333 111.385667,81.0810667 111.385667,90.70325 L111.386667,90.7033333 Z" id="Fill-8" fill="#2B2D40"></path>
            <path d="M104.446667,47.0833333 C104.446667,33.6588333 93.5613333,22.78 80.1366667,22.78 C73.0988333,22.78 66.5363333,25.7943333 61.9533333,30.957 C60.6773,32.3958 60.8140167,34.5898333 62.2463,35.8593333 C63.6786,37.1353667 65.8726333,36.99865 67.1486333,35.5663667 C70.4233,31.8750333 75.1043,29.7200333 80.1369667,29.7200333 C89.7268,29.7200333 97.5003,37.4935333 97.5003,47.0833667 C97.5003,56.1458667 90.5341333,63.6653667 81.5628,64.3883667 C79.6488,64.5446167 78.2229667,66.2178667 78.3791333,68.1253667 C78.5353833,70.0393667 80.2086333,71.4652 82.1161333,71.3090333 C94.6878,70.2934 104.446133,59.7725333 104.446133,47.0840333 L104.446667,47.0833333 Z" id="Fill-9" fill="#2B2D40"></path>
        </g>
    </g>
</svg>