<?xml version="1.0" encoding="UTF-8"?>
<svg width="100px" height="100px" viewBox="0 0 100 100" version="1.1" xmlns="http://www.w3.org/2000/svg" xmlns:xlink="http://www.w3.org/1999/xlink">
    <!-- Generator: Sketch 48.2 (47327) - http://www.bohemiancoding.com/sketch -->
    <title>Page 1</title>
    <desc>Created with Sketch.</desc>
    <defs></defs>
    <g id="Desktop-HD" stroke="none" stroke-width="1" fill="none" fill-rule="evenodd" transform="translate(-303.000000, -772.000000)">
        <g id="Page-1" transform="translate(303.000000, 772.000000)">
            <path d="M52.8807229,49.2352941 C60.7308434,49.2238088 67.0939759,41.4629412 67.1084337,31.8808824 C67.1084337,30.6630441 66.2989398,29.675 65.3012048,29.675 L60.3642169,29.675 C55.2108434,29.6864853 50.4620482,33.0929412 47.9533735,38.5847059 C45.440241,33.0872059 40.6868675,29.6807353 35.5292771,29.675 L30.6018072,29.675 C29.6040602,29.675 28.7945783,30.6630441 28.7945783,31.8808824 C28.8086988,41.4626471 35.1763855,49.2235294 43.0259036,49.2352941 L46.0614458,49.2352941 L46.0614458,95.3808824 L21.5325301,95.3808824 L21.5325301,79.5426471 L24.7516867,79.5426471 C32.5923976,79.5254118 38.9505904,71.7645588 38.9650482,62.1882353 C38.9650482,60.9704118 38.1555542,59.9823529 37.1578193,59.9823529 L32.2303494,59.9823529 C27.0722771,59.9881029 22.3187831,63.3945588 19.8098675,68.8977941 C17.2967349,63.3945588 12.5433614,59.9880882 7.38577108,59.9823529 L2.41119277,59.9823529 C1.41345783,59.9823529 0.603963855,60.9704118 0.603963855,62.1882353 C0.608674699,66.8010294 2.11938554,71.2242647 4.79733735,74.4757353 C7.47528916,77.7327941 11.1038434,79.5538235 14.883,79.5423529 L17.9185422,79.5423529 L17.9185422,95.3805882 L2.02577108,95.3805882 C1.0280241,95.3805882 0.218542169,96.3686471 0.218542169,97.5864706 C0.218542169,98.8042941 1.0280241,99.7923529 2.02577108,99.7923529 L56.7137229,99.7923529 C57.7114699,99.7923529 58.5209518,98.8042941 58.5209518,97.5864706 C58.5209518,96.3686471 57.7114699,95.3805882 56.7137229,95.3805882 L49.6636024,95.3805882 L49.6636024,73.3217647 L53.8804699,68.1747059 C54.2899157,67.5945147 54.2616867,66.7213529 53.8192892,66.1813235 C53.3721928,65.6356029 52.6615301,65.6011324 52.1814578,66.1008971 L49.6636265,69.1167794 L49.6636265,49.2344265 L52.8807229,49.2352941 Z M32.2289157,64.3955882 L35.2033735,64.3955882 C34.3232892,70.6054412 29.9087952,75.1377941 24.7459036,75.1492647 L21.7714458,75.1492647 C22.656241,68.9394118 27.0660241,64.4013235 32.2289157,64.3955882 Z M14.8819277,75.1435294 L14.8819277,75.1492794 C9.71903614,75.1377794 5.30457831,70.6054559 4.42445783,64.3956029 L7.39891566,64.3956029 C12.5618072,64.4013382 16.9715663,68.9394265 17.8563855,75.1492794 L14.8819277,75.1492794 L14.8819277,75.1435294 Z M60.3638554,34.0876471 L63.3383133,34.0876471 C62.4535301,40.2975 58.0437349,44.8298529 52.8808434,44.8355882 L52.4808072,44.8355882 L57.6247831,40.2744118 L57.6247831,40.2801618 C58.166012,39.7976324 58.2836747,38.8785147 57.8930482,38.2179559 C57.4977229,37.5630882 56.7447108,37.4194706 56.2035301,37.8962647 L50.2406386,43.1927353 C51.6195542,37.7814118 55.7188313,34.0934706 60.3638916,34.0877353 L60.3638554,34.0876471 Z M32.5301205,34.0875882 L35.5045783,34.0876471 C40.1450602,34.0933971 44.2442169,37.7755882 45.6278313,43.1754412 L39.6649398,37.8789706 L39.6649398,37.8847206 C39.4060964,37.6549412 39.0813494,37.5572794 38.7660361,37.6147353 C38.446012,37.6779265 38.1636265,37.8904706 37.9753735,38.2064118 C37.584747,38.8612794 37.7024096,39.7861176 38.2389277,40.2628824 L43.373506,44.8240588 L43.025241,44.8240588 C37.8529518,44.8412941 33.4195783,40.3089118 32.5301205,34.0875882 Z" id="Fill-1" fill="#7CB2B4"></path>
            <path d="M88.5071084,0.557352941 C83.3490361,0.563102941 78.5955422,3.96955882 76.083012,9.47279412 C73.5745783,3.96955882 68.8212048,0.563088235 63.6625301,0.557352941 L54.5416867,0.557352941 C53.5439518,0.557352941 52.7344578,1.54541176 52.7344578,2.76323529 L52.7344578,6.43970588 C52.7485783,16.0157353 59.1068675,23.7764706 66.9525301,23.7941176 L74.1814458,23.7941176 L74.1814458,70.7779412 L71.216506,67.1589706 C70.7411687,66.6649412 70.0258072,66.6936618 69.5833735,67.2393971 C69.1362771,67.7851176 69.1080361,68.6525441 69.5174819,69.2327794 L74.1908554,75.0002794 L74.1908554,94.7032206 C74.1955663,94.9559706 74.2332169,95.2029853 74.3038072,95.4385147 L66.6371807,95.4385147 C65.6394458,95.4385147 64.8299518,96.4265588 64.8299518,97.6443971 C64.8299518,98.8622132 65.6394458,99.8502721 66.6371807,99.8502721 L86.0130843,99.8502721 C87.0108193,99.8502721 87.8203133,98.8622132 87.8203133,97.6443971 C87.8203133,96.4265588 87.0108193,95.4385147 86.0130843,95.4385147 L77.6875422,95.4385147 C77.7581446,95.2029853 77.7957952,94.9559706 77.7957952,94.7032206 L77.7957952,40.9576176 L81.4949518,36.4424706 C81.9043976,35.8565294 81.8761687,34.9891176 81.4290602,34.4433529 C80.9866627,33.9033676 80.2713012,33.8689118 79.7959277,34.3686765 L77.8052048,36.7641176 L77.8052048,23.7930882 L85.2271325,23.7930882 C93.0819518,23.7758529 99.4403855,16.0092647 99.4452048,6.42691176 L99.4452048,2.75044118 C99.4452048,2.15876471 99.2428313,1.59005882 98.8945663,1.17647059 C98.5463012,0.762867647 98.0756627,0.544573529 97.5909518,0.556058824 L88.5071084,0.557352941 Z M88.4601205,4.96911765 L93.0016867,4.96911765 L88.3895181,8.99602941 L88.7613133,7.35308824 C88.8554337,6.96247059 88.8177831,6.54311765 88.6577711,6.19270588 C88.4930482,5.83654412 88.2153735,5.58379412 87.8906386,5.49188235 C87.5706145,5.39422059 87.2270482,5.46316176 86.9493735,5.68719118 C86.6716988,5.91122059 86.478747,6.26163235 86.4222651,6.66375 L85.4198193,11.6155147 L77.8896988,18.1872794 L77.8896988,17.9115441 C77.9038193,10.7653676 82.6524699,4.98066176 88.5071687,4.96919118 L88.4601205,4.96911765 Z M74.2757831,17.9114706 L74.2758313,18.1929559 L66.7456627,11.6154559 L65.7573373,6.61780882 C65.7008675,6.21569118 65.5126145,5.86527941 65.2302289,5.64125 C64.9525542,5.42295588 64.6136988,5.34827941 64.2889639,5.44594118 C63.9642289,5.54360294 63.6912651,5.79635294 63.5265422,6.14676471 C63.3618193,6.50292647 63.3241687,6.92226471 63.423,7.30714706 L63.7618554,8.9845 L59.1355904,4.94038235 L63.6771566,4.94038235 C69.5365542,4.95761765 74.2758313,10.7595 74.2758313,17.9114118 L74.2757831,17.9114706 Z M56.3492771,6.42823529 L56.3492623,6.14675 L66.1713253,14.7060147 L63.1121687,15.5159853 L63.1074578,15.5159853 C62.4438675,15.6021471 61.9591205,16.3259559 62.0297108,17.1417206 C62.1003133,17.9516912 62.698012,18.5433676 63.3616386,18.4572059 L63.6157831,18.4572059 L68.8068675,17.0727794 L71.4942169,19.4280735 L66.9526506,19.4280735 C64.1336145,19.4165882 61.4321687,18.0436471 59.4460241,15.6079265 C57.4553012,13.1664559 56.3445783,9.86925 56.3492771,6.42822059 L56.3492771,6.42823529 Z M85.2649398,19.3820588 L80.7233735,19.3820588 L83.4107229,17.0267647 L88.6018072,18.4111912 L88.8559518,18.4111912 C89.5195422,18.4973529 90.1172771,17.9056765 90.1878795,17.0957059 C90.2584699,16.2857353 89.7737229,15.5561471 89.1101325,15.4699706 L86.0133855,14.7059559 L95.8307349,6.13522059 L95.8307349,6.41670588 L95.8307349,6.41095588 C95.8307349,13.5686029 91.0820602,19.37625 85.2179639,19.3819853 L85.2649398,19.3820588 Z" id="Fill-2" fill="#7BC888"></path>
        </g>
    </g>
</svg>