<?xml version="1.0" encoding="UTF-8"?>
<svg width="1440px" height="724px" viewBox="0 0 1440 724" version="1.1" xmlns="http://www.w3.org/2000/svg" xmlns:xlink="http://www.w3.org/1999/xlink">
    <!-- Generator: Sketch 48.2 (47327) - http://www.bohemiancoding.com/sketch -->
    <title>Screen Shot 2018-01-29 at 22.47.04</title>
    <desc>Created with Sketch.</desc>
    <defs></defs>
    <g id="Background-Block" stroke="none" stroke-width="1" fill="none" fill-rule="evenodd">
        <g id="Page-1" transform="translate(849.000000, 244.000000)">
            <path d="M40,29.5007867 L40,118 L552,118 L552,29.5007867 C552,12.7839889 539.200315,0 522.461538,0 L69.5384615,0 C52.8003151,0 40,12.7833596 40,29.5007867 Z M128.612234,19.6671911 C134.519926,19.6671911 138.458388,23.6006294 138.458388,29.5007867 C138.458388,35.400944 134.519926,39.3343823 128.612234,39.3343823 C122.704542,39.3343823 118.76608,35.400944 118.76608,29.5007867 C118.76608,23.6006294 122.704542,19.6671911 128.612234,19.6671911 Z M99.0737723,19.6671911 C104.981465,19.6671911 108.919926,23.6006294 108.919926,29.5007867 C108.919926,35.400944 104.981465,39.3343823 99.0737723,39.3343823 C93.16608,39.3343823 89.2276185,35.400944 89.2276185,29.5007867 C89.2276185,23.6006294 93.16608,19.6671911 99.0737723,19.6671911 Z M69.5353108,19.6671911 C75.4430031,19.6671911 79.3814646,23.6006294 79.3814646,29.5007867 C79.3814646,35.400944 75.4430031,39.3343823 69.5353108,39.3343823 C63.6276185,39.3343823 59.6891569,35.400944 59.6891569,29.5007867 C59.6891569,23.6006294 63.6276185,19.6671911 69.5353108,19.6671911 Z M473.224468,98.3359556 L59.6860062,98.3359556 L59.6860062,59.0015734 L473.224468,59.0015734 L473.224468,98.3359556 Z M512.609083,98.3359556 C501.777999,98.3359556 492.916775,89.4860343 492.916775,78.6687645 C492.916775,67.8514947 501.777999,59.0015734 512.609083,59.0015734 C523.440167,59.0015734 532.301391,67.8514947 532.301391,78.6687645 C532.301391,89.4860343 523.440167,98.3359556 512.609083,98.3359556 Z" id="Fill-1" fill="#EAF6F9"></path>
            <polygon id="Fill-2" fill="#007991" points="78 195 324 195 324 176 78 176"></polygon>
            <polygon id="Fill-3" fill="#007991" points="78 235 492 235 492 216 78 216"></polygon>
            <polygon id="Fill-4" fill="#EAF6F9" points="78 315 324 315 324 296 78 296"></polygon>
            <polygon id="Fill-5" fill="#EAF6F9" points="78 352 492 352 492 333 78 333"></polygon>
            <polygon id="Fill-6" fill="#EAF6F9" points="78 431 324 431 324 412 78 412"></polygon>
            <polygon id="Fill-7" fill="#EAF6F9" points="78 470 492 470 492 451 78 451"></polygon>
            <path d="M560.499999,276 L29.5000013,276 C12.7836485,276 0,263.18603 0,246.428571 L0,167.571429 C0,150.814601 12.7830129,138 29.5000013,138 L560.499999,138 C577.216351,138 590,150.81397 590,167.571429 L590,246.428571 C590,263.185399 577.216981,276 560.499999,276 Z M29.5000013,157.714286 C23.600001,157.714286 19.6666675,161.657143 19.6666675,167.571429 L19.6666675,246.428571 C19.6666675,252.342857 23.600001,256.285714 29.5000013,256.285714 L560.499999,256.285714 C566.399999,256.285714 570.333332,252.342857 570.333332,246.428571 L570.333332,167.571429 C570.333332,161.657143 566.399999,157.714286 560.499999,157.714286 L29.5000013,157.714286 Z" id="Fill-8" fill="#F7CA5D"></path>
            <path d="M532.307692,296 L532.307692,562.400316 C532.307692,568.320253 528.369231,572.266877 522.461538,572.266877 L69.5384615,572.266877 C63.6307692,572.266877 59.6923077,568.320253 59.6923077,562.400316 L59.6923077,296 L40,296 L40,562.400316 C40,579.173154 52.7996849,592 69.5384615,592 L522.461538,592 C539.199685,592 552,579.173786 552,562.400316 L552,296 L532.307692,296 Z" id="Fill-9" fill="#EAF6F9"></path>
        </g>
        <g id="Page-1" transform="translate(815.000000, 347.000000)" fill="#FFFFFF">
            <path d="M7.55040323,36.8457661 L8.72699597,42.8421976 L12.8285282,43.9219556 L8.72699597,45.0017137 L7.55040323,51.000504 L6.37381048,45.0017137 L2.27227823,43.9219556 L6.37381048,42.8421976 L7.55040323,36.8457661 M7.55040323,35.3289516 C6.82508065,35.3289516 6.20131048,35.8416492 6.05959677,36.5527823 L5.06729839,41.6159476 L1.88481855,42.4546774 C1.21616935,42.6295121 0.753104839,43.2320161 0.753104839,43.9218952 C0.753104839,44.6117742 1.21854637,45.214254 1.88481855,45.3914718 L5.06729839,46.2278427 L6.05959677,51.2910087 C6.20135282,52.0045369 6.82508065,52.5171976 7.55040323,52.5171976 C8.27572581,52.5171976 8.89949597,52.0021411 9.04120968,51.2910087 L10.0358669,46.2278427 L13.2183468,45.3914718 C13.886996,45.2142722 14.3500605,44.6117742 14.3500605,43.9218952 C14.3500605,43.2320161 13.884619,42.6295363 13.2183468,42.4546774 L10.0358669,41.6159476 L9.04120968,36.5527823 C8.9018125,35.8416129 8.27808468,35.3289516 7.55040323,35.3289516" id="Fill-1"></path>
            <path d="M28.3175403,1.68262097 L29.2720363,6.55441532 L32.6033669,7.43094758 L29.2720363,8.30747984 L28.3175403,13.1816331 L27.3606855,8.30747984 L24.0293548,7.43094758 L27.3606855,6.55441532 L28.3175403,1.68262097 M28.3175403,0.449294355 C27.726879,0.449294355 27.2212702,0.865120968 27.105504,1.44395161 L26.2998589,5.55733871 L23.7151411,6.23778226 C23.1717298,6.37954435 22.7960887,6.8709879 22.7960887,7.43094758 C22.7960887,7.99090726 23.1741129,8.47997984 23.7151411,8.6241129 L26.2998589,9.30455645 L27.105504,13.4179435 C27.2212762,13.9967923 27.7268548,14.4149597 28.3175403,14.4149597 C28.9082016,14.4149597 29.4138105,13.9967681 29.5272177,13.4179435 L30.3352218,9.30455645 L32.9199395,8.6241129 C33.4609859,8.47999194 33.8389919,7.99090726 33.8389919,7.43094758 C33.8389919,6.8709879 33.4609677,6.38191532 32.9199395,6.23778226 L30.3352218,5.55733871 L29.5272177,1.44395161 C29.4114456,0.867467742 28.9058669,0.449294355 28.3175403,0.449294355" id="Fill-2"></path>
            <path d="M8.76915323,12.5221774 C9.85127016,12.5221774 10.7278024,13.3987097 10.7278024,14.4808266 C10.7278024,15.5629435 9.85127016,16.4394758 8.76915323,16.4394758 C7.68703629,16.4394758 6.81050403,15.5629435 6.81050403,14.4808266 C6.81050403,13.3987097 7.68703629,12.5221774 8.76915323,12.5221774 Z M8.76915323,10.8021371 C6.74197581,10.8021371 5.09288306,12.4512903 5.09288306,14.4784073 C5.09288306,16.5055847 6.74203629,18.1546774 8.76915323,18.1546774 C10.7963306,18.1546774 12.4454234,16.5055242 12.4454234,14.4784073 C12.4454234,12.4535887 10.7962702,10.8021371 8.76915323,10.8021371 Z" id="Fill-3"></path>
        </g>
        <g id="Page-1" transform="translate(832.000000, 513.500000) scale(1, -1) translate(-832.000000, -513.500000) translate(815.000000, 487.000000)" fill="#FFFFFF">
            <path d="M7.55040323,36.8457661 L8.72699597,42.8421976 L12.8285282,43.9219556 L8.72699597,45.0017137 L7.55040323,51.000504 L6.37381048,45.0017137 L2.27227823,43.9219556 L6.37381048,42.8421976 L7.55040323,36.8457661 M7.55040323,35.3289516 C6.82508065,35.3289516 6.20131048,35.8416492 6.05959677,36.5527823 L5.06729839,41.6159476 L1.88481855,42.4546774 C1.21616935,42.6295121 0.753104839,43.2320161 0.753104839,43.9218952 C0.753104839,44.6117742 1.21854637,45.214254 1.88481855,45.3914718 L5.06729839,46.2278427 L6.05959677,51.2910087 C6.20135282,52.0045369 6.82508065,52.5171976 7.55040323,52.5171976 C8.27572581,52.5171976 8.89949597,52.0021411 9.04120968,51.2910087 L10.0358669,46.2278427 L13.2183468,45.3914718 C13.886996,45.2142722 14.3500605,44.6117742 14.3500605,43.9218952 C14.3500605,43.2320161 13.884619,42.6295363 13.2183468,42.4546774 L10.0358669,41.6159476 L9.04120968,36.5527823 C8.9018125,35.8416129 8.27808468,35.3289516 7.55040323,35.3289516" id="Fill-1"></path>
            <path d="M28.3175403,1.68262097 L29.2720363,6.55441532 L32.6033669,7.43094758 L29.2720363,8.30747984 L28.3175403,13.1816331 L27.3606855,8.30747984 L24.0293548,7.43094758 L27.3606855,6.55441532 L28.3175403,1.68262097 M28.3175403,0.449294355 C27.726879,0.449294355 27.2212702,0.865120968 27.105504,1.44395161 L26.2998589,5.55733871 L23.7151411,6.23778226 C23.1717298,6.37954435 22.7960887,6.8709879 22.7960887,7.43094758 C22.7960887,7.99090726 23.1741129,8.47997984 23.7151411,8.6241129 L26.2998589,9.30455645 L27.105504,13.4179435 C27.2212762,13.9967923 27.7268548,14.4149597 28.3175403,14.4149597 C28.9082016,14.4149597 29.4138105,13.9967681 29.5272177,13.4179435 L30.3352218,9.30455645 L32.9199395,8.6241129 C33.4609859,8.47999194 33.8389919,7.99090726 33.8389919,7.43094758 C33.8389919,6.8709879 33.4609677,6.38191532 32.9199395,6.23778226 L30.3352218,5.55733871 L29.5272177,1.44395161 C29.4114456,0.867467742 28.9058669,0.449294355 28.3175403,0.449294355" id="Fill-2"></path>
            <path d="M8.76915323,12.5221774 C9.85127016,12.5221774 10.7278024,13.3987097 10.7278024,14.4808266 C10.7278024,15.5629435 9.85127016,16.4394758 8.76915323,16.4394758 C7.68703629,16.4394758 6.81050403,15.5629435 6.81050403,14.4808266 C6.81050403,13.3987097 7.68703629,12.5221774 8.76915323,12.5221774 Z M8.76915323,10.8021371 C6.74197581,10.8021371 5.09288306,12.4512903 5.09288306,14.4784073 C5.09288306,16.5055847 6.74203629,18.1546774 8.76915323,18.1546774 C10.7963306,18.1546774 12.4454234,16.5055242 12.4454234,14.4784073 C12.4454234,12.4535887 10.7962702,10.8021371 8.76915323,10.8021371 Z" id="Fill-3"></path>
        </g>
    </g>
</svg>