<?xml version="1.0" encoding="UTF-8"?>
<svg width="1200px" height="400px" viewBox="0 0 1200 400" version="1.1" xmlns="http://www.w3.org/2000/svg" xmlns:xlink="http://www.w3.org/1999/xlink">
    <!-- Generator: Sketch 48.2 (47327) - http://www.bohemiancoding.com/sketch -->
    <title>Rectangle</title>
    <desc>Created with Sketch.</desc>
    <defs></defs>
    <g id="Graphics" stroke="none" stroke-width="1" fill="none" fill-rule="evenodd">
        <g id="Page-1" transform="translate(400.000000, 49.000000)">
            <path d="M247,116.504342 C247,123.831886 236,123.831886 236,116.504342 C236,109.165219 247,109.165219 247,116.504342" id="Fill-1" fill="#E7F6F9"></path>
            <path d="M211,97.5043423 C211,104.831886 200,104.831886 200,97.5043423 C200,90.1652192 211,90.1652192 211,97.5043423" id="Fill-1" fill="#E7F6F9"></path>
            <path d="M200,133.495658 C200,140.834781 189,140.834781 189,133.495658 C189,126.168114 200,126.168114 200,133.495658" id="Fill-2" fill="#E7F6F9"></path>
            <path d="M177,188.495658 C177,195.834781 166,195.834781 166,188.495658 C166,181.168114 177,181.168114 177,188.495658" id="Fill-2" fill="#E7F6F9"></path>
            <path d="M252,75.4956577 C252,82.8347808 241,82.8347808 241,75.4956577 C241,68.1681141 252,68.1681141 252,75.4956577" id="Fill-2" fill="#E7F6F9"></path>
            <path d="M272,35.4956577 C272,42.8347808 261,42.8347808 261,35.4956577 C261,28.1681141 272,28.1681141 272,35.4956577" id="Fill-2" fill="#E7F6F9"></path>
            <path d="M313,5.49565767 C313,12.8347808 302,12.8347808 302,5.49565767 C302,-1.83188589 313,-1.83188589 313,5.49565767" id="Fill-2" fill="#E7F6F9"></path>
            <path d="M236,189.004128 C236,198.331957 222,198.331957 222,189.004128 C222,179.665291 236,179.665291 236,189.004128" id="Fill-3" fill="#E7F6F9"></path>
            <path d="M14,236.995962 C14,246.334679 0,246.334679 0,236.995962 C0,227.668013 14,227.668013 14,236.995962" id="Fill-4" fill="#E7F6F9"></path>
            <path d="M17,200.004038 C17,209.331987 3,209.331987 3,200.004038 C3,190.665321 17,190.665321 17,200.004038" id="Fill-5" fill="#E7F6F9"></path>
            <path d="M38,168.995962 C38,178.334679 24,178.334679 24,168.995962 C24,159.668013 38,159.668013 38,168.995962" id="Fill-6" fill="#E7F6F9"></path>
            <path d="M72,151.995962 C72,161.334679 58,161.334679 58,151.995962 C58,142.668013 72,142.668013 72,151.995962" id="Fill-7" fill="#E7F6F9"></path>
            <path d="M121,117.995962 C121,127.334679 107,127.334679 107,117.995962 C107,108.668013 121,108.668013 121,117.995962" id="Fill-8" fill="#E7F6F9"></path>
            <path d="M166,103.995962 C166,113.334679 152,113.334679 152,103.995962 C152,94.6680128 166,94.6680128 166,103.995962" id="Fill-8" fill="#E7F6F9"></path>
            <path d="M159,145.996031 C159,155.334656 145,155.334656 145,145.996031 C145,136.66799 159,136.66799 159,145.996031" id="Fill-9" fill="#E7F6F9"></path>
            <path d="M180,224.995962 C180,234.334679 166,234.334679 166,224.995962 C166,215.668013 180,215.668013 180,224.995962" id="Fill-10" fill="#E7F6F9"></path>
            <path d="M139,277.004038 C139,286.331987 125,286.331987 125,277.004038 C125,267.665321 139,267.665321 139,277.004038" id="Fill-11" fill="#E7F6F9"></path>
            <path d="M107,296.004038 C107,305.331987 93,305.331987 93,296.004038 C93,286.665321 107,286.665321 107,296.004038" id="Fill-12" fill="#E7F6F9"></path>
            <path d="M69,296.004038 C69,305.331987 55,305.331987 55,296.004038 C55,286.665321 69,286.665321 69,296.004038" id="Fill-13" fill="#E7F6F9"></path>
            <path d="M36,278.004038 C36,287.331987 22,287.331987 22,278.004038 C22,268.665321 36,268.665321 36,278.004038" id="Fill-14" fill="#E7F6F9"></path>
            <path d="M81,350 C80.4146357,350 80,349.404897 80,348.746026 L80,232.307105 C80,231.541972 80.4552834,231 81,231 C81.5447166,231 82,231.595103 82,232.307105 L82,348.746026 C82,349.404897 81.5447166,350 81,350 Z" id="Fill-15" fill="#007991"></path>
            <path d="M100,225.5 C100,235.721082 91.7210819,244 81.5,244 C71.2789181,244 63,235.721082 63,225.5 C63,215.289751 71.2789181,207 81.5,207 C91.7210819,207 100,215.289751 100,225.5" id="Fill-16" fill="#007991"></path>
            <path d="M90.5822559,196.999806 C90.4148062,196.999806 90.2362407,196.999806 90.0687909,196.94556 C89.2651178,196.66347 88.8632955,195.838866 89.0418895,195.057675 L96.9891813,171.057828 C97.2124095,170.276637 98.1277254,169.831782 98.8755915,170.059625 C99.7350717,170.341715 100.136923,171.166319 99.9583285,171.94751 L92.0110368,196.001798 C91.7766357,196.620251 91.1515566,197 90.5822845,197 L90.5822559,196.999806 Z" id="Fill-17" fill="#5B7C8D"></path>
            <path d="M105.470923,206 C105.090211,206 104.656595,205.83814 104.392192,205.503591 C103.852826,204.899274 103.852826,203.960436 104.497942,203.399272 L122.529687,186.381176 C123.121928,185.830813 124.042007,185.884767 124.581373,186.489083 C125.173614,187.093399 125.120739,188.032237 124.528498,188.593401 L106.443959,205.611497 C106.179555,205.827338 105.798842,205.999972 105.470978,205.999972 L105.470923,206 Z" id="Fill-18" fill="#5B7C8D"></path>
            <path d="M112.499882,219.999914 C111.78634,219.999914 111.189951,219.486792 111.030213,218.795194 C110.870476,217.947424 111.360348,217.144316 112.116502,216.910043 L136.216926,211.031508 C136.983713,210.864198 137.793085,211.377292 137.963482,212.236227 C138.13388,213.083998 137.697254,213.942904 136.877194,214.121379 L112.829934,219.94423 C112.723443,220 112.606291,220 112.4998,220 L112.499882,219.999914 Z" id="Fill-19" fill="#5B7C8D"></path>
            <path d="M136.516673,242.999837 C136.355071,242.999837 136.2366,242.999837 136.074998,242.946634 L112.085139,235.923509 C111.255676,235.646845 110.867859,234.8381 111.040216,234.071933 C111.320289,233.252564 112.138998,232.869467 112.914603,233.039727 L136.904461,240.126869 C137.669284,240.329055 138.164817,241.148424 137.949385,241.914591 C137.72317,242.563701 137.119921,243 136.516673,243 L136.516673,242.999837 Z" id="Fill-20" fill="#5B7C8D"></path>
            <path d="M120.497238,268 C120.11513,268 119.732996,267.838692 119.414555,267.505283 L102.399605,249.502025 C101.858264,248.889004 101.858264,248.007136 102.452674,247.404879 C103.047085,246.856393 103.917465,246.856393 104.5225,247.458649 L121.579839,265.461907 C122.17425,266.064163 122.121181,266.946031 121.52677,267.559052 C121.250801,267.838664 120.879291,268 120.497156,268 L120.497238,268 Z" id="Fill-21" fill="#5B7C8D"></path>
            <path d="M40.4904225,266 C40.0588159,266 39.6798666,265.837261 39.4166879,265.500895 C38.8271903,264.839051 38.8798206,263.949361 39.4693183,263.385149 L57.5754524,246.383246 C58.16495,245.829895 59.0807667,245.884141 59.6281708,246.491739 C60.1650381,247.153583 60.1124078,248.043272 59.5229101,248.607484 L41.5221445,265.609388 C41.1958255,265.89148 40.8694796,265.999972 40.4905303,265.999972 L40.4904225,266 Z" id="Fill-22" fill="#5B7C8D"></path>
            <path d="M26.4500848,241 C25.8017253,241 25.1958677,240.473835 25.0364444,239.764658 C24.866382,238.883918 25.3021771,238.014599 26.1205991,237.888804 L50.1736831,232.032435 C50.9921051,231.860843 51.810527,232.387009 51.9699776,233.210561 C52.1294009,234.022663 51.6404918,234.960619 50.8220426,235.143631 L26.7689587,241 L26.4500848,241 Z" id="Fill-23" fill="#5B7C8D"></path>
            <path d="M51.5100512,217.999813 C51.4020126,217.999813 51.2291397,217.947501 51.0670541,217.947501 L27.1132361,210.874559 C26.2812888,210.602527 25.8382917,209.807324 26.0543967,209.053985 C26.3353082,208.248336 27.1564681,207.871653 27.934396,208.039062 L51.9421504,215.164502 C52.7740976,215.373749 53.1630754,216.231738 52.9361832,216.932764 C52.7741253,217.571006 52.1690702,218 51.5099682,218 L51.5100512,217.999813 Z" id="Fill-24" fill="#5B7C8D"></path>
            <path d="M59.4927187,204 C59.05623,204 58.6729943,203.839512 58.4068387,203.507799 L41.3947908,185.489297 C40.8518508,184.890104 40.8518508,184.012722 41.5012421,183.40282 C42.0974078,182.857123 42.9703579,182.857123 43.5771796,183.456316 L60.5785988,201.474818 C61.1747644,202.074011 61.1215388,203.004889 60.5253731,203.561295 C60.2592447,203.839485 59.8759817,204 59.4927187,204 Z" id="Fill-25" fill="#5B7C8D"></path>
            <path d="M73.5464352,195.999809 C72.8179545,195.999809 72.2634385,195.562194 72.100357,194.847109 L66.0333032,170.853731 C65.8702218,170.042548 66.3159889,169.22071 67.1531906,169.049938 C67.9903922,168.836486 68.762378,169.327436 68.9363427,170.138618 L74.9491195,194.185551 C75.1665893,195.007389 74.6664338,195.711818 73.8400876,195.935954 C73.7748439,196 73.6661229,196 73.5465187,196 L73.5464352,195.999809 Z" id="Fill-26" fill="#5B7C8D"></path>
            <path d="M80.6550495,351 C79.9461912,351 79.4066117,350.506657 79.3537154,349.84172 C79.1421305,348.694175 75.6718342,321.464023 45.6658835,320.692532 C46.0467472,325.582852 48.427159,341.938191 64.7310079,346.442491 C65.4398662,346.656999 65.8736533,347.375529 65.7043745,348.094086 C65.4927896,348.812644 64.7839313,349.252367 64.075073,349.027124 C43.2220938,343.321658 43,319.597893 43,319.37276 C43,318.986685 43.1587158,318.654203 43.3808637,318.386075 C43.655935,318.10724 43.9733395,318 44.3542303,318 C77.9987268,318 81.9449538,349.186364 81.9964145,349.518572 C82.0493108,350.23713 81.5097313,350.891332 80.8537692,350.944952 C80.7691298,350.998572 80.7056435,350.998572 80.6527473,350.998572 L80.6550495,351 Z" id="Fill-27" fill="#007991"></path>
        </g>
    </g>
</svg>