<?xml version="1.0" encoding="UTF-8"?>
<svg width="1918px" height="1920px" viewBox="0 0 1918 1920" version="1.1" xmlns="http://www.w3.org/2000/svg" xmlns:xlink="http://www.w3.org/1999/xlink">
    <!-- Generator: Sketch 48.2 (47327) - http://www.bohemiancoding.com/sketch -->
    <title>seo</title>
    <desc>Created with Sketch.</desc>
    <defs></defs>
    <g id="Page-1" stroke="none" stroke-width="1" fill="none" fill-rule="evenodd">
        <g id="seo" fill-rule="nonzero">
            <path d="M1680.3,0.2 C1685.3,3.4 1691.9,4.6 1689.3,13.8 C1670.4,81.8 1658.4,151.7 1631.4,217.6 C1602.3,288.7 1550.9,336.3 1481.3,366.4 C1408.2,398 1331.7,410.3 1252.6,409.1 C1251.2,409.1 1249.7,408.6 1245.7,407.7 C1325.9,319.8 1411.1,239.7 1501.5,165 C1405.6,232.2 1318.9,310.2 1233,394.2 C1237.4,355.5 1245.1,320.7 1256,286.8 C1277.1,221.1 1308.8,161.4 1358.4,112.2 C1418.4,52.7 1491.7,20.5 1574,6.2 C1588,3.8 1602.6,5.6 1616.1,0.1 C1637.6,0.2 1659,0.2 1680.3,0.2 Z" id="Shape" fill="#F2F2F2"></path>
            <path d="M3.6,1001.5 L2.2,1001.6 L0.9,1001.4 C0.9,984.3 0.9,967.3 0.9,950.2 C1.8,949.9 2.6,949.8 3.5,950.1 C12.3,967.2 12.2,984.4 3.6,1001.5 Z" id="Shape" fill="#D2D4DA"></path>
            <path d="M1766.7,1919.5 C1766.7,1918.5 1766.5,1917.6 1766.2,1916.7 C1780.3,1908.4 1794.5,1908.5 1808.7,1916.6 C1808.2,1917.5 1808,1918.5 1808.3,1919.5 C1794.4,1919.5 1780.5,1919.5 1766.7,1919.5 Z" id="Shape" fill="#73798B"></path>
            <path d="M1808.6,1916.6 C1794.4,1916.6 1780.3,1916.7 1766.1,1916.7 C1739.3,1913.7 1716.5,1901.5 1695.7,1885.2 C1557.6,1776.5 1419.6,1667.7 1281.6,1558.9 C1269.5,1550.6 1265.5,1536.1 1255.8,1537.8 C1247.1,1539.3 1239.9,1549.5 1231.9,1555.8 C1085.3,1670.8 919.1,1728.9 732.6,1722.9 C390.2,1711.8 108.7,1484.5 24.6,1153.1 C12,1103.5 5.5,1052.8 3.5,1001.6 C3.5,984.4 3.4,967.3 3.4,950.1 C13.9,729.2 105.3,547.4 269.2,401 C322.5,353.4 383.1,317.3 449.3,290.5 C456.3,287.7 460.3,286.8 464.7,294.4 C484.2,328 503.1,362 525.4,393.9 C533.2,405.1 521.5,403.9 517.5,405.4 C462.4,426.4 411,454.1 364.5,490.2 C238.8,587.8 164,716 141.5,873.4 C118.3,1035.2 148.3,1186.7 241.5,1322.3 C340,1465.7 476.7,1553.8 648.1,1583.4 C959.7,1637.3 1254.9,1454.9 1348.5,1153.1 C1364.4,1102 1373.4,1049.7 1374.2,996.1 C1374.4,984.6 1375.4,978.3 1388.8,986.6 C1419.6,1005.5 1450.9,1005.4 1482.6,987.8 C1505.9,974.9 1505.9,975.4 1505.2,1000.7 C1501.9,1112.1 1474,1217.2 1424.3,1316.6 C1419.1,1327.1 1420.5,1332.4 1429.7,1339.6 C1571.5,1450.6 1713,1562 1854.7,1673.2 C1884.5,1696.6 1906.6,1724.7 1915,1762.5 C1930.4,1832.6 1880,1906 1808.6,1916.6 Z" id="Shape" fill="#FFFFFF"></path>
            <path d="M1151.7,450.8 C1023.5,425.8 899.3,392.7 777.6,349.7 C895.7,401.4 1018.7,438 1146.8,469.5 C1120,482.9 1094.6,491.7 1068.9,499.6 C1017.3,515.4 964.5,525.1 910.5,524.1 C813.3,522.3 727.8,489.4 654,425.4 C607.9,385.4 572,337.9 542.8,284.6 C538,275.8 538.8,272 548.9,269.1 C606,252.5 661.8,231.4 719.8,217.6 C776.2,204.1 833,197.4 889.9,214.5 C937,228.7 978.1,254.3 1015.9,284.9 C1069.1,327.9 1111.5,380.1 1145.8,439.1 C1147.8,442.3 1149.3,445.7 1151.7,450.8 Z" id="Shape" fill="#F2F2F2"></path>
            <path d="M1462.7,911.6 C1461.1,923.1 1460.3,935.4 1448,941.4 C1436.3,947.1 1425.5,943.8 1415,936.7 C1397.5,924.8 1391.5,907.3 1389.1,887.7 C1382.3,831.9 1377.5,775.7 1363.6,720.9 C1339.5,625.5 1292.4,544.9 1212.2,485.5 C1200.5,476.8 1191.1,465.6 1190.4,449.9 C1189.8,435.6 1196.9,430.1 1210.4,435.1 C1240.9,446.4 1266.1,466.1 1289.6,487.9 C1344.7,538.9 1380.9,602.1 1407.9,671.5 C1435.8,743.3 1453.3,817.4 1459.8,894.1 C1460.4,899.9 1461.7,905.6 1462.7,911.6 Z" id="Shape" fill="#F2F2F2"></path>
        </g>
    </g>
</svg>