<?xml version="1.0" encoding="UTF-8"?>
<svg width="2000px" height="2000px" viewBox="0 0 2000 2000" version="1.1" xmlns="http://www.w3.org/2000/svg" xmlns:xlink="http://www.w3.org/1999/xlink">
    <!-- Generator: Sketch 48.2 (47327) - http://www.bohemiancoding.com/sketch -->
    <title>seo</title>
    <desc>Created with Sketch.</desc>
    <defs></defs>
    <g id="Page-6" stroke="none" stroke-width="1" fill="none" fill-rule="evenodd">
        <g id="social" transform="translate(207.000000, 44.000000)" fill-rule="nonzero">
            <path d="M609.5,1911.7 C390.7,1908.6 197.2,1837.9 30.7,1694.8 C18.2,1684 4.5,1674.4 1.2,1656.5 C-3.1,1633.3 7.5,1612.4 31.2,1599.4 C114.7,1553.6 202.8,1519.6 295.4,1497.3 C318.9,1491.6 317.5,1491.7 319.3,1467.7 C321.2,1441.7 314.5,1420.3 299,1399 C274.6,1365.5 258.3,1327.3 245.7,1287.7 C243.9,1282 242.2,1275.6 238.5,1271.3 C191.8,1217.4 175.3,1151.3 162.8,1083.7 C156.7,1050.8 151.8,1014.8 168.6,986.3 C192.3,946.2 182.8,907.4 178.1,867.2 C170.5,802 170.1,737 193.4,674.4 C216.2,613.1 257,570.5 323.3,557.1 C330.8,555.6 333,551.7 335.4,545.9 C372.6,455.2 483.8,391.8 580.2,408.4 C656,421.5 731.9,419.1 808,415.3 C842.7,413.6 877.3,410.3 911.9,406.9 C927.5,405.3 931.5,412 930.2,426 C928.1,449.2 920.6,470.2 905.4,487.9 C899.9,494.3 900.9,496.8 907.2,501.4 C999.4,568.1 1035.9,663.3 1043.8,772.4 C1047.7,827.1 1043.3,881.6 1032.7,935.4 C1031.6,940.8 1030,946 1033.7,951.2 C1059.9,988.2 1063.6,1030 1057.7,1073.1 C1050.1,1128 1038.2,1182.7 1008.4,1229.6 C985.2,1266.1 967.5,1304.3 950.8,1343.7 C941.1,1366.6 929.4,1389 913.4,1407.8 C899.5,1424.1 899.6,1441.6 899.9,1460.3 C900.6,1497.4 895,1488.4 929.3,1497 C1020,1519.8 1106.6,1553.2 1188.6,1598.3 C1225,1618.3 1229.5,1658.3 1198.4,1685.9 C1066.8,1802.9 914.1,1875.1 739.9,1901.6 C696.7,1908.1 653.3,1911.6 609.5,1911.7 Z" id="Shape" fill="#324F75"></path>
            <path d="M1196.4,559.8 C1148.2,559.8 1108.4,559.9 1068.5,559.8 C1040.3,559.7 1025.2,545.1 1025.1,516.7 C1024.9,439.5 1024.6,362.2 1025.2,285 C1025.7,218.9 1044.6,158.4 1086.5,106.7 C1131.3,51.4 1188.7,16.8 1259.4,4.4 C1317,-5.7 1372,1.9 1424.2,26.9 C1507.2,66.6 1560.9,131.8 1579.3,221.9 C1599.5,320.6 1573.1,408 1501.4,479.6 C1456.9,524.1 1402,549.8 1339.7,557.2 C1289.5,563.2 1238.7,558.8 1196.4,559.8 Z" id="Shape" fill="#007991"></path>
            <path d="M608.6,1485.4 C523.5,1482.6 457.6,1442.3 404.6,1378.5 C367.3,1333.7 342.8,1282.3 332.2,1224.7 C331.2,1219.1 330.2,1213.3 324.1,1211.3 C308.3,1206.2 300.9,1193.1 294.7,1179.5 C274.7,1136.2 259.6,1091.4 258.3,1043.2 C257.5,1013 261.9,1007.9 291,1001 C301.3,998.6 301,990.4 301.9,983 C306.2,947.8 314.7,913.8 328.3,881 C370.2,779.7 447,745.9 550.1,784.5 C600.1,803.2 649.6,823.2 702.5,832.7 C754.5,842 806.5,845.3 858.7,835 C869.6,832.8 877.6,835.4 885.3,843.1 C924.2,881.4 932,927.9 920.6,978.8 C917.2,994.2 918.9,1001.9 936.6,1002.2 C949.1,1002.5 955.8,1010.8 959,1022.9 C963.6,1040.6 961.2,1058.2 957.8,1075.4 C950.9,1110.6 941.1,1145 925.6,1177.5 C918.7,1191.9 912,1206.5 894.7,1212 C886.3,1214.7 887.7,1223.8 886.1,1230.4 C861.4,1333.7 804,1412 709.2,1461.3 C677.8,1477.8 644.3,1485.8 608.6,1485.4 Z" id="Shape" fill="#FEFEFE"></path>
            <path d="M847.9,1587.9 C732.5,1743.1 499,1747 378.6,1596.9 C372,1588.7 372.2,1585.2 381.1,1579.8 C397.5,1569.8 409.7,1555.1 417.2,1537.8 C422.4,1525.6 426.6,1527.4 435.8,1533 C494.2,1568.5 557.4,1586.4 626.1,1582.9 C681.6,1580.1 733.1,1563.4 780.5,1534.8 C791.5,1528.1 797.5,1524.8 803.7,1540.7 C811.7,1561.1 828.6,1575.2 847.9,1587.9 Z" id="Shape" fill="#FEFEFE"></path>
            <path d="M1333.3,132.2 C1349.3,132.2 1358.4,139.7 1362.8,156.7 C1366.9,172.5 1366.9,172.5 1382.8,168.7 C1402.6,164 1418.7,173 1422.7,191 C1426.2,206.8 1414.8,221.7 1396.5,226.8 C1378.7,231.8 1381.5,226.8 1385.4,245.1 C1387.5,254.9 1390.4,264.5 1392.7,274.2 C1394.1,279.9 1396.3,282.5 1402.7,279.9 C1407.9,277.8 1413.4,276.5 1418.9,275.5 C1433.9,272.6 1449.8,282.4 1453.9,296.6 C1458.3,311.8 1451.2,327.1 1436.7,333.4 C1434.9,334.2 1433,334.8 1431,335.4 C1409.4,342.3 1409.1,342.4 1415.9,365.1 C1419.4,376.8 1416.7,386.6 1408.5,394.9 C1401.2,402.3 1392.6,407 1381.5,404 C1369.7,400.8 1361.5,393.9 1358.1,382 C1350.4,355.4 1350.5,355.4 1323.5,363.4 C1301.1,370.1 1301.1,370.1 1306.4,392.2 C1311.3,412.9 1302.8,428.1 1283.5,433 C1267.8,437 1253.8,426.2 1248.4,406.5 C1241.9,382.9 1246.7,381.8 1219,390.6 C1198.9,396.9 1181.9,383.2 1177.9,367.7 C1174,352.8 1185.5,337 1203.2,332.6 C1226.6,326.7 1226.6,326.7 1220.8,303.6 C1220.1,300.9 1219.5,298.1 1218.8,295.4 C1213.1,273.1 1213.1,273.1 1190.9,279.6 C1168.2,286.2 1148.7,271.2 1150.3,248.2 C1151.1,236.7 1161.2,225.2 1173.6,222 C1181.7,219.9 1193,220.7 1196.9,214.6 C1200.9,208.4 1194.4,198.8 1192.5,190.7 C1188.5,173.3 1197.9,157 1214.9,152.5 C1229.1,148.8 1244.5,158.8 1250.1,174.5 C1253.1,182.9 1250.6,195.8 1259.5,198.9 C1266.5,201.3 1276.2,195.6 1284.7,193.5 C1286.3,193.1 1287.9,193 1289.4,192.6 C1308.7,187.7 1308.7,187.7 1304.3,168.3 C1299.8,149.1 1313.3,132.3 1333.3,132.2 Z" id="Shape" fill="#FEFEFE"></path>
            <path d="M1336.5,290.8 C1337.2,296.1 1333.2,296.8 1329.7,297.7 C1317.7,300.9 1305.7,303.8 1293.8,307.3 C1288.5,308.9 1286.5,307.1 1285.2,302.3 C1281.8,289.6 1278.5,276.8 1274.6,264.2 C1272.9,258.8 1275,256.9 1279.7,255.8 C1292.1,252.8 1304.5,249.5 1316.9,246.4 C1320.7,245.5 1324.5,245.7 1325.8,250.1 C1329.6,263.7 1333,277.3 1336.5,290.8 Z" id="Shape" fill="#007991"></path>
        </g>
    </g>
</svg>