<?xml version="1.0" encoding="UTF-8"?>
<svg width="1440px" height="724px" viewBox="0 0 1440 724" version="1.1" xmlns="http://www.w3.org/2000/svg" xmlns:xlink="http://www.w3.org/1999/xlink">
    <!-- Generator: Sketch 48.2 (47327) - http://www.bohemiancoding.com/sketch -->
    <title>SEO Background</title>
    <desc>Created with Sketch.</desc>
    <defs></defs>
    <g id="Page-1" stroke="none" stroke-width="1" fill="none" fill-rule="evenodd">
        <g id="SEO-Background">
            <circle id="Oval-2" stroke="#007991" cx="681.5" cy="486.5" r="2.5"></circle>
            <circle id="Oval-2" stroke="#007991" cx="825.5" cy="556.5" r="2.5"></circle>
            <g id="Group" transform="translate(32.000000, 83.000000)">
                <g id="Cross" transform="translate(0.000000, 132.000000)" stroke="#65CAC5" stroke-linecap="round" stroke-width="4">
                    <path d="M0,0 L6.747692,7.38028812" id="Line"></path>
                    <path d="M0,0 L6.747692,7.38028812" id="Line" transform="translate(3.373846, 3.690144) scale(-1, 1) translate(-3.373846, -3.690144) "></path>
                </g>
                <g id="Group-8" transform="translate(43.000000, 68.000000)" stroke="#979797" stroke-linecap="round" stroke-width="4">
                    <path d="M0,0 L6.747692,7.38028812" id="Line"></path>
                    <path d="M0,0 L6.747692,7.38028812" id="Line" transform="translate(3.373846, 3.690144) scale(-1, 1) translate(-3.373846, -3.690144) "></path>
                </g>
                <g id="Group-6" transform="translate(62.000000, 0.000000)" stroke="#007991" stroke-linecap="round" stroke-width="4">
                    <path d="M0,0 L6.747692,7.38028812" id="Line"></path>
                    <path d="M0,0 L6.747692,7.38028812" id="Line" transform="translate(3.373846, 3.690144) scale(-1, 1) translate(-3.373846, -3.690144) "></path>
                </g>
                <circle id="Oval" stroke="#31CDC6" stroke-width="2" cx="6.5" cy="71.5" r="2.5"></circle>
                <circle id="Oval" stroke="#007991" stroke-width="2" cx="59.5" cy="142.5" r="2.5"></circle>
                <circle id="Oval" stroke="#65CAC5" stroke-width="2" cx="97.5" cy="39.5" r="2.5"></circle>
                <circle id="Oval" stroke="#65CAC5" stroke-width="2" cx="32.5" cy="433.5" r="2.5"></circle>
                <g id="Cross" transform="translate(35.000000, 334.000000)" stroke="#979797" stroke-linecap="round" stroke-width="4">
                    <path d="M0,0 L6.747692,7.38028812" id="Line"></path>
                    <path d="M0,0 L6.747692,7.38028812" id="Line" transform="translate(3.373846, 3.690144) scale(-1, 1) translate(-3.373846, -3.690144) "></path>
                </g>
                <g id="Cross" transform="translate(42.000000, 198.000000)" stroke="#66B6AB" stroke-linecap="round" stroke-width="4">
                    <path d="M0,0 L6.747692,7.38028812" id="Line"></path>
                    <path d="M0,0 L6.747692,7.38028812" id="Line" transform="translate(3.373846, 3.690144) scale(-1, 1) translate(-3.373846, -3.690144) "></path>
                </g>
                <g id="Group-6" transform="translate(4.000000, 264.000000)" stroke="#007991" stroke-linecap="round" stroke-width="4">
                    <path d="M0,0 L6.747692,7.38028812" id="Line"></path>
                    <path d="M0,0 L6.747692,7.38028812" id="Line" transform="translate(3.373846, 3.690144) scale(-1, 1) translate(-3.373846, -3.690144) "></path>
                </g>
            </g>
            <circle id="Oval" stroke="#66B6AB" stroke-width="2" cx="28.5" cy="302.5" r="2.5"></circle>
            <circle id="Oval" stroke="#007991" stroke-width="2" cx="38.5" cy="474.5" r="2.5"></circle>
            <g id="Group-8" transform="translate(29.000000, 536.000000)" stroke="#979797" stroke-linecap="round" stroke-width="4">
                <path d="M0,0 L6.747692,7.38028812" id="Line"></path>
                <path d="M0,0 L6.747692,7.38028812" id="Line" transform="translate(3.373846, 3.690144) scale(-1, 1) translate(-3.373846, -3.690144) "></path>
            </g>
            <circle id="Oval-2" stroke="#007991" cx="59.5" cy="575.5" r="2.5"></circle>
            <circle id="Oval-2" stroke="#007991" cx="89.5" cy="457.5" r="2.5"></circle>
            <circle id="Oval-2" stroke="#007991" cx="31.5" cy="397.5" r="2.5"></circle>
            <circle id="Oval-2" stroke="#007991" cx="35.5" cy="91.5" r="2.5"></circle>
            <circle id="Oval-3" stroke="#E7F6F9" stroke-width="3" cx="724" cy="425" r="5"></circle>
            <circle id="Oval-3" stroke="#E7F6F9" stroke-width="3" cx="1270" cy="657" r="5"></circle>
            <g id="Page-1" transform="translate(1254.196699, 552.000000)" fill="#E7F6F9">
                <path d="M21.6744186,74.6860465 C21.6744186,76.9956977 22.5941977,79.2169186 24.2293023,80.852093 C25.864407,82.4872674 28.0855233,83.4069767 30.3953488,83.4069767 L138.534884,83.4069767 C140.844535,83.4069767 143.065756,82.4871977 144.70093,80.852093 C146.336105,79.2169884 147.255814,76.9958721 147.255814,74.6860465 L147.255814,9.57209302 C147.255814,7.26244186 146.336035,5.04122093 144.70093,3.40604651 C143.065826,1.77087209 140.844709,0.851162791 138.534884,0.851162791 L30.3953488,0.851162791 C25.5784302,0.851162791 21.6744186,4.76197674 21.6744186,9.57209302 L21.6744186,12.590407 L3.70755814,14.2460233 L3.70755814,14.2528256 C2.27678488,14.3959186 1.08447674,15.3974477 0.696046512,16.7873023 C0.314505814,18.1703895 0.81187093,19.648814 1.96330233,20.5141047 L21.6743488,35.339686 L21.6744186,74.6860465 Z M13.3555233,20.3581395 L25.5648256,19.2407791 C27.3498256,19.0295756 28.6921512,17.496593 28.6511628,15.6979884 L28.6511628,9.57293023 C28.6511628,8.61226744 29.434686,7.82874419 30.3953488,7.82874419 L138.534884,7.82874419 C138.998174,7.82874419 139.441041,8.01270349 139.768076,8.33973837 C140.09511,8.66677326 140.27907,9.11644186 140.27907,9.57293023 L140.27907,74.6868837 C140.27907,75.1501919 140.09511,75.5930407 139.768076,75.9200756 C139.441041,76.2471105 138.998174,76.4310698 138.534884,76.4310698 L30.3953488,76.4310698 C29.434686,76.4310698 28.6511628,75.6475465 28.6511628,74.6868837 L28.6511628,33.6095581 C28.6511628,32.5126221 28.1333488,31.4769419 27.2544535,30.8228721 L13.3555233,20.3581395 Z" id="Fill-1"></path>
                <path d="M48.6063953,45.6069767 L121.862209,45.6069767 C123.783605,45.6069767 125.350581,44.04675 125.350581,42.1186047 C125.350581,40.1972093 123.783535,38.6302326 121.862209,38.6302326 L48.6063953,38.6302326 C46.6781977,38.6302326 45.1180233,40.1972791 45.1180233,42.1186047 C45.1180233,44.0468023 46.67825,45.6069767 48.6063953,45.6069767 Z" id="Fill-2"></path>
                <path d="M48.6063953,63.0488372 L88.7226744,63.0488372 C90.6440698,63.0488372 92.2110465,61.4886105 92.2110465,59.5604651 C92.2110465,57.6390698 90.644,56.072093 88.7226744,56.072093 L48.6063953,56.072093 C46.6781977,56.072093 45.1180233,57.6391395 45.1180233,59.5604651 C45.1180233,61.4886628 46.67825,63.0488372 48.6063953,63.0488372 Z" id="Fill-3"></path>
                <path d="M48.6063953,28.1651163 L121.862209,28.1651163 C123.783605,28.1651163 125.350581,26.6048895 125.350581,24.6767442 C125.350581,22.7553488 123.783535,21.1883721 121.862209,21.1883721 L48.6063953,21.1883721 C46.6781977,21.1883721 45.1180233,22.7554186 45.1180233,24.6767442 C45.1180233,26.6049419 46.67825,28.1651163 48.6063953,28.1651163 Z" id="Fill-4"></path>
            </g>
            <g id="Page-1" transform="translate(768.000000, 496.000000) scale(-1, -1) translate(-768.000000, -496.000000) translate(694.000000, 454.000000)" fill="#E7F6F9">
                <path d="M21.6744186,74.6860465 C21.6744186,76.9956977 22.5941977,79.2169186 24.2293023,80.852093 C25.864407,82.4872674 28.0855233,83.4069767 30.3953488,83.4069767 L138.534884,83.4069767 C140.844535,83.4069767 143.065756,82.4871977 144.70093,80.852093 C146.336105,79.2169884 147.255814,76.9958721 147.255814,74.6860465 L147.255814,9.57209302 C147.255814,7.26244186 146.336035,5.04122093 144.70093,3.40604651 C143.065826,1.77087209 140.844709,0.851162791 138.534884,0.851162791 L30.3953488,0.851162791 C25.5784302,0.851162791 21.6744186,4.76197674 21.6744186,9.57209302 L21.6744186,12.590407 L3.70755814,14.2460233 L3.70755814,14.2528256 C2.27678488,14.3959186 1.08447674,15.3974477 0.696046512,16.7873023 C0.314505814,18.1703895 0.81187093,19.648814 1.96330233,20.5141047 L21.6743488,35.339686 L21.6744186,74.6860465 Z M13.3555233,20.3581395 L25.5648256,19.2407791 C27.3498256,19.0295756 28.6921512,17.496593 28.6511628,15.6979884 L28.6511628,9.57293023 C28.6511628,8.61226744 29.434686,7.82874419 30.3953488,7.82874419 L138.534884,7.82874419 C138.998174,7.82874419 139.441041,8.01270349 139.768076,8.33973837 C140.09511,8.66677326 140.27907,9.11644186 140.27907,9.57293023 L140.27907,74.6868837 C140.27907,75.1501919 140.09511,75.5930407 139.768076,75.9200756 C139.441041,76.2471105 138.998174,76.4310698 138.534884,76.4310698 L30.3953488,76.4310698 C29.434686,76.4310698 28.6511628,75.6475465 28.6511628,74.6868837 L28.6511628,33.6095581 C28.6511628,32.5126221 28.1333488,31.4769419 27.2544535,30.8228721 L13.3555233,20.3581395 Z" id="Fill-1"></path>
                <path d="M48.4883721,45.9767442 L121.744186,45.9767442 C123.665581,45.9767442 125.232558,44.4165174 125.232558,42.4883721 C125.232558,40.5669767 123.665512,39 121.744186,39 L48.4883721,39 C46.5601744,39 45,40.5670465 45,42.4883721 C45,44.4165698 46.5602267,45.9767442 48.4883721,45.9767442 Z" id="Fill-2"></path>
                <path d="M81.4883721,62.9767442 L121.604651,62.9767442 C123.526047,62.9767442 125.093023,61.4165174 125.093023,59.4883721 C125.093023,57.5669767 123.525977,56 121.604651,56 L81.4883721,56 C79.5601744,56 78,57.5670465 78,59.4883721 C78,61.4165698 79.5602267,62.9767442 81.4883721,62.9767442 Z" id="Fill-3"></path>
                <path d="M48.6063953,28.1651163 L121.862209,28.1651163 C123.783605,28.1651163 125.350581,26.6048895 125.350581,24.6767442 C125.350581,22.7553488 123.783535,21.1883721 121.862209,21.1883721 L48.6063953,21.1883721 C46.6781977,21.1883721 45.1180233,22.7554186 45.1180233,24.6767442 C45.1180233,26.6049419 46.67825,28.1651163 48.6063953,28.1651163 Z" id="Fill-4"></path>
            </g>
            <g id="Group-8" transform="translate(816.000000, 590.000000)" stroke="#979797" stroke-linecap="round" stroke-width="4">
                <path d="M0,0 L6.747692,7.38028812" id="Line"></path>
                <path d="M0,0 L6.747692,7.38028812" id="Line" transform="translate(3.373846, 3.690144) scale(-1, 1) translate(-3.373846, -3.690144) "></path>
            </g>
            <g id="Group-8" transform="translate(1254.500000, 542.303301) scale(-1, -1) rotate(45.000000) translate(-1254.500000, -542.303301) translate(1251.000000, 538.303301)" stroke="#65CAC5" stroke-linecap="round" stroke-width="4">
                <path d="M0,0 L6.747692,7.38028812" id="Line"></path>
                <path d="M0,0 L6.747692,7.38028812" id="Line" transform="translate(3.373846, 3.690144) scale(-1, 1) translate(-3.373846, -3.690144) "></path>
            </g>
            <circle id="Oval" stroke="#007991" stroke-width="2" cx="709.5" cy="558.5" r="2.5"></circle>
            <circle id="Oval" stroke="#007991" stroke-width="2" cx="1376.6967" cy="540.5" r="2.5"></circle>
            <path d="M795.592551,413.889175 C794.044551,413.889175 793.067151,414.642685 792.500001,415.324135 C791.932821,414.642685 790.955451,413.889175 789.406851,413.889175 C786.770751,413.889175 785,416.331325 785,418.611775 C785,421.932325 791.378001,426.381925 792.105051,426.878125 C792.223996,426.958984 792.362271,427 792.499971,427 C792.638253,427 792.775941,426.95957 792.894891,426.878125 C793.622046,426.381835 799.999941,421.932175 799.999941,418.611775 C799.999941,416.331325 798.228591,413.889175 795.592491,413.889175 L795.592551,413.889175 Z M792.499401,425.445625 C789.988101,423.659125 786.4016,420.462175 786.4016,418.611775 C786.4016,417.219595 787.446321,415.290625 789.406851,415.290625 C791.190501,415.290625 791.820351,416.831125 791.844951,416.892025 C791.947489,417.16273 792.206481,417.339685 792.495921,417.342025 L792.500608,417.342025 C792.788308,417.342025 793.047283,417.1639 793.153348,416.896705 C793.17913,416.83108 793.809013,415.290655 795.592647,415.290655 C797.553748,415.290655 798.598497,417.219505 798.598497,418.611805 C798.598497,420.459805 795.011397,423.657955 792.499497,425.445655 L792.499401,425.445625 Z" id="Page-1" fill="#ED6A5E"></path>
            <path d="M1331.78925,529.889175 C1330.24125,529.889175 1329.26385,530.642685 1328.6967,531.324135 C1328.12952,530.642685 1327.15215,529.889175 1325.60355,529.889175 C1322.96745,529.889175 1321.1967,532.331325 1321.1967,534.611775 C1321.1967,537.932325 1327.5747,542.381925 1328.30175,542.878125 C1328.4207,542.958984 1328.55897,543 1328.69667,543 C1328.83495,543 1328.97264,542.959571 1329.09159,542.878125 C1329.81874,542.381835 1336.19664,537.932175 1336.19664,534.611775 C1336.19664,532.331325 1334.42529,529.889175 1331.78919,529.889175 L1331.78925,529.889175 Z M1328.6961,541.445625 C1326.1848,539.659125 1322.5983,536.462175 1322.5983,534.611775 C1322.5983,533.219595 1323.64302,531.290625 1325.60355,531.290625 C1327.3872,531.290625 1328.01705,532.831125 1328.04165,532.892025 C1328.14419,533.16273 1328.40318,533.339685 1328.69262,533.342025 L1328.69731,533.342025 C1328.98501,533.342025 1329.24398,533.1639 1329.35005,532.896705 C1329.37583,532.83108 1330.00571,531.290655 1331.78935,531.290655 C1333.75045,531.290655 1334.7952,533.219505 1334.7952,534.611805 C1334.7952,536.459805 1331.2081,539.657955 1328.6962,541.445655 L1328.6961,541.445625 Z" id="Page-1" fill="#ED6A5E"></path>
            <circle id="Oval-3" stroke="#E7F6F9" stroke-width="3" cx="724" cy="425" r="5"></circle>
            <circle id="Oval" fill="#66B6AB" cx="1262.6967" cy="596.5" r="2.5"></circle>
            <circle id="Oval" fill="#007991" cx="1336.6967" cy="656.5" r="2.5"></circle>
            <circle id="Oval" stroke="#66B6AB" stroke-width="2" cx="1390.6967" cy="653.5" r="2.5"></circle>
            <circle id="Oval" fill="#66B6AB" cx="765.5" cy="576.5" r="2.5"></circle>
            <circle id="Oval" stroke="#66B6AB" stroke-width="2" cx="839.5" cy="459.5" r="2.5"></circle>
            <path d="M873.888889,299.650313 L873.888889,882.619208 C873.888889,905.671918 892.552778,924.38402 915.555556,924.38402 L1179.44444,924.38402 C1202.44722,924.38402 1221.11111,905.67053 1221.11111,882.619208 L1221.11111,299.650313 C1221.11111,276.597603 1202.44722,257.885502 1179.44444,257.885502 L915.555556,257.885502 C892.552778,257.885502 873.888889,276.598992 873.888889,299.650313 Z M860,299.650313 C860,268.896704 884.902778,244 915.555556,244 L1179.44444,244 C1210.15139,244 1235,268.896704 1235,299.650313 L1235,882.619208 C1235,913.372817 1210.09722,938.269521 1179.44444,938.269521 L915.555556,938.269521 C884.848611,938.269521 860,913.372817 860,882.619208 L860,299.650313 Z M1096.11111,285.653727 L1012.77778,285.653727 C1008.92583,285.653727 1005.83333,288.745473 1005.83333,292.596478 C1005.83333,296.447483 1008.92583,299.539229 1012.77778,299.539229 L1096.11111,299.539229 C1099.96306,299.539229 1103.05556,296.447483 1103.05556,292.596478 C1103.05556,288.745473 1099.96306,285.653727 1096.11111,285.653727 Z M980.0625,297.532357 C982.775139,300.190181 987.223889,300.190181 989.936667,297.532357 C992.595139,294.82038 992.595139,290.372715 989.936667,287.660599 C987.224028,285.002775 982.775278,285.002775 980.0625,287.660599 C977.404028,290.372576 977.404028,294.820241 980.0625,297.532357 Z" id="Page-1" fill="#E7F6F9"></path>
            <rect id="Rectangle-7" stroke="#E7F6F9" stroke-width="6" x="896" y="375" width="107.754006" height="100.421226" rx="4"></rect>
            <g id="Group-2" transform="translate(1023.278855, 392.503359)" stroke="#E7F6F9" stroke-linecap="round" stroke-width="6">
                <path d="M0.748381617,2.24833576 L176.618062,2.24833576" id="Line-2"></path>
                <path d="M0.748381617,32.2261459 L176.618062,32.2261459" id="Line-2"></path>
                <path d="M0.748381617,63.7028465 L176.618062,63.7028465" id="Line-2"></path>
            </g>
            <rect id="Rectangle-7" stroke="#F7CA5D" stroke-width="8" x="897" y="509" width="105.754006" height="98.4212259" rx="4"></rect>
            <g id="Group-2" transform="translate(1026.272381, 525.904614)" stroke="#F7CA5D" stroke-linecap="round" stroke-width="6">
                <path d="M0.748381617,2.24833576 L176.618062,2.24833576" id="Line-2"></path>
                <path d="M0.748381617,32.2261459 L176.618062,32.2261459" id="Line-2"></path>
                <path d="M0.748381617,63.7028465 L176.618062,63.7028465" id="Line-2"></path>
            </g>
            <rect id="Rectangle-7" stroke="#E7F6F9" stroke-width="6" x="896" y="649" width="107.754006" height="100.421226" rx="4"></rect>
            <g id="Group-2" transform="translate(1026.272381, 666.800321)" stroke="#E7F6F9" stroke-linecap="round" stroke-width="6">
                <path d="M0.748381617,2.24833576 L176.618062,2.24833576" id="Line-2"></path>
                <path d="M0.748381617,32.2261459 L176.618062,32.2261459" id="Line-2"></path>
            </g>
        </g>
    </g>
</svg>