<?xml version="1.0" encoding="UTF-8"?>
<svg width="100px" height="100px" viewBox="0 0 100 100" version="1.1" xmlns="http://www.w3.org/2000/svg" xmlns:xlink="http://www.w3.org/1999/xlink">
    <!-- Generator: Sketch 48.2 (47327) - http://www.bohemiancoding.com/sketch -->
    <title>Page 1</title>
    <desc>Created with Sketch.</desc>
    <defs></defs>
    <g id="Desktop-HD" stroke="none" stroke-width="1" fill="none" fill-rule="evenodd" transform="translate(-149.000000, -785.000000)">
        <g id="Page-1" transform="translate(149.000000, 785.000000)">
            <path d="M99.3711111,0.638 C98.5334333,-0.199677778 97.1748889,-0.199677778 96.3372222,0.638 L93.1818889,3.79333333 L92.5048,3.11625556 C89.6141333,0.225588889 84.7183556,1.20214444 83.1558,4.98258889 L78.9196889,15.2387 C78.4943444,16.2716889 78.4856667,17.2960333 78.7634444,18.2161444 L45.5645556,51.4105889 C44.7268778,52.2482667 44.7268778,53.6068111 45.5645556,54.4488111 C46.4022333,55.2864889 47.7607778,55.2864889 48.5984444,54.4488111 L81.7884444,21.2588111 C82.7042444,21.5322444 83.7328889,21.5279111 84.7658889,21.1025667 L95.022,16.8664556 C98.798,15.3083444 99.7745556,10.4081222 96.8883333,7.51745556 L96.2112444,6.84036667 L99.3665778,3.68503333 C100.208589,2.83867778 100.208589,1.47581111 99.3709222,0.638144444 L99.3711111,0.638 Z" id="Fill-1" fill="#2B2D40"></path>
            <path d="M82.0055556,25.0866667 L82.0012111,25.0910111 C81.246,25.8462222 81.1809,27.0311222 81.8059,27.8991111 C94.3747889,45.3213444 92.2485667,70.1346778 75.3996778,85.0391111 C59.4052333,99.1835589 34.9174556,99.2280044 18.8807889,85.1389444 C0.14857,68.6811667 -0.54143,40.0089444 16.8104556,22.6567222 C31.8493444,7.61783333 55.3871222,6.13783333 72.1104556,18.2036111 C72.9785111,18.8286111 74.1634556,18.7678444 74.9185667,18.0083 L74.9229111,18.0039556 C75.8690889,17.0577778 75.7215222,15.4996222 74.6364556,14.7184 C56.2342333,1.43728889 30.3309,3.06951111 13.7775667,19.6186222 C-5.38021056,38.7719556 -4.55576544,70.4564 16.2429,88.5330667 C33.4784556,103.515289 59.4940111,103.845288 77.0673444,89.2622333 C96.6806778,72.9900111 99.4151222,44.9344556 85.2877889,25.3689 C84.5065444,24.2881667 82.9483444,24.1449 82.0065667,25.0867778 L82.0055556,25.0866667 Z" id="Fill-2" fill="#007991"></path>
            <path d="M66.0155556,26.91 L66.0329222,26.8926333 C67.0051444,25.9204111 66.8271889,24.2840778 65.664,23.5506333 C52.2306667,15.0524111 34.2017778,16.6453 22.4995556,28.3466333 C8.394,42.4521889 8.96622222,65.7599778 24.2183333,79.1144222 C36.8394444,90.1690889 55.9505556,90.5422 68.9583333,79.9477556 C83.0772222,68.4455333 85.5727778,48.7544222 76.4583333,34.3488667 C75.7204889,33.1856444 74.0885556,33.0034222 73.1163333,33.9799444 L73.0989667,33.9973 C72.4001778,34.6960889 72.2526111,35.7855222 72.7777889,36.6188556 C80.2994556,48.4633 78.8759,64.3921889 68.4462333,74.6521889 C57.5174556,85.4030778 38.2206778,85.8888556 26.7973444,75.6678111 C13.6729,63.9233667 13.2517889,43.6667 25.5386778,31.3844778 C35.8034556,21.1197 51.6153444,19.7522556 63.3897889,27.2308111 C64.2231222,27.7559889 65.3169,27.6084111 66.0156778,26.9096333 L66.0155556,26.91 Z" id="Fill-3" fill="#007991"></path>
            <path d="M54.5966667,36.4455556 C55.3909333,36.8058 56.3241111,36.6018 56.9404444,35.9854889 C57.9821111,34.9438222 57.7086778,33.1469333 56.3718667,32.5392667 C48.1079778,28.7806 38.0207556,30.2823778 31.2285333,37.0704889 C22.2310889,46.0679333 22.4958667,60.8638222 32.0097778,69.5271556 C40.5123333,77.2658222 53.8931111,77.1920444 62.322,69.3709111 C69.6006667,62.6174667 71.3194444,52.2353556 67.5173333,43.7498 C66.8966778,42.3609111 65.0954444,41.9963556 64.0191111,43.0727111 C63.4027889,43.6890333 63.2031333,44.6264889 63.5633778,45.4208222 C66.7448222,52.4303778 65.2560444,61.0541556 59.0624889,66.5274889 C52.2004889,72.5908222 41.5491556,72.4780444 34.8136,66.2714111 C27.2007111,59.2618556 27.0184889,47.3569667 34.2623889,40.1080778 C39.7528333,34.6219667 47.9123889,33.4067444 54.5968333,36.4448556 L54.5966667,36.4455556 Z" id="Fill-4" fill="#007991"></path>
            <path d="M45.0522222,47.5344444 C45.3734,47.4172556 45.6728778,47.2523222 45.9116,47.0092667 C47.5001556,45.4207111 45.8812222,42.6777111 43.7588222,43.4154889 C42.3656,43.8972556 41.0634889,44.6914889 39.9523778,45.8026 C35.5513778,50.2036 36.0808222,57.6859333 41.5279333,61.3492667 C44.9480444,63.6496 49.5748222,63.5541556 52.9212667,61.1496111 C54.6703778,59.8909444 55.8726,58.2242778 56.5367111,56.4057222 C57.3353222,54.2181667 54.6357111,52.4560556 52.9907111,54.1053889 C52.752,54.3441 52.5914,54.6349 52.4742222,54.9517444 C52.0098111,56.2277444 51.1156667,57.3779667 49.6486667,58.1027444 C47.8214444,59.0098667 45.5731111,58.8970111 43.8847778,57.7555222 C40.7641111,55.6505222 40.469,51.3623 42.9906778,48.8406333 C43.5939778,48.2329889 44.3014556,47.8119889 45.0523444,47.5341889 L45.0522222,47.5344444 Z" id="Fill-5" fill="#F7CA5D"></path>
        </g>
    </g>
</svg>