<?xml version="1.0" encoding="UTF-8"?>
<svg width="400px" height="400px" viewBox="0 0 400 400" version="1.1" xmlns="http://www.w3.org/2000/svg" xmlns:xlink="http://www.w3.org/1999/xlink">
    <!-- Generator: Sketch 48.2 (47327) - http://www.bohemiancoding.com/sketch -->
    <title>Slice</title>
    <desc>Created with Sketch.</desc>
    <defs></defs>
    <g id="Page-1" stroke="none" stroke-width="1" fill="none" fill-rule="evenodd">
        <g transform="translate(0.000000, 7.000000)">
            <path d="M337.134884,242.334884 L343.712093,248.912093 C347.345814,252.545814 347.345814,258.432558 343.712093,262.066047 L319.03907,286.73907 C318.130651,287.647488 318.130651,289.119163 319.03907,290.027581 L343.712093,314.700605 C347.345814,318.334326 347.345814,324.22107 343.712093,327.854558 L337.134884,334.431767 C333.501163,338.065488 327.614419,338.065488 323.98093,334.431767 L299.307907,309.758744 C298.399488,308.850326 296.927814,308.850326 296.019395,309.758744 L271.346372,334.431767 C267.712651,338.065488 261.825907,338.065488 258.192419,334.431767 L251.615209,327.854558 C247.981488,324.220837 247.981488,318.334093 251.615209,314.700605 L276.288233,290.027581 C277.196651,289.119163 277.196651,287.647488 276.288233,286.73907 L251.615209,262.066047 C247.981488,258.432326 247.981488,252.545581 251.615209,248.912093 L258.192419,242.334884 C261.82614,238.701163 267.712884,238.701163 271.346372,242.334884 L296.019395,267.007907 C296.927814,267.916326 298.399488,267.916326 299.307907,267.007907 L323.98093,242.334884 C327.614651,238.701163 333.501395,238.701163 337.134884,242.334884 Z" id="Fill-1" fill="#007B94"></path>
            <path d="M396.367442,83.6465116 L352.199535,8.90232558 C348.60214,2.81581395 339.772093,2.81581395 336.174884,8.90232558 L292.006977,83.6465116 C288.35507,89.8418605 292.824558,97.6725581 300.019535,97.6725581 L327.908372,97.6725581 C329.198326,97.6725581 330.233953,98.708186 330.233953,99.9981395 L330.233953,116.277209 C330.233953,147.109302 305.252093,172.091163 274.42,172.091163 L134.885116,172.091163 C88.6460465,172.091163 51.164186,209.573023 51.164186,255.812093 L51.164186,265.023721 C51.164186,266.077488 50.4556279,266.949581 49.438186,267.22214 C21.6949302,274.653302 1.8009814,301.288186 4.9795814,332.031442 C7.86837209,359.884 30.3609767,382.557019 58.1935349,385.645395 C94.6944651,389.715163 125.579581,361.26307 125.579581,325.580279 C125.579581,297.618884 106.575395,274.14307 80.794,267.240744 C79.7765581,266.968233 79.068,266.059767 79.068,265.024186 L79.068,255.812558 C79.068,224.980465 104.04986,199.998605 134.881953,199.998605 L274.416837,199.998605 C320.655907,199.998605 358.137767,162.516744 358.137767,116.277674 L358.137767,99.9986047 C358.137767,98.7086512 359.173395,97.6730233 360.463349,97.6730233 L388.352186,97.6730233 C395.54707,97.6730233 400.016372,89.8423256 396.364744,83.6469767 L396.367442,83.6465116 Z M97.6744186,325.581395 C97.6744186,343.532093 83.0669767,358.139535 65.1162791,358.139535 C47.1655814,358.139535 32.5581395,343.532093 32.5581395,325.581395 C32.5581395,307.630698 47.1655814,293.023256 65.1162791,293.023256 C83.0669767,293.023256 97.6744186,307.630698 97.6744186,325.581395 Z" id="Fill-2" fill="#2A4F78"></path>
            <path d="M151.088372,37.6837209 L157.665581,44.2609302 C161.299302,47.8946512 161.299302,53.7813953 157.665581,57.4148837 L132.992558,82.087907 C132.08414,82.9963256 132.08414,84.468 132.992558,85.3764186 L157.665581,110.049442 C161.299302,113.683163 161.299302,119.569907 157.665581,123.203395 L151.088372,129.780605 C147.454651,133.414326 141.567907,133.414326 137.934419,129.780605 L113.261395,105.107581 C112.352977,104.199163 110.881302,104.199163 109.972884,105.107581 L85.2998605,129.780605 C81.6661395,133.414326 75.7793953,133.414326 72.145907,129.780605 L65.5686977,123.203395 C61.9349767,119.569674 61.9349767,113.68293 65.5686977,110.049442 L90.2417209,85.3764186 C91.1501395,84.468 91.1501395,82.9963256 90.2417209,82.087907 L65.5686977,57.4148837 C61.9349767,53.7811628 61.9349767,47.8944186 65.5686977,44.2609302 L72.145907,37.6837209 C75.7796279,34.05 81.6663721,34.05 85.2998605,37.6837209 L109.972884,62.3567442 C110.881302,63.2651628 112.352977,63.2651628 113.261395,62.3567442 L137.934419,37.6837209 C141.56814,34.05 147.454884,34.05 151.088372,37.6837209 Z" id="Fill-3" fill="#007B94"></path>
        </g>
    </g>
</svg>