<?xml version="1.0" encoding="UTF-8"?>
<svg width="1200px" height="400px" viewBox="0 0 1200 400" version="1.1" xmlns="http://www.w3.org/2000/svg" xmlns:xlink="http://www.w3.org/1999/xlink">
    <!-- Generator: Sketch 48.2 (47327) - http://www.bohemiancoding.com/sketch -->
    <title>Background Block</title>
    <desc>Created with Sketch.</desc>
    <defs></defs>
    <g id="Page-1" stroke="none" stroke-width="1" fill="none" fill-rule="evenodd">
        <g id="Background-Block" fill="#FFFFFF">
            <path d="M1020.97381,71.0284378 L1020.97381,123.364671 L941.841085,167.746366 L909.182857,137.600309 L899.971562,147.2303 L933.885206,178.633112 L933.885206,270.328037 L899.971562,301.730849 L909.182857,311.779534 L941.42172,282.051503 L1024.32338,328.107978 C1026.41685,329.259424 1028.92902,329.259424 1031.0225,328.107978 L1114.76154,281.214113 L1195.15103,326.433197 L1208.54928,326.433197 L1288.52073,281.632138 L1321.17896,311.778194 L1329.97156,301.729509 L1296.05792,270.326697 L1295.63922,176.12094 C1295.53458,173.870437 1294.2785,171.829348 1292.28966,170.677902 L1208.13259,123.366011 L1208.13259,71.0297776 L1194.73434,71.0297776 L1194.73434,123.785376 L1114.76288,168.586436 L1034.3734,123.367351 L1034.3734,71.0311174 L1020.97381,71.0284378 Z M1027.67294,135.088138 L1108.06242,179.889197 L1107.64373,269.909341 L1027.67227,314.710401 L948.120174,270.328707 L947.282783,269.491316 L947.282783,180.309902 L1027.67294,135.088138 Z M1201.85015,135.088138 L1282.23964,179.889197 L1282.23964,269.909341 L1202.26818,314.710401 L1121.87869,269.909341 L1121.87869,180.308562 L1201.85015,135.088138 Z M1206.8745,151.417922 C1203.89124,151.522562 1201.32682,153.668425 1200.64645,156.599292 C1199.96609,159.477771 1201.32682,162.513412 1203.94363,163.978779 L1257.95464,198.311787 C1259.4724,199.410846 1261.35659,199.829541 1263.18827,199.515486 C1265.02007,199.149178 1266.64247,198.049986 1267.63689,196.479979 C1268.6313,194.909838 1268.89297,192.97339 1268.42189,191.193968 C1267.95094,189.36216 1266.74711,187.844407 1265.07233,187.007016 L1211.06131,152.674007 C1209.85761,151.784364 1208.39211,151.365669 1206.87436,151.417922 L1206.8745,151.417922 Z M1023.06394,151.836617 C1022.12191,152.046032 1021.28452,152.464727 1020.55177,153.092703 L963.191192,187.006346 C961.307131,187.634322 959.789243,189.15221 959.10888,191.036271 C958.428517,192.920333 958.637798,195.013943 959.632216,196.740977 C960.679021,198.468145 962.406055,199.619456 964.394891,199.933511 C966.383727,200.247566 968.372562,199.619456 969.890316,198.311117 L1027.25089,164.397474 C1030.18176,162.87972 1031.59487,159.425518 1030.54807,156.285237 C1029.5014,153.197343 1026.30873,151.260894 1023.06394,151.836617 Z M1085.86822,185.750261 C1082.83272,186.535264 1080.73924,189.309103 1080.84388,192.449384 L1080.84388,258.60323 C1080.84388,260.382652 1081.52424,262.10982 1082.78033,263.365905 C1084.03642,264.674378 1085.76358,265.406994 1087.54301,265.406994 C1089.32243,265.406994 1091.04959,264.674244 1092.30568,263.365905 C1093.56177,262.10982 1094.24213,260.382652 1094.24213,258.60323 L1094.24213,192.449384 C1094.29452,190.303521 1093.40474,188.314819 1091.72996,187.006346 C1090.10756,185.64562 1087.90931,185.226925 1085.86822,185.750261 Z M1139.87924,185.750261 C1136.6867,186.325983 1134.38381,189.15221 1134.4362,192.449384 L1134.4362,257.76584 C1134.4362,259.545261 1135.11656,261.272429 1136.37265,262.528515 C1137.62874,263.836988 1139.3559,264.569604 1141.13532,264.569604 C1142.91475,264.569604 1144.64191,263.836854 1145.898,262.528515 C1147.15409,261.272429 1147.83445,259.545261 1147.83445,257.76584 L1147.83445,192.449384 C1147.88684,190.408295 1146.99706,188.471713 1145.42692,187.163374 C1143.90916,185.907288 1141.86794,185.331565 1139.87924,185.750261 Z" id="Page-1" transform="translate(1114.971562, 200.000000) rotate(90.000000) translate(-1114.971562, -200.000000) "></path>
        </g>
    </g>
</svg>