<?xml version="1.0" encoding="UTF-8"?>
<svg width="1440px" height="1475px" viewBox="0 0 1440 1475" version="1.1" xmlns="http://www.w3.org/2000/svg" xmlns:xlink="http://www.w3.org/1999/xlink">
    <!-- Generator: Sketch 48.2 (47327) - http://www.bohemiancoding.com/sketch -->
    <title>Background Block</title>
    <desc>Created with Sketch.</desc>
    <defs></defs>
    <g id="Page-1" stroke="none" stroke-width="1" fill="none" fill-rule="evenodd">
        <g id="Background-Block">
            <g id="Triangles" transform="translate(1043.000000, 124.500000) rotate(90.000000) translate(-1043.000000, -124.500000) translate(983.500000, -59.500000)">
                <path d="M78.7065637,74.7925587 L85.14045,85.3207363 C85.7164278,86.2632454 85.4192954,87.4942223 84.4767863,88.0702 C84.1627705,88.2620986 83.8018958,88.3636364 83.4338863,88.3636364 L70.5661137,88.3636364 C69.4615442,88.3636364 68.5661137,87.4682059 68.5661137,86.3636364 C68.5661137,85.9956269 68.6676514,85.6347522 68.85955,85.3207363 L75.2934363,74.7925587 C75.8694141,73.8500496 77.1003909,73.5529173 78.0429,74.1288951 C78.3136318,74.2943423 78.5411165,74.5218269 78.7065637,74.7925587 Z" id="Rectangle-4" fill="#66B6AB" transform="translate(77.000000, 80.181818) rotate(76.000000) translate(-77.000000, -80.181818) "></path>
                <path d="M107.605886,114.107823 L114.039772,124.636001 C114.61575,125.57851 114.318617,126.809487 113.376108,127.385464 C113.062093,127.577363 112.701218,127.678901 112.333208,127.678901 L99.4654357,127.678901 C98.3608662,127.678901 97.4654357,126.78347 97.4654357,125.678901 C97.4654357,125.310891 97.5669735,124.950016 97.758872,124.636001 L104.192758,114.107823 C104.768736,113.165314 105.999713,112.868182 106.942222,113.444159 C107.212954,113.609607 107.440438,113.837091 107.605886,114.107823 Z" id="Rectangle-4" fill="#66B6AB" transform="translate(105.899322, 119.497082) rotate(-13.000000) translate(-105.899322, -119.497082) "></path>
                <path d="M39.6058857,249.107823 L46.039772,259.636001 C46.6157498,260.57851 46.3186174,261.809487 45.3761083,262.385464 C45.0620925,262.577363 44.7012178,262.678901 44.3332083,262.678901 L31.4654357,262.678901 C30.3608662,262.678901 29.4654357,261.78347 29.4654357,260.678901 C29.4654357,260.310891 29.5669735,259.950016 29.758872,259.636001 L36.1927583,249.107823 C36.7687361,248.165314 37.9997129,247.868182 38.942222,248.444159 C39.2129538,248.609607 39.4404385,248.837091 39.6058857,249.107823 Z" id="Rectangle-4" fill="#65CAC5" transform="translate(37.899322, 254.497082) rotate(36.000000) translate(-37.899322, -254.497082) "></path>
                <path d="M24.6058857,291.107823 L31.039772,301.636001 C31.6157498,302.57851 31.3186174,303.809487 30.3761083,304.385464 C30.0620925,304.577363 29.7012178,304.678901 29.3332083,304.678901 L16.4654357,304.678901 C15.3608662,304.678901 14.4654357,303.78347 14.4654357,302.678901 C14.4654357,302.310891 14.5669735,301.950016 14.758872,301.636001 L21.1927583,291.107823 C21.7687361,290.165314 22.9997129,289.868182 23.942222,290.444159 C24.2129538,290.609607 24.4404385,290.837091 24.6058857,291.107823 Z" id="Rectangle-4" fill="#66B6AB" transform="translate(22.899322, 296.497082) rotate(-49.000000) translate(-22.899322, -296.497082) "></path>
                <path d="M76.6058857,279.107823 L83.039772,289.636001 C83.6157498,290.57851 83.3186174,291.809487 82.3761083,292.385464 C82.0620925,292.577363 81.7012178,292.678901 81.3332083,292.678901 L68.4654357,292.678901 C67.3608662,292.678901 66.4654357,291.78347 66.4654357,290.678901 C66.4654357,290.310891 66.5669735,289.950016 66.758872,289.636001 L73.1927583,279.107823 C73.7687361,278.165314 74.9997129,277.868182 75.942222,278.444159 C76.2129538,278.609607 76.4404385,278.837091 76.6058857,279.107823 Z" id="Rectangle-4" fill="#007991" transform="translate(74.899322, 284.497082) rotate(-199.000000) translate(-74.899322, -284.497082) "></path>
                <path d="M11.7065637,195.65211 L18.14045,206.180288 C18.7164278,207.122797 18.4192954,208.353774 17.4767863,208.929752 C17.1627705,209.12165 16.8018958,209.223188 16.4338863,209.223188 L3.56611368,209.223188 C2.46154418,209.223188 1.56611368,208.327757 1.56611368,207.223188 C1.56611368,206.855178 1.66765145,206.494304 1.85955001,206.180288 L8.29343633,195.65211 C8.86941411,194.709601 10.1003909,194.412469 11.0429,194.988447 C11.3136318,195.153894 11.5411165,195.381378 11.7065637,195.65211 Z" id="Rectangle-4" fill="#66B6AB" transform="translate(10.000000, 201.041370) rotate(98.000000) translate(-10.000000, -201.041370) "></path>
                <path d="M57.6058857,206.107823 L64.039772,216.636001 C64.6157498,217.57851 64.3186174,218.809487 63.3761083,219.385464 C63.0620925,219.577363 62.7012178,219.678901 62.3332083,219.678901 L49.4654357,219.678901 C48.3608662,219.678901 47.4654357,218.78347 47.4654357,217.678901 C47.4654357,217.310891 47.5669735,216.950016 47.758872,216.636001 L54.1927583,206.107823 C54.7687361,205.165314 55.9997129,204.868182 56.942222,205.444159 C57.2129538,205.609607 57.4404385,205.837091 57.6058857,206.107823 Z" id="Rectangle-4" fill="#007991" transform="translate(55.899322, 211.497082) rotate(85.000000) translate(-55.899322, -211.497082) "></path>
                <path d="M99.6058857,249.107823 L106.039772,259.636001 C106.61575,260.57851 106.318617,261.809487 105.376108,262.385464 C105.062093,262.577363 104.701218,262.678901 104.333208,262.678901 L91.4654357,262.678901 C90.3608662,262.678901 89.4654357,261.78347 89.4654357,260.678901 C89.4654357,260.310891 89.5669735,259.950016 89.758872,259.636001 L96.1927583,249.107823 C96.7687361,248.165314 97.9997129,247.868182 98.942222,248.444159 C99.2129538,248.609607 99.4404385,248.837091 99.6058857,249.107823 Z" id="Rectangle-4" fill="#66B6AB" transform="translate(97.899322, 254.497082) rotate(-2.000000) translate(-97.899322, -254.497082) "></path>
                <path d="M57.5909822,151.048658 L64.0248685,161.576836 C64.6008463,162.519345 64.303714,163.750322 63.3612049,164.326299 C63.0471891,164.518198 62.6863144,164.619736 62.3183049,164.619736 L49.4505322,164.619736 C48.3459627,164.619736 47.4505322,163.724305 47.4505322,162.619736 C47.4505322,162.251726 47.55207,161.890851 47.7439686,161.576836 L54.1778549,151.048658 C54.7538327,150.106149 55.9848095,149.809017 56.9273186,150.384994 C57.1980504,150.550442 57.425535,150.777926 57.5909822,151.048658 Z" id="Rectangle-4" fill="#65CAC5" transform="translate(55.884419, 156.437917) rotate(325.000000) translate(-55.884419, -156.437917) "></path>
                <path d="M107.605886,181.107823 L114.039772,191.636001 C114.61575,192.57851 114.318617,193.809487 113.376108,194.385464 C113.062093,194.577363 112.701218,194.678901 112.333208,194.678901 L99.4654357,194.678901 C98.3608662,194.678901 97.4654357,193.78347 97.4654357,192.678901 C97.4654357,192.310891 97.5669735,191.950016 97.758872,191.636001 L104.192758,181.107823 C104.768736,180.165314 105.999713,179.868182 106.942222,180.444159 C107.212954,180.609607 107.440438,180.837091 107.605886,181.107823 Z" id="Rectangle-4" fill="#66B6AB" transform="translate(105.899322, 186.497082) rotate(142.000000) translate(-105.899322, -186.497082) "></path>
                <path d="M24.6058857,126.107823 L31.039772,136.636001 C31.6157498,137.57851 31.3186174,138.809487 30.3761083,139.385464 C30.0620925,139.577363 29.7012178,139.678901 29.3332083,139.678901 L16.4654357,139.678901 C15.3608662,139.678901 14.4654357,138.78347 14.4654357,137.678901 C14.4654357,137.310891 14.5669735,136.950016 14.758872,136.636001 L21.1927583,126.107823 C21.7687361,125.165314 22.9997129,124.868182 23.942222,125.444159 C24.2129538,125.609607 24.4404385,125.837091 24.6058857,126.107823 Z" id="Rectangle-4" fill="#007991" transform="translate(22.899322, 131.497082) rotate(36.000000) translate(-22.899322, -131.497082) "></path>
                <path d="M37.6058857,51.107823 L44.039772,61.6360006 C44.6157498,62.5785097 44.3186174,63.8094865 43.3761083,64.3854643 C43.0620925,64.5773629 42.7012178,64.6789007 42.3332083,64.6789007 L29.4654357,64.6789007 C28.3608662,64.6789007 27.4654357,63.7834702 27.4654357,62.6789007 C27.4654357,62.3108912 27.5669735,61.9500165 27.758872,61.6360006 L34.1927583,51.107823 C34.7687361,50.1653139 35.9997129,49.8681816 36.942222,50.4441594 C37.2129538,50.6096066 37.4404385,50.8370912 37.6058857,51.107823 Z" id="Rectangle-4" fill="#65CAC5" transform="translate(35.899322, 56.497082) rotate(36.000000) translate(-35.899322, -56.497082) "></path>
                <path d="M96.6058857,7.11365807 L103.039772,17.6418357 C103.61575,18.5843448 103.318617,19.8153216 102.376108,20.3912994 C102.062093,20.5831979 101.701218,20.6847357 101.333208,20.6847357 L88.4654357,20.6847357 C87.3608662,20.6847357 86.4654357,19.7893052 86.4654357,18.6847357 C86.4654357,18.3167262 86.5669735,17.9558515 86.758872,17.6418357 L93.1927583,7.11365807 C93.7687361,6.17114898 94.9997129,5.87401665 95.942222,6.44999442 C96.2129538,6.61544163 96.4404385,6.84292628 96.6058857,7.11365807 Z" id="Rectangle-4" fill="#007991" transform="translate(94.899322, 12.502918) rotate(36.000000) translate(-94.899322, -12.502918) "></path>
                <path d="M52.2590044,349.521037 L58.6928908,360.049214 C59.2688685,360.991723 58.9717362,362.2227 58.0292271,362.798678 C57.7152113,362.990577 57.3543366,363.092114 56.9863271,363.092114 L44.1185544,363.092114 C43.0139849,363.092114 42.1185544,362.196684 42.1185544,361.092114 C42.1185544,360.724105 42.2200922,360.36323 42.4119908,360.049214 L48.8458771,349.521037 C49.4218549,348.578528 50.6528317,348.281395 51.5953408,348.857373 C51.8660726,349.02282 52.0935572,349.250305 52.2590044,349.521037 Z" id="Rectangle-4" fill="#66B6AB" transform="translate(50.552441, 354.910296) rotate(-127.000000) translate(-50.552441, -354.910296) "></path>
            </g>
            <g id="Group" transform="translate(1270.000000, 78.000000)">
                <path d="M57.2036461,32.5100626 L63.6375325,43.0382402 C64.2135102,43.9807493 63.9163779,45.2117261 62.9738688,45.7877039 C62.659853,45.9796024 62.2989783,46.0811402 61.9309688,46.0811402 L49.0631962,46.0811402 C47.9586267,46.0811402 47.0631962,45.1857097 47.0631962,44.0811402 C47.0631962,43.7131307 47.1647339,43.352256 47.3566325,43.0382402 L53.7905188,32.5100626 C54.3664966,31.5675535 55.5974734,31.2704211 56.5399825,31.8463989 C56.8107143,32.0118461 57.0381989,32.2393308 57.2036461,32.5100626 Z" id="Rectangle-4" fill="#65CAC5" transform="translate(55.497082, 37.899322) rotate(126.000000) translate(-55.497082, -37.899322) "></path>
                <path d="M14.6214152,17.3462274 L21.0553015,27.874405 C21.6312793,28.8169141 21.3341469,30.0478909 20.3916378,30.6238687 C20.077622,30.8157673 19.7167473,30.917305 19.3487378,30.917305 L6.48096517,30.917305 C5.37639567,30.917305 4.48096517,30.0218745 4.48096517,28.917305 C4.48096517,28.5492955 4.58250294,28.1884208 4.77440151,27.874405 L11.2082878,17.3462274 C11.7842656,16.4037183 13.0152424,16.106586 13.9577515,16.6825638 C14.2284833,16.848011 14.455968,17.0754956 14.6214152,17.3462274 Z" id="Rectangle-4" fill="#66B6AB" transform="translate(12.914851, 22.735487) rotate(41.000000) translate(-12.914851, -22.735487) "></path>
                <path d="M26.6983063,68.7296657 L33.1321926,79.2578434 C33.7081704,80.2003525 33.411038,81.4313293 32.468529,82.0073071 C32.1545131,82.1992056 31.7936384,82.3007434 31.4256289,82.3007434 L18.5578563,82.3007434 C17.4532868,82.3007434 16.5578563,81.4053129 16.5578563,80.3007434 C16.5578563,79.9327339 16.6593941,79.5718592 16.8512926,79.2578434 L23.285179,68.7296657 C23.8611567,67.7871567 25.0921335,67.4900243 26.0346426,68.0660021 C26.3053744,68.2314493 26.5328591,68.458934 26.6983063,68.7296657 Z" id="Rectangle-4" fill="#007991" transform="translate(24.991743, 74.118925) rotate(-109.000000) translate(-24.991743, -74.118925) "></path>
                <path d="M110.747933,4.10466485 L117.18182,14.6328425 C117.757797,15.5753516 117.460665,16.8063284 116.518156,17.3823061 C116.20414,17.5742047 115.843266,17.6757425 115.475256,17.6757425 L102.607483,17.6757425 C101.502914,17.6757425 100.607483,16.780312 100.607483,15.6757425 C100.607483,15.307733 100.709021,14.9468583 100.90092,14.6328425 L107.334806,4.10466485 C107.910784,3.16215576 109.141761,2.86502342 110.08427,3.4410012 C110.355002,3.6064484 110.582486,3.83393306 110.747933,4.10466485 Z" id="Rectangle-4" fill="#66B6AB" transform="translate(109.041370, 9.493924) rotate(188.000000) translate(-109.041370, -9.493924) "></path>
                <path d="M100.381603,49.6329819 L106.815489,60.1611595 C107.391467,61.1036686 107.094335,62.3346454 106.151826,62.9106232 C105.83781,63.1025217 105.476935,63.2040595 105.108926,63.2040595 L92.2411531,63.2040595 C91.1365836,63.2040595 90.2411531,62.308629 90.2411531,61.2040595 C90.2411531,60.83605 90.3426909,60.4751753 90.5345894,60.1611595 L96.9684758,49.6329819 C97.5444535,48.6904728 98.7754304,48.3933404 99.7179394,48.9693182 C99.9886712,49.1347654 100.216156,49.3622501 100.381603,49.6329819 Z" id="Rectangle-4" fill="#007991" transform="translate(98.675039, 55.022241) rotate(175.000000) translate(-98.675039, -55.022241) "></path>
                <path d="M57.2323927,91.8901902 L63.666279,102.418368 C64.2422568,103.360877 63.9451244,104.591854 63.0026153,105.167831 C62.6885995,105.35973 62.3277248,105.461268 61.9597153,105.461268 L49.0919427,105.461268 C47.9873732,105.461268 47.0919427,104.565837 47.0919427,103.461268 C47.0919427,103.093258 47.1934805,102.732384 47.385379,102.418368 L53.8192653,91.8901902 C54.3952431,90.9476811 55.6262199,90.6505487 56.568729,91.2265265 C56.8394608,91.3919737 57.0669455,91.6194584 57.2323927,91.8901902 Z" id="Rectangle-4" fill="#66B6AB" transform="translate(55.525829, 97.279450) rotate(88.000000) translate(-55.525829, -97.279450) "></path>
                <path d="M125.310539,100.528078 L131.744425,111.056256 C132.320403,111.998765 132.023271,113.229742 131.080762,113.80572 C130.766746,113.997618 130.405871,114.099156 130.037862,114.099156 L117.170089,114.099156 C116.06552,114.099156 115.170089,113.203725 115.170089,112.099156 C115.170089,111.731146 115.271627,111.370272 115.463525,111.056256 L121.897412,100.528078 C122.47339,99.5855692 123.704366,99.2884369 124.646875,99.8644147 C124.917607,100.029862 125.145092,100.257347 125.310539,100.528078 Z" id="Rectangle-4" fill="#66B6AB" transform="translate(123.603975, 105.917338) rotate(232.000000) translate(-123.603975, -105.917338) "></path>
            </g>
            <g id="Group" transform="translate(1270.000000, 533.000000)">
                <path d="M57.2036461,32.5100626 L63.6375325,43.0382402 C64.2135102,43.9807493 63.9163779,45.2117261 62.9738688,45.7877039 C62.659853,45.9796024 62.2989783,46.0811402 61.9309688,46.0811402 L49.0631962,46.0811402 C47.9586267,46.0811402 47.0631962,45.1857097 47.0631962,44.0811402 C47.0631962,43.7131307 47.1647339,43.352256 47.3566325,43.0382402 L53.7905188,32.5100626 C54.3664966,31.5675535 55.5974734,31.2704211 56.5399825,31.8463989 C56.8107143,32.0118461 57.0381989,32.2393308 57.2036461,32.5100626 Z" id="Rectangle-4" fill="#65CAC5" transform="translate(55.497082, 37.899322) rotate(126.000000) translate(-55.497082, -37.899322) "></path>
                <path d="M14.6214152,17.3462274 L21.0553015,27.874405 C21.6312793,28.8169141 21.3341469,30.0478909 20.3916378,30.6238687 C20.077622,30.8157673 19.7167473,30.917305 19.3487378,30.917305 L6.48096517,30.917305 C5.37639567,30.917305 4.48096517,30.0218745 4.48096517,28.917305 C4.48096517,28.5492955 4.58250294,28.1884208 4.77440151,27.874405 L11.2082878,17.3462274 C11.7842656,16.4037183 13.0152424,16.106586 13.9577515,16.6825638 C14.2284833,16.848011 14.455968,17.0754956 14.6214152,17.3462274 Z" id="Rectangle-4" fill="#66B6AB" transform="translate(12.914851, 22.735487) rotate(41.000000) translate(-12.914851, -22.735487) "></path>
                <path d="M26.6983063,68.7296657 L33.1321926,79.2578434 C33.7081704,80.2003525 33.411038,81.4313293 32.468529,82.0073071 C32.1545131,82.1992056 31.7936384,82.3007434 31.4256289,82.3007434 L18.5578563,82.3007434 C17.4532868,82.3007434 16.5578563,81.4053129 16.5578563,80.3007434 C16.5578563,79.9327339 16.6593941,79.5718592 16.8512926,79.2578434 L23.285179,68.7296657 C23.8611567,67.7871567 25.0921335,67.4900243 26.0346426,68.0660021 C26.3053744,68.2314493 26.5328591,68.458934 26.6983063,68.7296657 Z" id="Rectangle-4" fill="#007991" transform="translate(24.991743, 74.118925) rotate(-109.000000) translate(-24.991743, -74.118925) "></path>
                <path d="M110.747933,4.10466485 L117.18182,14.6328425 C117.757797,15.5753516 117.460665,16.8063284 116.518156,17.3823061 C116.20414,17.5742047 115.843266,17.6757425 115.475256,17.6757425 L102.607483,17.6757425 C101.502914,17.6757425 100.607483,16.780312 100.607483,15.6757425 C100.607483,15.307733 100.709021,14.9468583 100.90092,14.6328425 L107.334806,4.10466485 C107.910784,3.16215576 109.141761,2.86502342 110.08427,3.4410012 C110.355002,3.6064484 110.582486,3.83393306 110.747933,4.10466485 Z" id="Rectangle-4" fill="#66B6AB" transform="translate(109.041370, 9.493924) rotate(188.000000) translate(-109.041370, -9.493924) "></path>
                <path d="M100.381603,49.6329819 L106.815489,60.1611595 C107.391467,61.1036686 107.094335,62.3346454 106.151826,62.9106232 C105.83781,63.1025217 105.476935,63.2040595 105.108926,63.2040595 L92.2411531,63.2040595 C91.1365836,63.2040595 90.2411531,62.308629 90.2411531,61.2040595 C90.2411531,60.83605 90.3426909,60.4751753 90.5345894,60.1611595 L96.9684758,49.6329819 C97.5444535,48.6904728 98.7754304,48.3933404 99.7179394,48.9693182 C99.9886712,49.1347654 100.216156,49.3622501 100.381603,49.6329819 Z" id="Rectangle-4" fill="#007991" transform="translate(98.675039, 55.022241) rotate(175.000000) translate(-98.675039, -55.022241) "></path>
                <path d="M57.2323927,91.8901902 L63.666279,102.418368 C64.2422568,103.360877 63.9451244,104.591854 63.0026153,105.167831 C62.6885995,105.35973 62.3277248,105.461268 61.9597153,105.461268 L49.0919427,105.461268 C47.9873732,105.461268 47.0919427,104.565837 47.0919427,103.461268 C47.0919427,103.093258 47.1934805,102.732384 47.385379,102.418368 L53.8192653,91.8901902 C54.3952431,90.9476811 55.6262199,90.6505487 56.568729,91.2265265 C56.8394608,91.3919737 57.0669455,91.6194584 57.2323927,91.8901902 Z" id="Rectangle-4" fill="#66B6AB" transform="translate(55.525829, 97.279450) rotate(88.000000) translate(-55.525829, -97.279450) "></path>
                <path d="M125.310539,100.528078 L131.744425,111.056256 C132.320403,111.998765 132.023271,113.229742 131.080762,113.80572 C130.766746,113.997618 130.405871,114.099156 130.037862,114.099156 L117.170089,114.099156 C116.06552,114.099156 115.170089,113.203725 115.170089,112.099156 C115.170089,111.731146 115.271627,111.370272 115.463525,111.056256 L121.897412,100.528078 C122.47339,99.5855692 123.704366,99.2884369 124.646875,99.8644147 C124.917607,100.029862 125.145092,100.257347 125.310539,100.528078 Z" id="Rectangle-4" fill="#66B6AB" transform="translate(123.603975, 105.917338) rotate(232.000000) translate(-123.603975, -105.917338) "></path>
            </g>
            <path d="M1215.61686,119.163181 L1222.05075,129.691359 C1222.62672,130.633868 1222.32959,131.864845 1221.38708,132.440823 C1221.07307,132.632721 1220.71219,132.734259 1220.34418,132.734259 L1207.47641,132.734259 C1206.37184,132.734259 1205.47641,131.838828 1205.47641,130.734259 C1205.47641,130.366249 1205.57795,130.005375 1205.76985,129.691359 L1212.20373,119.163181 C1212.77971,118.220672 1214.01069,117.92354 1214.9532,118.499518 C1215.22393,118.664965 1215.45141,118.89245 1215.61686,119.163181 Z" id="Rectangle-4" fill="#66B6AB" transform="translate(1213.910296, 124.552441) rotate(-37.000000) translate(-1213.910296, -124.552441) "></path>
            <g id="Triangles" transform="translate(1244.349904, 289.455533) scale(-1, 1) rotate(78.000000) translate(-1244.349904, -289.455533) translate(1184.849904, 105.455533)">
                <path d="M78.7065637,74.7925587 L85.14045,85.3207363 C85.7164278,86.2632454 85.4192954,87.4942223 84.4767863,88.0702 C84.1627705,88.2620986 83.8018958,88.3636364 83.4338863,88.3636364 L70.5661137,88.3636364 C69.4615442,88.3636364 68.5661137,87.4682059 68.5661137,86.3636364 C68.5661137,85.9956269 68.6676514,85.6347522 68.85955,85.3207363 L75.2934363,74.7925587 C75.8694141,73.8500496 77.1003909,73.5529173 78.0429,74.1288951 C78.3136318,74.2943423 78.5411165,74.5218269 78.7065637,74.7925587 Z" id="Rectangle-4" fill="#66B6AB" transform="translate(77.000000, 80.181818) rotate(76.000000) translate(-77.000000, -80.181818) "></path>
                <path d="M107.605886,114.107823 L114.039772,124.636001 C114.61575,125.57851 114.318617,126.809487 113.376108,127.385464 C113.062093,127.577363 112.701218,127.678901 112.333208,127.678901 L99.4654357,127.678901 C98.3608662,127.678901 97.4654357,126.78347 97.4654357,125.678901 C97.4654357,125.310891 97.5669735,124.950016 97.758872,124.636001 L104.192758,114.107823 C104.768736,113.165314 105.999713,112.868182 106.942222,113.444159 C107.212954,113.609607 107.440438,113.837091 107.605886,114.107823 Z" id="Rectangle-4" fill="#66B6AB" transform="translate(105.899322, 119.497082) rotate(-13.000000) translate(-105.899322, -119.497082) "></path>
                <path d="M39.6058857,249.107823 L46.039772,259.636001 C46.6157498,260.57851 46.3186174,261.809487 45.3761083,262.385464 C45.0620925,262.577363 44.7012178,262.678901 44.3332083,262.678901 L31.4654357,262.678901 C30.3608662,262.678901 29.4654357,261.78347 29.4654357,260.678901 C29.4654357,260.310891 29.5669735,259.950016 29.758872,259.636001 L36.1927583,249.107823 C36.7687361,248.165314 37.9997129,247.868182 38.942222,248.444159 C39.2129538,248.609607 39.4404385,248.837091 39.6058857,249.107823 Z" id="Rectangle-4" fill="#65CAC5" transform="translate(37.899322, 254.497082) rotate(36.000000) translate(-37.899322, -254.497082) "></path>
                <path d="M24.6058857,291.107823 L31.039772,301.636001 C31.6157498,302.57851 31.3186174,303.809487 30.3761083,304.385464 C30.0620925,304.577363 29.7012178,304.678901 29.3332083,304.678901 L16.4654357,304.678901 C15.3608662,304.678901 14.4654357,303.78347 14.4654357,302.678901 C14.4654357,302.310891 14.5669735,301.950016 14.758872,301.636001 L21.1927583,291.107823 C21.7687361,290.165314 22.9997129,289.868182 23.942222,290.444159 C24.2129538,290.609607 24.4404385,290.837091 24.6058857,291.107823 Z" id="Rectangle-4" fill="#66B6AB" transform="translate(22.899322, 296.497082) rotate(-49.000000) translate(-22.899322, -296.497082) "></path>
                <path d="M76.6058857,279.107823 L83.039772,289.636001 C83.6157498,290.57851 83.3186174,291.809487 82.3761083,292.385464 C82.0620925,292.577363 81.7012178,292.678901 81.3332083,292.678901 L68.4654357,292.678901 C67.3608662,292.678901 66.4654357,291.78347 66.4654357,290.678901 C66.4654357,290.310891 66.5669735,289.950016 66.758872,289.636001 L73.1927583,279.107823 C73.7687361,278.165314 74.9997129,277.868182 75.942222,278.444159 C76.2129538,278.609607 76.4404385,278.837091 76.6058857,279.107823 Z" id="Rectangle-4" fill="#007991" transform="translate(74.899322, 284.497082) rotate(-199.000000) translate(-74.899322, -284.497082) "></path>
                <path d="M11.7065637,195.65211 L18.14045,206.180288 C18.7164278,207.122797 18.4192954,208.353774 17.4767863,208.929752 C17.1627705,209.12165 16.8018958,209.223188 16.4338863,209.223188 L3.56611368,209.223188 C2.46154418,209.223188 1.56611368,208.327757 1.56611368,207.223188 C1.56611368,206.855178 1.66765145,206.494304 1.85955001,206.180288 L8.29343633,195.65211 C8.86941411,194.709601 10.1003909,194.412469 11.0429,194.988447 C11.3136318,195.153894 11.5411165,195.381378 11.7065637,195.65211 Z" id="Rectangle-4" fill="#66B6AB" transform="translate(10.000000, 201.041370) rotate(98.000000) translate(-10.000000, -201.041370) "></path>
                <path d="M57.6058857,206.107823 L64.039772,216.636001 C64.6157498,217.57851 64.3186174,218.809487 63.3761083,219.385464 C63.0620925,219.577363 62.7012178,219.678901 62.3332083,219.678901 L49.4654357,219.678901 C48.3608662,219.678901 47.4654357,218.78347 47.4654357,217.678901 C47.4654357,217.310891 47.5669735,216.950016 47.758872,216.636001 L54.1927583,206.107823 C54.7687361,205.165314 55.9997129,204.868182 56.942222,205.444159 C57.2129538,205.609607 57.4404385,205.837091 57.6058857,206.107823 Z" id="Rectangle-4" fill="#007991" transform="translate(55.899322, 211.497082) rotate(85.000000) translate(-55.899322, -211.497082) "></path>
                <path d="M99.6058857,249.107823 L106.039772,259.636001 C106.61575,260.57851 106.318617,261.809487 105.376108,262.385464 C105.062093,262.577363 104.701218,262.678901 104.333208,262.678901 L91.4654357,262.678901 C90.3608662,262.678901 89.4654357,261.78347 89.4654357,260.678901 C89.4654357,260.310891 89.5669735,259.950016 89.758872,259.636001 L96.1927583,249.107823 C96.7687361,248.165314 97.9997129,247.868182 98.942222,248.444159 C99.2129538,248.609607 99.4404385,248.837091 99.6058857,249.107823 Z" id="Rectangle-4" fill="#66B6AB" transform="translate(97.899322, 254.497082) rotate(-2.000000) translate(-97.899322, -254.497082) "></path>
                <path d="M57.5909822,151.048658 L64.0248685,161.576836 C64.6008463,162.519345 64.303714,163.750322 63.3612049,164.326299 C63.0471891,164.518198 62.6863144,164.619736 62.3183049,164.619736 L49.4505322,164.619736 C48.3459627,164.619736 47.4505322,163.724305 47.4505322,162.619736 C47.4505322,162.251726 47.55207,161.890851 47.7439686,161.576836 L54.1778549,151.048658 C54.7538327,150.106149 55.9848095,149.809017 56.9273186,150.384994 C57.1980504,150.550442 57.425535,150.777926 57.5909822,151.048658 Z" id="Rectangle-4" fill="#65CAC5" transform="translate(55.884419, 156.437917) rotate(325.000000) translate(-55.884419, -156.437917) "></path>
                <path d="M107.605886,181.107823 L114.039772,191.636001 C114.61575,192.57851 114.318617,193.809487 113.376108,194.385464 C113.062093,194.577363 112.701218,194.678901 112.333208,194.678901 L99.4654357,194.678901 C98.3608662,194.678901 97.4654357,193.78347 97.4654357,192.678901 C97.4654357,192.310891 97.5669735,191.950016 97.758872,191.636001 L104.192758,181.107823 C104.768736,180.165314 105.999713,179.868182 106.942222,180.444159 C107.212954,180.609607 107.440438,180.837091 107.605886,181.107823 Z" id="Rectangle-4" fill="#66B6AB" transform="translate(105.899322, 186.497082) rotate(142.000000) translate(-105.899322, -186.497082) "></path>
                <path d="M24.6058857,126.107823 L31.039772,136.636001 C31.6157498,137.57851 31.3186174,138.809487 30.3761083,139.385464 C30.0620925,139.577363 29.7012178,139.678901 29.3332083,139.678901 L16.4654357,139.678901 C15.3608662,139.678901 14.4654357,138.78347 14.4654357,137.678901 C14.4654357,137.310891 14.5669735,136.950016 14.758872,136.636001 L21.1927583,126.107823 C21.7687361,125.165314 22.9997129,124.868182 23.942222,125.444159 C24.2129538,125.609607 24.4404385,125.837091 24.6058857,126.107823 Z" id="Rectangle-4" fill="#007991" transform="translate(22.899322, 131.497082) rotate(36.000000) translate(-22.899322, -131.497082) "></path>
                <path d="M37.6058857,51.107823 L44.039772,61.6360006 C44.6157498,62.5785097 44.3186174,63.8094865 43.3761083,64.3854643 C43.0620925,64.5773629 42.7012178,64.6789007 42.3332083,64.6789007 L29.4654357,64.6789007 C28.3608662,64.6789007 27.4654357,63.7834702 27.4654357,62.6789007 C27.4654357,62.3108912 27.5669735,61.9500165 27.758872,61.6360006 L34.1927583,51.107823 C34.7687361,50.1653139 35.9997129,49.8681816 36.942222,50.4441594 C37.2129538,50.6096066 37.4404385,50.8370912 37.6058857,51.107823 Z" id="Rectangle-4" fill="#65CAC5" transform="translate(35.899322, 56.497082) rotate(36.000000) translate(-35.899322, -56.497082) "></path>
                <path d="M96.6058857,7.11365807 L103.039772,17.6418357 C103.61575,18.5843448 103.318617,19.8153216 102.376108,20.3912994 C102.062093,20.5831979 101.701218,20.6847357 101.333208,20.6847357 L88.4654357,20.6847357 C87.3608662,20.6847357 86.4654357,19.7893052 86.4654357,18.6847357 C86.4654357,18.3167262 86.5669735,17.9558515 86.758872,17.6418357 L93.1927583,7.11365807 C93.7687361,6.17114898 94.9997129,5.87401665 95.942222,6.44999442 C96.2129538,6.61544163 96.4404385,6.84292628 96.6058857,7.11365807 Z" id="Rectangle-4" fill="#007991" transform="translate(94.899322, 12.502918) rotate(36.000000) translate(-94.899322, -12.502918) "></path>
                <path d="M52.2590044,349.521037 L58.6928908,360.049214 C59.2688685,360.991723 58.9717362,362.2227 58.0292271,362.798678 C57.7152113,362.990577 57.3543366,363.092114 56.9863271,363.092114 L44.1185544,363.092114 C43.0139849,363.092114 42.1185544,362.196684 42.1185544,361.092114 C42.1185544,360.724105 42.2200922,360.36323 42.4119908,360.049214 L48.8458771,349.521037 C49.4218549,348.578528 50.6528317,348.281395 51.5953408,348.857373 C51.8660726,349.02282 52.0935572,349.250305 52.2590044,349.521037 Z" id="Rectangle-4" fill="#66B6AB" transform="translate(50.552441, 354.910296) rotate(-127.000000) translate(-50.552441, -354.910296) "></path>
            </g>
            <g id="Triangles" transform="translate(1238.745101, 421.232274) scale(-1, 1) rotate(75.000000) translate(-1238.745101, -421.232274) translate(1166.245101, 259.232274)">
                <path d="M104.706564,30.7925587 L111.14045,41.3207363 C111.716428,42.2632454 111.419295,43.4942223 110.476786,44.0702 C110.162771,44.2620986 109.801896,44.3636364 109.433886,44.3636364 L96.5661137,44.3636364 C95.4615442,44.3636364 94.5661137,43.4682059 94.5661137,42.3636364 C94.5661137,41.9956269 94.6676514,41.6347522 94.85955,41.3207363 L101.293436,30.7925587 C101.869414,29.8500496 103.100391,29.5529173 104.0429,30.1288951 C104.313632,30.2943423 104.541116,30.5218269 104.706564,30.7925587 Z" id="Rectangle-4" fill="#66B6AB" transform="translate(103.000000, 36.181818) rotate(76.000000) translate(-103.000000, -36.181818) "></path>
                <path d="M133.605886,70.107823 L140.039772,80.6360006 C140.61575,81.5785097 140.318617,82.8094865 139.376108,83.3854643 C139.062093,83.5773629 138.701218,83.6789007 138.333208,83.6789007 L125.465436,83.6789007 C124.360866,83.6789007 123.465436,82.7834702 123.465436,81.6789007 C123.465436,81.3108912 123.566973,80.9500165 123.758872,80.6360006 L130.192758,70.107823 C130.768736,69.1653139 131.999713,68.8681816 132.942222,69.4441594 C133.212954,69.6096066 133.440438,69.8370912 133.605886,70.107823 Z" id="Rectangle-4" fill="#66B6AB" transform="translate(131.899322, 75.497082) rotate(-13.000000) translate(-131.899322, -75.497082) "></path>
                <path d="M65.6058857,205.107823 L72.039772,215.636001 C72.6157498,216.57851 72.3186174,217.809487 71.3761083,218.385464 C71.0620925,218.577363 70.7012178,218.678901 70.3332083,218.678901 L57.4654357,218.678901 C56.3608662,218.678901 55.4654357,217.78347 55.4654357,216.678901 C55.4654357,216.310891 55.5669735,215.950016 55.758872,215.636001 L62.1927583,205.107823 C62.7687361,204.165314 63.9997129,203.868182 64.942222,204.444159 C65.2129538,204.609607 65.4404385,204.837091 65.6058857,205.107823 Z" id="Rectangle-4" fill="#65CAC5" transform="translate(63.899322, 210.497082) rotate(36.000000) translate(-63.899322, -210.497082) "></path>
                <path d="M50.6058857,247.107823 L57.039772,257.636001 C57.6157498,258.57851 57.3186174,259.809487 56.3761083,260.385464 C56.0620925,260.577363 55.7012178,260.678901 55.3332083,260.678901 L42.4654357,260.678901 C41.3608662,260.678901 40.4654357,259.78347 40.4654357,258.678901 C40.4654357,258.310891 40.5669735,257.950016 40.758872,257.636001 L47.1927583,247.107823 C47.7687361,246.165314 48.9997129,245.868182 49.942222,246.444159 C50.2129538,246.609607 50.4404385,246.837091 50.6058857,247.107823 Z" id="Rectangle-4" fill="#66B6AB" transform="translate(48.899322, 252.497082) rotate(-49.000000) translate(-48.899322, -252.497082) "></path>
                <path d="M102.605886,235.107823 L109.039772,245.636001 C109.61575,246.57851 109.318617,247.809487 108.376108,248.385464 C108.062093,248.577363 107.701218,248.678901 107.333208,248.678901 L94.4654357,248.678901 C93.3608662,248.678901 92.4654357,247.78347 92.4654357,246.678901 C92.4654357,246.310891 92.5669735,245.950016 92.758872,245.636001 L99.1927583,235.107823 C99.7687361,234.165314 100.999713,233.868182 101.942222,234.444159 C102.212954,234.609607 102.440438,234.837091 102.605886,235.107823 Z" id="Rectangle-4" fill="#007991" transform="translate(100.899322, 240.497082) rotate(-199.000000) translate(-100.899322, -240.497082) "></path>
                <path d="M37.7065637,151.65211 L44.14045,162.180288 C44.7164278,163.122797 44.4192954,164.353774 43.4767863,164.929752 C43.1627705,165.12165 42.8018958,165.223188 42.4338863,165.223188 L29.5661137,165.223188 C28.4615442,165.223188 27.5661137,164.327757 27.5661137,163.223188 C27.5661137,162.855178 27.6676514,162.494304 27.85955,162.180288 L34.2934363,151.65211 C34.8694141,150.709601 36.1003909,150.412469 37.0429,150.988447 C37.3136318,151.153894 37.5411165,151.381378 37.7065637,151.65211 Z" id="Rectangle-4" fill="#66B6AB" transform="translate(36.000000, 157.041370) rotate(98.000000) translate(-36.000000, -157.041370) "></path>
                <path d="M83.6058857,162.107823 L90.039772,172.636001 C90.6157498,173.57851 90.3186174,174.809487 89.3761083,175.385464 C89.0620925,175.577363 88.7012178,175.678901 88.3332083,175.678901 L75.4654357,175.678901 C74.3608662,175.678901 73.4654357,174.78347 73.4654357,173.678901 C73.4654357,173.310891 73.5669735,172.950016 73.758872,172.636001 L80.1927583,162.107823 C80.7687361,161.165314 81.9997129,160.868182 82.942222,161.444159 C83.2129538,161.609607 83.4404385,161.837091 83.6058857,162.107823 Z" id="Rectangle-4" fill="#007991" transform="translate(81.899322, 167.497082) rotate(85.000000) translate(-81.899322, -167.497082) "></path>
                <path d="M125.605886,205.107823 L132.039772,215.636001 C132.61575,216.57851 132.318617,217.809487 131.376108,218.385464 C131.062093,218.577363 130.701218,218.678901 130.333208,218.678901 L117.465436,218.678901 C116.360866,218.678901 115.465436,217.78347 115.465436,216.678901 C115.465436,216.310891 115.566973,215.950016 115.758872,215.636001 L122.192758,205.107823 C122.768736,204.165314 123.999713,203.868182 124.942222,204.444159 C125.212954,204.609607 125.440438,204.837091 125.605886,205.107823 Z" id="Rectangle-4" fill="#66B6AB" transform="translate(123.899322, 210.497082) rotate(-2.000000) translate(-123.899322, -210.497082) "></path>
                <path d="M83.5909822,107.048658 L90.0248685,117.576836 C90.6008463,118.519345 90.303714,119.750322 89.3612049,120.326299 C89.0471891,120.518198 88.6863144,120.619736 88.3183049,120.619736 L75.4505322,120.619736 C74.3459627,120.619736 73.4505322,119.724305 73.4505322,118.619736 C73.4505322,118.251726 73.55207,117.890851 73.7439686,117.576836 L80.1778549,107.048658 C80.7538327,106.106149 81.9848095,105.809017 82.9273186,106.384994 C83.1980504,106.550442 83.425535,106.777926 83.5909822,107.048658 Z" id="Rectangle-4" fill="#65CAC5" transform="translate(81.884419, 112.437917) rotate(325.000000) translate(-81.884419, -112.437917) "></path>
                <path d="M133.605886,137.107823 L140.039772,147.636001 C140.61575,148.57851 140.318617,149.809487 139.376108,150.385464 C139.062093,150.577363 138.701218,150.678901 138.333208,150.678901 L125.465436,150.678901 C124.360866,150.678901 123.465436,149.78347 123.465436,148.678901 C123.465436,148.310891 123.566973,147.950016 123.758872,147.636001 L130.192758,137.107823 C130.768736,136.165314 131.999713,135.868182 132.942222,136.444159 C133.212954,136.609607 133.440438,136.837091 133.605886,137.107823 Z" id="Rectangle-4" fill="#66B6AB" transform="translate(131.899322, 142.497082) rotate(142.000000) translate(-131.899322, -142.497082) "></path>
                <path d="M50.6058857,82.107823 L57.039772,92.6360006 C57.6157498,93.5785097 57.3186174,94.8094865 56.3761083,95.3854643 C56.0620925,95.5773629 55.7012178,95.6789007 55.3332083,95.6789007 L42.4654357,95.6789007 C41.3608662,95.6789007 40.4654357,94.7834702 40.4654357,93.6789007 C40.4654357,93.3108912 40.5669735,92.9500165 40.758872,92.6360006 L47.1927583,82.107823 C47.7687361,81.1653139 48.9997129,80.8681816 49.942222,81.4441594 C50.2129538,81.6096066 50.4404385,81.8370912 50.6058857,82.107823 Z" id="Rectangle-4" fill="#007991" transform="translate(48.899322, 87.497082) rotate(36.000000) translate(-48.899322, -87.497082) "></path>
                <path d="M63.6058857,7.10782302 L70.039772,17.6360006 C70.6157498,18.5785097 70.3186174,19.8094865 69.3761083,20.3854643 C69.0620925,20.5773629 68.7012178,20.6789007 68.3332083,20.6789007 L55.4654357,20.6789007 C54.3608662,20.6789007 53.4654357,19.7834702 53.4654357,18.6789007 C53.4654357,18.3108912 53.5669735,17.9500165 53.758872,17.6360006 L60.1927583,7.10782302 C60.7687361,6.16531394 61.9997129,5.8681816 62.942222,6.44415938 C63.2129538,6.60960658 63.4404385,6.83709123 63.6058857,7.10782302 Z" id="Rectangle-4" fill="#65CAC5" transform="translate(61.899322, 12.497082) rotate(36.000000) translate(-61.899322, -12.497082) "></path>
                <path d="M15.3133174,305.107823 L21.7472037,315.636001 C22.3231815,316.57851 22.0260491,317.809487 21.08354,318.385464 C20.7695242,318.577363 20.4086495,318.678901 20.04064,318.678901 L7.17286737,318.678901 C6.06829787,318.678901 5.17286737,317.78347 5.17286737,316.678901 C5.17286737,316.310891 5.27440514,315.950016 5.4663037,315.636001 L11.90019,305.107823 C12.4761678,304.165314 13.7071446,303.868182 14.6496537,304.444159 C14.9203855,304.609607 15.1478702,304.837091 15.3133174,305.107823 Z" id="Rectangle-4" fill="#007991" transform="translate(13.606754, 310.497082) rotate(36.000000) translate(-13.606754, -310.497082) "></path>
                <path d="M78.2590044,305.521037 L84.6928908,316.049214 C85.2688685,316.991723 84.9717362,318.2227 84.0292271,318.798678 C83.7152113,318.990577 83.3543366,319.092114 82.9863271,319.092114 L70.1185544,319.092114 C69.0139849,319.092114 68.1185544,318.196684 68.1185544,317.092114 C68.1185544,316.724105 68.2200922,316.36323 68.4119908,316.049214 L74.8458771,305.521037 C75.4218549,304.578528 76.6528317,304.281395 77.5953408,304.857373 C77.8660726,305.02282 78.0935572,305.250305 78.2590044,305.521037 Z" id="Rectangle-4" fill="#66B6AB" transform="translate(76.552441, 310.910296) rotate(-127.000000) translate(-76.552441, -310.910296) "></path>
            </g>
            <g id="Group-2" transform="translate(1296.000000, 1059.000000)">
                <path d="M58.2876235,84.897495 L64.7215098,95.4256726 C65.2974876,96.3681817 65.0003553,97.5991585 64.0578462,98.1751363 C63.7438304,98.3670349 63.3829557,98.4685726 63.0149462,98.4685726 L50.1471735,98.4685726 C49.042604,98.4685726 48.1471735,97.5731421 48.1471735,96.4685726 C48.1471735,96.1005631 48.2487113,95.7396885 48.4406099,95.4256726 L54.8744962,84.897495 C55.450474,83.9549859 56.6814508,83.6578536 57.6239599,84.2338314 C57.8946917,84.3992786 58.1221763,84.6267632 58.2876235,84.897495 Z" id="Rectangle-4" fill="#007991" transform="translate(56.581060, 90.286754) rotate(175.000000) translate(-56.581060, -90.286754) "></path>
                <path d="M27.1444811,148.990835 L33.5783674,159.519013 C34.1543452,160.461522 33.8572129,161.692499 32.9147038,162.268476 C32.600688,162.460375 32.2398133,162.561913 31.8718038,162.561913 L19.0040311,162.561913 C17.8994616,162.561913 17.0040311,161.666482 17.0040311,160.561913 C17.0040311,160.193903 17.1055689,159.833029 17.2974675,159.519013 L23.7313538,148.990835 C24.3073316,148.048326 25.5383084,147.751194 26.4808175,148.327171 C26.7515493,148.492619 26.9790339,148.720103 27.1444811,148.990835 Z" id="Rectangle-4" fill="#65CAC5" transform="translate(25.437917, 154.380095) rotate(415.000000) translate(-25.437917, -154.380095) "></path>
                <path d="M85.3105391,246.693403 L91.7444255,257.22158 C92.3204032,258.164089 92.0232709,259.395066 91.0807618,259.971044 C90.766746,260.162943 90.4058713,260.26448 90.0378618,260.26448 L77.1700891,260.26448 C76.0655196,260.26448 75.1700891,259.36905 75.1700891,258.26448 C75.1700891,257.896471 75.2716269,257.535596 75.4635255,257.22158 L81.8974118,246.693403 C82.4733896,245.750894 83.7043664,245.453761 84.6468755,246.029739 C84.9176073,246.195186 85.1450919,246.422671 85.3105391,246.693403 Z" id="Rectangle-4" fill="#66B6AB" transform="translate(83.603975, 252.082662) rotate(232.000000) translate(-83.603975, -252.082662) "></path>
                <path d="M84.8254889,370.602483 L91.2593752,381.130661 C91.835353,382.07317 91.5382206,383.304147 90.5957115,383.880124 C90.2816957,384.072023 89.920821,384.173561 89.5528115,384.173561 L76.6850389,384.173561 C75.5804694,384.173561 74.6850389,383.27813 74.6850389,382.173561 C74.6850389,381.805551 74.7865767,381.444677 74.9784752,381.130661 L81.4123615,370.602483 C81.9883393,369.659974 83.2193161,369.362842 84.1618252,369.93882 C84.432557,370.104267 84.6600417,370.331751 84.8254889,370.602483 Z" id="Rectangle-4" fill="#007991" transform="translate(83.118925, 375.991743) scale(-1, 1) rotate(-19.000000) translate(-83.118925, -375.991743) "></path>
                <path d="M87.200488,172.65211 L93.6343743,183.180288 C94.2103521,184.122797 93.9132197,185.353774 92.9707106,185.929752 C92.6566948,186.12165 92.2958201,186.223188 91.9278106,186.223188 L79.060038,186.223188 C77.9554685,186.223188 77.060038,185.327757 77.060038,184.223188 C77.060038,183.855178 77.1615757,183.494304 77.3534743,183.180288 L83.7873606,172.65211 C84.3633384,171.709601 85.5943152,171.412469 86.5368243,171.988447 C86.8075561,172.153894 87.0350408,172.381378 87.200488,172.65211 Z" id="Rectangle-4" fill="#66B6AB" transform="translate(85.493924, 178.041370) scale(-1, 1) rotate(278.000000) translate(-85.493924, -178.041370) "></path>
                <path d="M27.728805,223.28578 L34.1626913,233.813958 C34.7386691,234.756467 34.4415367,235.987443 33.4990277,236.563421 C33.1850118,236.75532 32.8241372,236.856858 32.4561276,236.856858 L19.588355,236.856858 C18.4837855,236.856858 17.588355,235.961427 17.588355,234.856858 C17.588355,234.488848 17.6898928,234.127973 17.8817913,233.813958 L24.3156777,223.28578 C24.8916554,222.343271 26.1226323,222.046139 27.0651413,222.622116 C27.3358731,222.787564 27.5633578,223.015048 27.728805,223.28578 Z" id="Rectangle-4" fill="#007991" transform="translate(26.022241, 228.675039) scale(-1, 1) rotate(265.000000) translate(-26.022241, -228.675039) "></path>
                <path d="M14.6239015,7.21471601 L21.0577878,17.7428936 C21.6337656,18.6854027 21.3366332,19.9163795 20.3941241,20.4923573 C20.0801083,20.6842559 19.7192336,20.7857936 19.3512241,20.7857936 L6.48345147,20.7857936 C5.37888197,20.7857936 4.48345147,19.8903631 4.48345147,18.7857936 C4.48345147,18.4177841 4.58498924,18.0569095 4.7768878,17.7428936 L11.2107741,7.21471601 C11.7867519,6.27220692 13.0177287,5.97507459 13.9602378,6.55105236 C14.2309696,6.71649957 14.4584543,6.94398422 14.6239015,7.21471601 Z" id="Rectangle-4" fill="#66B6AB" transform="translate(12.917338, 12.603975) scale(-1, 1) rotate(322.000000) translate(-12.917338, -12.603975) "></path>
                <path d="M33.2590044,299.521037 L39.6928908,310.049214 C40.2688685,310.991723 39.9717362,312.2227 39.0292271,312.798678 C38.7152113,312.990577 38.3543366,313.092114 37.9863271,313.092114 L25.1185544,313.092114 C24.0139849,313.092114 23.1185544,312.196684 23.1185544,311.092114 C23.1185544,310.724105 23.2200922,310.36323 23.4119908,310.049214 L29.8458771,299.521037 C30.4218549,298.578528 31.6528317,298.281395 32.5953408,298.857373 C32.8660726,299.02282 33.0935572,299.250305 33.2590044,299.521037 Z" id="Rectangle-4" fill="#66B6AB" transform="translate(31.552441, 304.910296) scale(-1, 1) rotate(53.000000) translate(-31.552441, -304.910296) "></path>
            </g>
            <g id="Triangles" transform="translate(1309.500000, 900.500000) scale(1, -1) translate(-1309.500000, -900.500000) translate(1244.000000, 704.000000)">
                <path d="M90.7065637,99.7925587 L97.14045,110.320736 C97.7164278,111.263245 97.4192954,112.494222 96.4767863,113.0702 C96.1627705,113.262099 95.8018958,113.363636 95.4338863,113.363636 L82.5661137,113.363636 C81.4615442,113.363636 80.5661137,112.468206 80.5661137,111.363636 C80.5661137,110.995627 80.6676514,110.634752 80.85955,110.320736 L87.2934363,99.7925587 C87.8694141,98.8500496 89.1003909,98.5529173 90.0429,99.1288951 C90.3136318,99.2943423 90.5411165,99.5218269 90.7065637,99.7925587 Z" id="Rectangle-4" fill="#66B6AB" transform="translate(89.000000, 105.181818) rotate(76.000000) translate(-89.000000, -105.181818) "></path>
                <path d="M119.605886,139.107823 L126.039772,149.636001 C126.61575,150.57851 126.318617,151.809487 125.376108,152.385464 C125.062093,152.577363 124.701218,152.678901 124.333208,152.678901 L111.465436,152.678901 C110.360866,152.678901 109.465436,151.78347 109.465436,150.678901 C109.465436,150.310891 109.566973,149.950016 109.758872,149.636001 L116.192758,139.107823 C116.768736,138.165314 117.999713,137.868182 118.942222,138.444159 C119.212954,138.609607 119.440438,138.837091 119.605886,139.107823 Z" id="Rectangle-4" fill="#66B6AB" transform="translate(117.899322, 144.497082) rotate(-13.000000) translate(-117.899322, -144.497082) "></path>
                <path d="M51.6058857,274.107823 L58.039772,284.636001 C58.6157498,285.57851 58.3186174,286.809487 57.3761083,287.385464 C57.0620925,287.577363 56.7012178,287.678901 56.3332083,287.678901 L43.4654357,287.678901 C42.3608662,287.678901 41.4654357,286.78347 41.4654357,285.678901 C41.4654357,285.310891 41.5669735,284.950016 41.758872,284.636001 L48.1927583,274.107823 C48.7687361,273.165314 49.9997129,272.868182 50.942222,273.444159 C51.2129538,273.609607 51.4404385,273.837091 51.6058857,274.107823 Z" id="Rectangle-4" fill="#65CAC5" transform="translate(49.899322, 279.497082) rotate(36.000000) translate(-49.899322, -279.497082) "></path>
                <path d="M36.6058857,316.107823 L43.039772,326.636001 C43.6157498,327.57851 43.3186174,328.809487 42.3761083,329.385464 C42.0620925,329.577363 41.7012178,329.678901 41.3332083,329.678901 L28.4654357,329.678901 C27.3608662,329.678901 26.4654357,328.78347 26.4654357,327.678901 C26.4654357,327.310891 26.5669735,326.950016 26.758872,326.636001 L33.1927583,316.107823 C33.7687361,315.165314 34.9997129,314.868182 35.942222,315.444159 C36.2129538,315.609607 36.4404385,315.837091 36.6058857,316.107823 Z" id="Rectangle-4" fill="#66B6AB" transform="translate(34.899322, 321.497082) rotate(-49.000000) translate(-34.899322, -321.497082) "></path>
                <path d="M88.6058857,304.107823 L95.039772,314.636001 C95.6157498,315.57851 95.3186174,316.809487 94.3761083,317.385464 C94.0620925,317.577363 93.7012178,317.678901 93.3332083,317.678901 L80.4654357,317.678901 C79.3608662,317.678901 78.4654357,316.78347 78.4654357,315.678901 C78.4654357,315.310891 78.5669735,314.950016 78.758872,314.636001 L85.1927583,304.107823 C85.7687361,303.165314 86.9997129,302.868182 87.942222,303.444159 C88.2129538,303.609607 88.4404385,303.837091 88.6058857,304.107823 Z" id="Rectangle-4" fill="#007991" transform="translate(86.899322, 309.497082) rotate(-199.000000) translate(-86.899322, -309.497082) "></path>
                <path d="M23.7065637,220.65211 L30.14045,231.180288 C30.7164278,232.122797 30.4192954,233.353774 29.4767863,233.929752 C29.1627705,234.12165 28.8018958,234.223188 28.4338863,234.223188 L15.5661137,234.223188 C14.4615442,234.223188 13.5661137,233.327757 13.5661137,232.223188 C13.5661137,231.855178 13.6676514,231.494304 13.85955,231.180288 L20.2934363,220.65211 C20.8694141,219.709601 22.1003909,219.412469 23.0429,219.988447 C23.3136318,220.153894 23.5411165,220.381378 23.7065637,220.65211 Z" id="Rectangle-4" fill="#66B6AB" transform="translate(22.000000, 226.041370) rotate(98.000000) translate(-22.000000, -226.041370) "></path>
                <path d="M69.6058857,231.107823 L76.039772,241.636001 C76.6157498,242.57851 76.3186174,243.809487 75.3761083,244.385464 C75.0620925,244.577363 74.7012178,244.678901 74.3332083,244.678901 L61.4654357,244.678901 C60.3608662,244.678901 59.4654357,243.78347 59.4654357,242.678901 C59.4654357,242.310891 59.5669735,241.950016 59.758872,241.636001 L66.1927583,231.107823 C66.7687361,230.165314 67.9997129,229.868182 68.942222,230.444159 C69.2129538,230.609607 69.4404385,230.837091 69.6058857,231.107823 Z" id="Rectangle-4" fill="#007991" transform="translate(67.899322, 236.497082) rotate(85.000000) translate(-67.899322, -236.497082) "></path>
                <path d="M111.605886,274.107823 L118.039772,284.636001 C118.61575,285.57851 118.318617,286.809487 117.376108,287.385464 C117.062093,287.577363 116.701218,287.678901 116.333208,287.678901 L103.465436,287.678901 C102.360866,287.678901 101.465436,286.78347 101.465436,285.678901 C101.465436,285.310891 101.566973,284.950016 101.758872,284.636001 L108.192758,274.107823 C108.768736,273.165314 109.999713,272.868182 110.942222,273.444159 C111.212954,273.609607 111.440438,273.837091 111.605886,274.107823 Z" id="Rectangle-4" fill="#66B6AB" transform="translate(109.899322, 279.497082) rotate(-2.000000) translate(-109.899322, -279.497082) "></path>
                <path d="M114.590982,32.1728231 L121.024869,42.7010007 C121.600846,43.6435098 121.303714,44.8744866 120.361205,45.4504644 C120.047189,45.642363 119.686314,45.7439007 119.318305,45.7439007 L106.450532,45.7439007 C105.345963,45.7439007 104.450532,44.8484702 104.450532,43.7439007 C104.450532,43.3758912 104.55207,43.0150165 104.743969,42.7010007 L111.177855,32.1728231 C111.753833,31.230314 112.984809,30.9331817 113.927319,31.5091594 C114.19805,31.6746066 114.425535,31.9020913 114.590982,32.1728231 Z" id="Rectangle-4" fill="#65CAC5" transform="translate(112.884419, 37.562083) rotate(325.000000) translate(-112.884419, -37.562083) "></path>
                <path d="M119.605886,206.107823 L126.039772,216.636001 C126.61575,217.57851 126.318617,218.809487 125.376108,219.385464 C125.062093,219.577363 124.701218,219.678901 124.333208,219.678901 L111.465436,219.678901 C110.360866,219.678901 109.465436,218.78347 109.465436,217.678901 C109.465436,217.310891 109.566973,216.950016 109.758872,216.636001 L116.192758,206.107823 C116.768736,205.165314 117.999713,204.868182 118.942222,205.444159 C119.212954,205.609607 119.440438,205.837091 119.605886,206.107823 Z" id="Rectangle-4" fill="#66B6AB" transform="translate(117.899322, 211.497082) rotate(142.000000) translate(-117.899322, -211.497082) "></path>
                <path d="M36.6058857,151.107823 L43.039772,161.636001 C43.6157498,162.57851 43.3186174,163.809487 42.3761083,164.385464 C42.0620925,164.577363 41.7012178,164.678901 41.3332083,164.678901 L28.4654357,164.678901 C27.3608662,164.678901 26.4654357,163.78347 26.4654357,162.678901 C26.4654357,162.310891 26.5669735,161.950016 26.758872,161.636001 L33.1927583,151.107823 C33.7687361,150.165314 34.9997129,149.868182 35.942222,150.444159 C36.2129538,150.609607 36.4404385,150.837091 36.6058857,151.107823 Z" id="Rectangle-4" fill="#007991" transform="translate(34.899322, 156.497082) rotate(36.000000) translate(-34.899322, -156.497082) "></path>
                <path d="M14.6058857,7.23782316 L21.039772,17.7660008 C21.6157498,18.7085099 21.3186174,19.9394867 20.3761083,20.5154645 C20.0620925,20.707363 19.7012178,20.8089008 19.3332083,20.8089008 L6.46543569,20.8089008 C5.36086619,20.8089008 4.46543569,19.9134703 4.46543569,18.8089008 C4.46543569,18.4408913 4.56697346,18.0800166 4.75887202,17.7660008 L11.1927583,7.23782316 C11.7687361,6.29531408 12.9997129,5.99818174 13.942222,6.57415951 C14.2129538,6.73960672 14.4404385,6.96709137 14.6058857,7.23782316 Z" id="Rectangle-4" fill="#65CAC5" transform="translate(12.899322, 12.627083) rotate(36.000000) translate(-12.899322, -12.627083) "></path>
                <path d="M64.2590044,374.521037 L70.6928908,385.049214 C71.2688685,385.991723 70.9717362,387.2227 70.0292271,387.798678 C69.7152113,387.990577 69.3543366,388.092114 68.9863271,388.092114 L56.1185544,388.092114 C55.0139849,388.092114 54.1185544,387.196684 54.1185544,386.092114 C54.1185544,385.724105 54.2200922,385.36323 54.4119908,385.049214 L60.8458771,374.521037 C61.4218549,373.578528 62.6528317,373.281395 63.5953408,373.857373 C63.8660726,374.02282 64.0935572,374.250305 64.2590044,374.521037 Z" id="Rectangle-4" fill="#66B6AB" transform="translate(62.552441, 379.910296) rotate(-127.000000) translate(-62.552441, -379.910296) "></path>
            </g>
            <g id="Triangles" transform="translate(1330.013916, 903.325479) scale(1, -1) rotate(18.000000) translate(-1330.013916, -903.325479) translate(1201.513916, 402.825479)">
                <path d="M40.7065637,707.792559 L47.14045,718.320736 C47.7164278,719.263245 47.4192954,720.494222 46.4767863,721.0702 C46.1627705,721.262099 45.8018958,721.363636 45.4338863,721.363636 L32.5661137,721.363636 C31.4615442,721.363636 30.5661137,720.468206 30.5661137,719.363636 C30.5661137,718.995627 30.6676514,718.634752 30.85955,718.320736 L37.2934363,707.792559 C37.8694141,706.85005 39.1003909,706.552917 40.0429,707.128895 C40.3136318,707.294342 40.5411165,707.521827 40.7065637,707.792559 Z" id="Rectangle-4" fill="#66B6AB" transform="translate(39.000000, 713.181818) rotate(76.000000) translate(-39.000000, -713.181818) "></path>
                <path d="M132.357914,729.696506 L138.791801,740.224684 C139.367778,741.167193 139.070646,742.39817 138.128137,742.974148 C137.814121,743.166046 137.453246,743.267584 137.085237,743.267584 L124.217464,743.267584 C123.112895,743.267584 122.217464,742.372153 122.217464,741.267584 C122.217464,740.899574 122.319002,740.5387 122.510901,740.224684 L128.944787,729.696506 C129.520765,728.753997 130.751742,728.456865 131.694251,729.032843 C131.964982,729.19829 132.192467,729.425774 132.357914,729.696506 Z" id="Rectangle-4" fill="#66B6AB" transform="translate(130.651351, 735.085766) rotate(-13.000000) translate(-130.651351, -735.085766) "></path>
                <path d="M63.9638878,7.54575086 L70.3977742,18.0739285 C70.9737519,19.0164376 70.6766196,20.2474144 69.7341105,20.8233922 C69.4200947,21.0152907 69.05922,21.1168285 68.6912105,21.1168285 L55.8234379,21.1168285 C54.7188684,21.1168285 53.8234379,20.221398 53.8234379,19.1168285 C53.8234379,18.748819 53.9249756,18.3879443 54.1168742,18.0739285 L60.5507605,7.54575086 C61.1267383,6.60324177 62.3577151,6.30610944 63.3002242,6.88208721 C63.570956,7.04753442 63.7984406,7.27501907 63.9638878,7.54575086 Z" id="Rectangle-4" fill="#65CAC5" transform="translate(62.257324, 12.935010) rotate(36.000000) translate(-62.257324, -12.935010) "></path>
                <path d="M32.9710768,255.834105 L39.4049631,266.362283 C39.9809409,267.304792 39.6838086,268.535769 38.7412995,269.111746 C38.4272837,269.303645 38.066409,269.405183 37.6983995,269.405183 L24.8306268,269.405183 C23.7260573,269.405183 22.8306268,268.509752 22.8306268,267.405183 C22.8306268,267.037173 22.9321646,266.676299 23.1240632,266.362283 L29.5579495,255.834105 C30.1339273,254.891596 31.3649041,254.594464 32.3074132,255.170442 C32.578145,255.335889 32.8056296,255.563373 32.9710768,255.834105 Z" id="Rectangle-4" fill="#66B6AB" transform="translate(31.264513, 261.223365) rotate(-49.000000) translate(-31.264513, -261.223365) "></path>
                <path d="M120.825489,901.625395 L127.259375,912.153572 C127.835353,913.096081 127.538221,914.327058 126.595712,914.903036 C126.281696,915.094935 125.920821,915.196472 125.552812,915.196472 L112.685039,915.196472 C111.580469,915.196472 110.685039,914.301042 110.685039,913.196472 C110.685039,912.828463 110.786577,912.467588 110.978475,912.153572 L117.412362,901.625395 C117.988339,900.682886 119.219316,900.385753 120.161825,900.961731 C120.432557,901.127178 120.660042,901.354663 120.825489,901.625395 Z" id="Rectangle-4" fill="#007991" transform="translate(119.118925, 907.014654) rotate(-199.000000) translate(-119.118925, -907.014654) "></path>
                <path d="M51.0645658,397.16918 L57.4984522,407.697358 C58.0744299,408.639867 57.7772976,409.870843 56.8347885,410.446821 C56.5207727,410.63872 56.159898,410.740258 55.7918885,410.740258 L42.9241158,410.740258 C41.8195464,410.740258 40.9241158,409.844827 40.9241158,408.740258 C40.9241158,408.372248 41.0256536,408.011373 41.2175522,407.697358 L47.6514385,397.16918 C48.2274163,396.226671 49.4583931,395.929539 50.4009022,396.505516 C50.671634,396.670964 50.8991186,396.898448 51.0645658,397.16918 Z" id="Rectangle-4" fill="#66B6AB" transform="translate(49.358002, 402.558439) rotate(98.000000) translate(-49.358002, -402.558439) "></path>
                <path d="M108.706564,685.929866 L115.14045,696.458044 C115.716428,697.400553 115.419295,698.63153 114.476786,699.207507 C114.162771,699.399406 113.801896,699.500944 113.433886,699.500944 L100.566114,699.500944 C99.4615442,699.500944 98.5661137,698.605513 98.5661137,697.500944 C98.5661137,697.132934 98.6676514,696.77206 98.85955,696.458044 L105.293436,685.929866 C105.869414,684.987357 107.100391,684.690225 108.0429,685.266202 C108.313632,685.43165 108.541116,685.659134 108.706564,685.929866 Z" id="Rectangle-4" fill="#007991" transform="translate(107.000000, 691.319126) rotate(85.000000) translate(-107.000000, -691.319126) "></path>
                <path d="M61.6058857,882.107823 L68.039772,892.636001 C68.6157498,893.57851 68.3186174,894.809487 67.3761083,895.385464 C67.0620925,895.577363 66.7012178,895.678901 66.3332083,895.678901 L53.4654357,895.678901 C52.3608662,895.678901 51.4654357,894.78347 51.4654357,893.678901 C51.4654357,893.310891 51.5669735,892.950016 51.758872,892.636001 L58.1927583,882.107823 C58.7687361,881.165314 59.9997129,880.868182 60.942222,881.444159 C61.2129538,881.609607 61.4404385,881.837091 61.6058857,882.107823 Z" id="Rectangle-4" fill="#66B6AB" transform="translate(59.899322, 887.497082) rotate(-2.000000) translate(-59.899322, -887.497082) "></path>
                <path d="M71.4903042,771.54574 L77.9241906,782.073918 C78.5001683,783.016427 78.203036,784.247404 77.2605269,784.823382 C76.9465111,785.01528 76.5856364,785.116818 76.2176269,785.116818 L63.3498542,785.116818 C62.2452847,785.116818 61.3498542,784.221388 61.3498542,783.116818 C61.3498542,782.748809 61.451392,782.387934 61.6432906,782.073918 L68.0771769,771.54574 C68.6531547,770.603231 69.8841315,770.306099 70.8266406,770.882077 C71.0973724,771.047524 71.324857,771.275009 71.4903042,771.54574 Z" id="Rectangle-4" fill="#65CAC5" transform="translate(69.783741, 776.935000) rotate(325.000000) translate(-69.783741, -776.935000) "></path>
                <path d="M120.773705,841.036759 L127.207591,851.564937 C127.783569,852.507446 127.486437,853.738423 126.543928,854.3144 C126.229912,854.506299 125.869037,854.607837 125.501028,854.607837 L112.633255,854.607837 C111.528686,854.607837 110.633255,853.712406 110.633255,852.607837 C110.633255,852.239827 110.734793,851.878953 110.926691,851.564937 L117.360578,841.036759 C117.936555,840.09425 119.167532,839.797118 120.110041,840.373095 C120.380773,840.538543 120.608258,840.766027 120.773705,841.036759 Z" id="Rectangle-4" fill="#66B6AB" transform="translate(119.067141, 846.426019) rotate(142.000000) translate(-119.067141, -846.426019) "></path>
                <path d="M219.757825,698.426949 L226.191711,708.955126 C226.767689,709.897635 226.470557,711.128612 225.528048,711.70459 C225.214032,711.896488 224.853157,711.998026 224.485148,711.998026 L211.617375,711.998026 C210.512805,711.998026 209.617375,711.102596 209.617375,709.998026 C209.617375,709.630017 209.718913,709.269142 209.910811,708.955126 L216.344698,698.426949 C216.920675,697.484439 218.151652,697.187307 219.094161,697.763285 C219.364893,697.928732 219.592378,698.156217 219.757825,698.426949 Z" id="Rectangle-4" fill="#007991" transform="translate(218.051261, 703.816208) rotate(36.000000) translate(-218.051261, -703.816208) "></path>
                <path d="M245.556469,640.113658 L251.990355,650.641836 C252.566333,651.584345 252.269201,652.815322 251.326692,653.391299 C251.012676,653.583198 250.651801,653.684736 250.283792,653.684736 L237.416019,653.684736 C236.31145,653.684736 235.416019,652.789305 235.416019,651.684736 C235.416019,651.316726 235.517557,650.955852 235.709455,650.641836 L242.143342,640.113658 C242.719319,639.171149 243.950296,638.874017 244.892805,639.449994 C245.163537,639.615442 245.391022,639.842926 245.556469,640.113658 Z" id="Rectangle-4" fill="#65CAC5" transform="translate(243.849905, 645.502918) rotate(36.000000) translate(-243.849905, -645.502918) "></path>
                <path d="M58.6058857,640.113658 L65.039772,650.641836 C65.6157498,651.584345 65.3186174,652.815322 64.3761083,653.391299 C64.0620925,653.583198 63.7012178,653.684736 63.3332083,653.684736 L50.4654357,653.684736 C49.3608662,653.684736 48.4654357,652.789305 48.4654357,651.684736 C48.4654357,651.316726 48.5669735,650.955852 48.758872,650.641836 L55.1927583,640.113658 C55.7687361,639.171149 56.9997129,638.874017 57.942222,639.449994 C58.2129538,639.615442 58.4404385,639.842926 58.6058857,640.113658 Z" id="Rectangle-4" fill="#007991" transform="translate(56.899322, 645.502918) rotate(36.000000) translate(-56.899322, -645.502918) "></path>
                <path d="M14.2590044,982.521037 L20.6928908,993.049214 C21.2688685,993.991723 20.9717362,995.2227 20.0292271,995.798678 C19.7152113,995.990577 19.3543366,996.092114 18.9863271,996.092114 L6.11855445,996.092114 C5.01398495,996.092114 4.11855445,995.196684 4.11855445,994.092114 C4.11855445,993.724105 4.22009222,993.36323 4.41199078,993.049214 L10.8458771,982.521037 C11.4218549,981.578528 12.6528317,981.281395 13.5953408,981.857373 C13.8660726,982.02282 14.0935572,982.250305 14.2590044,982.521037 Z" id="Rectangle-4" fill="#66B6AB" transform="translate(12.552441, 987.910296) rotate(-127.000000) translate(-12.552441, -987.910296) "></path>
            </g>
            <path d="M1032.259,229.521037 L1038.69289,240.049214 C1039.26887,240.991723 1038.97174,242.2227 1038.02923,242.798678 C1037.71521,242.990577 1037.35434,243.092114 1036.98633,243.092114 L1024.11855,243.092114 C1023.01398,243.092114 1022.11855,242.196684 1022.11855,241.092114 C1022.11855,240.724105 1022.22009,240.36323 1022.41199,240.049214 L1028.84588,229.521037 C1029.42185,228.578528 1030.65283,228.281395 1031.59534,228.857373 C1031.86607,229.02282 1032.09356,229.250305 1032.259,229.521037 Z" id="Rectangle-4" fill="#66B6AB" transform="translate(1030.552441, 234.910296) rotate(-127.000000) translate(-1030.552441, -234.910296) "></path>
        </g>
    </g>
</svg>