<?xml version="1.0" encoding="UTF-8"?>
<svg width="21px" height="18px" viewBox="0 0 21 18" version="1.1" xmlns="http://www.w3.org/2000/svg" xmlns:xlink="http://www.w3.org/1999/xlink">
    <!-- Generator: Sketch 48.2 (47327) - http://www.bohemiancoding.com/sketch -->
    <title>Twitter</title>
    <desc>Created with Sketch.</desc>
    <defs></defs>
    <g id="Page-6" stroke="none" stroke-width="1" fill="none" fill-rule="evenodd">
        <path d="M20.4207941,0.332767294 C19.5875898,0.852968505 18.6669159,1.23129666 17.6828825,1.43372529 C16.8990201,0.551344077 15.778736,0 14.5384615,0 C12.1610819,0 10.2317037,2.03466726 10.2317037,4.54397488 C10.2317037,4.90038768 10.2687101,5.24584281 10.3427229,5.57861011 C6.76207513,5.38886931 3.58793688,3.58200634 1.46175206,0.829322995 C1.09056684,1.50293166 0.878621205,2.28438691 0.878621205,3.11659351 C0.878621205,4.69219186 1.63893413,6.08323988 2.7956639,6.89814488 C2.09029984,6.87622953 1.42474568,6.66976387 0.842736229,6.33180609 L0.842736229,6.38717119 C0.842736229,8.5896639 2.32803781,10.427093 4.30059007,10.8429079 C3.9394975,10.9496011 3.55821964,11.003236 3.16516701,11.003236 C2.88761915,11.003236 2.61679972,10.9755535 2.35439084,10.9224953 C2.90275812,12.7270514 4.49291112,14.0413957 6.37855445,14.0765756 C4.90446693,15.2957611 3.04573732,16.022428 1.02776814,16.022428 C0.680132433,16.022428 0.336421648,16.0016661 0,15.9601423 C1.90638934,17.2473807 4.17218914,18 6.60451766,18 C14.530051,18 18.8626011,11.0770562 18.8626011,5.07167345 C18.8626011,4.87385858 18.8592369,4.67662042 18.8519478,4.48284259 C19.6935626,3.84210695 20.424719,3.04219666 21,2.13097946 C20.228473,2.49200602 19.3975115,2.7365352 18.5261795,2.84611195 C19.4160147,2.28438691 20.0989507,1.39393163 20.4207941,0.332767294" id="Twitter" fill="#3FA2F7"></path>
    </g>
</svg>