<?xml version="1.0" encoding="UTF-8"?>
<svg width="98px" height="98px" viewBox="0 0 98 98" version="1.1" xmlns="http://www.w3.org/2000/svg" xmlns:xlink="http://www.w3.org/1999/xlink">
    <!-- Generator: Sketch 48.2 (47327) - http://www.bohemiancoding.com/sketch -->
    <title>Page 1</title>
    <desc>Created with Sketch.</desc>
    <defs></defs>
    <g id="Page-1" stroke="none" stroke-width="1" fill="none" fill-rule="evenodd">
        <path d="M79.801003,45.698608 L67.699003,45.698608 C67.199003,42.698608 65.999803,39.999408 64.398203,37.698608 L72.898203,29.198608 C76.398203,30.897808 80.597403,30.300208 83.500203,27.397808 C87.101803,23.796208 87.101803,17.897808 83.500203,14.295808 C79.898603,10.694208 74.000203,10.694208 70.398203,14.295808 C67.597403,17.096608 66.999803,21.397408 68.597403,24.795808 L59.898203,33.397408 C57.597403,31.795808 54.898203,30.596608 51.999803,30.096608 L51.999803,17.998608 C55.601403,16.697808 58.101403,13.299408 58.101403,9.299408 C58.101403,4.197808 53.902203,-0.001392 48.800603,-0.001392 C43.699003,-0.001392 39.499803,4.197808 39.499803,9.299408 C39.499803,13.401008 42.101403,16.799408 45.800603,18.100208 L45.800603,30.202208 C42.902203,30.702208 40.101403,31.803808 37.800603,33.503008 L29.199003,24.901408 C30.800603,21.503008 30.199003,17.202208 27.398203,14.401408 C23.796603,10.799808 17.898203,10.799808 14.296203,14.401408 C10.694603,18.003008 10.694603,23.901408 14.296203,27.503408 C17.194603,30.401808 21.495403,31.003408 24.898203,29.304208 L33.499803,37.905808 C31.800603,40.206608 30.699003,42.905808 30.199003,45.905808 L18.000003,45.897998 C16.699203,42.296398 13.300803,39.796398 9.300803,39.796398 C4.1992,39.796398 0,43.995598 0,49.097198 C0,54.198798 4.1992,58.397998 9.300803,58.397998 C13.402403,58.397998 16.800803,55.796398 18.101603,52.097198 L30.203603,52.097198 C30.703603,54.995598 31.805203,57.796398 33.504403,60.097198 L24.902803,68.698798 C21.504403,67.097198 17.203603,67.698798 14.402803,70.499598 C10.801203,74.101198 10.801203,79.999598 14.402803,83.601598 C18.004403,87.203198 23.902803,87.203198 27.504803,83.601598 C30.403203,80.703198 31.004803,76.402398 29.305603,72.999598 L37.907203,64.397998 C40.305603,66.097198 43.008803,67.296398 46.008803,67.796398 L46.008803,79.898398 C42.407203,81.199198 39.708003,84.597598 39.708003,88.699198 C39.708003,93.8008 43.907203,98 49.008803,98 C54.110403,98 58.309603,93.8008 58.309603,88.699198 C58.309603,84.699198 55.708003,81.300798 52.208003,79.999998 L52.200193,67.597998 C55.200193,67.097998 57.899393,65.996398 60.200193,64.297198 L68.700193,72.797198 C67.000993,76.297198 67.598593,80.496398 70.500993,83.399198 C74.102593,87.000798 80.000993,87.000798 83.602993,83.399198 C87.204993,79.797598 87.204593,73.899198 83.602993,70.297198 C80.802193,67.496398 76.501393,66.898798 73.102993,68.496398 L64.501393,59.894798 C66.200593,57.593998 67.302193,54.793198 67.802193,51.894798 L79.904193,51.894798 C81.204993,55.496398 84.603393,58.195598 88.704993,58.195598 C93.806593,58.195598 98.005793,53.996398 98.005793,48.894798 C97.798763,43.797098 93.701093,39.597898 88.501893,39.597898 C84.500203,39.597008 81.101803,42.198608 79.801003,45.698608 Z M74.500203,18.499008 C75.801003,17.198208 77.898603,17.198208 79.199403,18.499008 C80.500203,19.799808 80.500203,21.897408 79.199403,23.198208 C77.898603,24.499008 75.801003,24.499008 74.500203,23.198208 C73.199403,21.897408 73.199403,19.795908 74.500203,18.499008 Z M23.297203,23.295908 C21.996403,24.596708 19.898803,24.596708 18.598003,23.295908 C17.297203,21.995108 17.297203,19.897508 18.598003,18.596708 C19.898803,17.295908 21.996403,17.295908 23.297203,18.596708 C24.598003,19.795908 24.598003,21.897508 23.297203,23.295908 Z M9.297203,52.295908 C7.398801,52.295908 5.898801,50.795908 5.898801,48.897508 C5.898801,46.999108 7.398801,45.499108 9.297203,45.499108 C11.195603,45.499108 12.695603,46.999108 12.695603,48.897508 C12.699503,50.795908 11.097903,52.295908 9.297203,52.295908 Z M23.297203,79.295908 C21.996403,80.596708 19.898803,80.596708 18.598003,79.295908 C17.297203,77.995108 17.297203,75.897508 18.598003,74.596708 C19.898803,73.295908 21.996403,73.295908 23.297203,74.596708 C24.598003,75.897508 24.598003,77.999008 23.297203,79.295908 Z M45.500203,9.295908 C45.500203,7.397508 47.000203,5.897508 48.898603,5.897508 C50.797003,5.897508 52.297003,7.397508 52.297003,9.295908 C52.297003,11.194308 50.797003,12.694308 48.898603,12.694308 C47.000203,12.596658 45.500203,11.096608 45.500203,9.295908 Z M52.297103,88.498908 C52.297103,90.397312 50.797103,91.897313 48.898703,91.897313 C47.000303,91.897313 45.500303,90.397313 45.500303,88.498908 C45.500303,86.600508 47.000303,85.100508 48.898703,85.100508 C50.797103,85.198168 52.297103,86.698208 52.297103,88.498908 Z M49.898703,52.295918 L46.898703,55.194318 L44.000303,52.194318 L41.199503,49.295918 L44.199503,46.397518 L47.000303,49.295918 L53.801103,42.596718 L56.699503,45.596718 L49.898703,52.295918 Z M74.500703,74.498908 C75.801503,73.198108 77.899103,73.198108 79.199903,74.498908 C80.500703,75.799708 80.500703,77.897308 79.199903,79.198108 C77.899103,80.498908 75.801503,80.498908 74.500703,79.198108 C73.199903,77.998908 73.199903,75.897308 74.500703,74.498908 Z M88.500703,52.295918 C86.602303,52.295918 85.102303,50.795918 85.102303,48.897518 C85.102303,46.999118 86.602303,45.499118 88.500703,45.499118 C90.399103,45.499118 91.899103,46.999118 91.899103,48.897518 C91.899103,50.795918 90.399103,52.295918 88.500703,52.295918 Z" fill="#FFC843"></path>
    </g>
</svg>